# Blender 3.4.0
# www.blender.org
mtllib button_11.mtl
o button_11
v 0.027661 0.024874 0.022000
v 0.025249 0.022533 0.022000
v 0.025177 0.002529 0.022000
v 0.027731 0.000046 0.022000
v 0.050218 -0.000025 0.022000
v 0.052700 0.002529 0.022000
v 0.052700 0.022533 0.022000
v 0.050218 0.024945 0.022000
v 0.028475 0.022876 0.026000
v 0.027661 0.024874 0.024000
v 0.025249 0.022533 0.024000
v 0.027246 0.021684 0.026000
v 0.025177 0.002529 0.024000
v 0.027180 0.003371 0.026000
v 0.027731 0.000046 0.024000
v 0.028546 0.002044 0.026000
v 0.050218 -0.000025 0.024000
v 0.049375 0.001978 0.026000
v 0.052700 0.002529 0.024000
v 0.050700 0.003341 0.026000
v 0.052700 0.022533 0.024000
v 0.050700 0.021688 0.026000
v 0.050218 0.024945 0.024000
v 0.049409 0.022942 0.026000
v 0.027662 -0.007668 0.022000
v 0.025249 -0.010009 0.022000
v 0.025178 -0.030012 0.022000
v 0.027732 -0.032495 0.022000
v 0.050219 -0.032566 0.022000
v 0.052701 -0.030012 0.022000
v 0.052701 -0.010009 0.022000
v 0.050219 -0.007597 0.022000
v 0.028476 -0.009665 0.026000
v 0.027662 -0.007668 0.024000
v 0.025249 -0.010009 0.024000
v 0.027246 -0.010858 0.026000
v 0.025178 -0.030012 0.024000
v 0.027181 -0.029170 0.026000
v 0.027732 -0.032495 0.024000
v 0.028546 -0.030498 0.026000
v 0.050219 -0.032566 0.024000
v 0.049376 -0.030564 0.026000
v 0.052701 -0.030012 0.024000
v 0.050701 -0.029201 0.026000
v 0.052701 -0.010009 0.024000
v 0.050701 -0.010854 0.026000
v 0.050219 -0.007597 0.024000
v 0.049410 -0.009599 0.026000
v 0.027662 -0.040209 0.022000
v 0.025249 -0.042550 0.022000
v 0.025178 -0.062554 0.022000
v 0.027732 -0.065037 0.022000
v 0.050219 -0.065108 0.022000
v 0.052701 -0.062554 0.022000
v 0.052701 -0.042550 0.022000
v 0.050219 -0.040139 0.022000
v 0.028476 -0.042207 0.026000
v 0.027662 -0.040209 0.024000
v 0.025249 -0.042550 0.024000
v 0.027246 -0.043400 0.026000
v 0.025178 -0.062554 0.024000
v 0.027181 -0.061712 0.026000
v 0.027732 -0.065037 0.024000
v 0.028546 -0.063040 0.026000
v 0.050219 -0.065108 0.024000
v 0.049376 -0.063105 0.026000
v 0.052701 -0.062554 0.024000
v 0.050701 -0.061742 0.026000
v 0.052701 -0.042550 0.024000
v 0.050701 -0.043396 0.026000
v 0.050219 -0.040139 0.024000
v 0.049410 -0.042141 0.026000
v -0.047399 -0.040209 0.022000
v -0.049811 -0.042550 0.022000
v -0.049883 -0.062554 0.022000
v -0.047329 -0.065037 0.022000
v 0.017699 -0.065108 0.022000
v 0.020182 -0.062554 0.022000
v 0.020182 -0.042550 0.022000
v 0.017699 -0.040139 0.022000
v -0.046585 -0.042207 0.026000
v -0.047399 -0.040209 0.024000
v -0.049811 -0.042550 0.024000
v -0.047814 -0.043400 0.026000
v -0.049883 -0.062554 0.024000
v -0.047880 -0.061712 0.026000
v -0.047329 -0.065037 0.024000
v -0.046514 -0.063040 0.026000
v 0.017699 -0.065108 0.024000
v 0.016857 -0.063105 0.026000
v 0.020182 -0.062554 0.024000
v 0.018182 -0.061742 0.026000
v 0.020182 -0.042550 0.024000
v 0.018182 -0.043396 0.026000
v 0.017699 -0.040139 0.024000
v 0.016890 -0.042141 0.026000
v -0.047399 -0.007635 0.022000
v -0.049811 -0.009976 0.022000
v -0.049883 -0.029980 0.022000
v -0.047329 -0.032463 0.022000
v 0.017699 -0.032534 0.022000
v 0.020182 -0.029980 0.022000
v 0.020182 -0.009976 0.022000
v 0.017699 -0.007565 0.022000
v -0.046585 -0.009633 0.026000
v -0.047399 -0.007635 0.024000
v -0.049811 -0.009976 0.024000
v -0.047814 -0.010825 0.026000
v -0.049883 -0.029980 0.024000
v -0.047880 -0.029138 0.026000
v -0.047329 -0.032463 0.024000
v -0.046514 -0.030466 0.026000
v 0.017699 -0.032534 0.024000
v 0.016857 -0.030531 0.026000
v 0.020182 -0.029980 0.024000
v 0.018182 -0.029168 0.026000
v 0.020182 -0.009976 0.024000
v 0.018182 -0.010822 0.026000
v 0.017699 -0.007565 0.024000
v 0.016890 -0.009567 0.026000
v 0.060000 -0.097500 0.014500
v 0.057500 -0.097500 0.017000
v 0.057500 -0.100000 0.014500
v 0.057500 0.100000 0.019500
v 0.057500 0.097500 0.022000
v 0.060000 0.097500 0.019500
v -0.057500 -0.097500 0.017000
v -0.060000 -0.097500 0.014500
v -0.057500 -0.100000 0.014500
v -0.057500 0.100000 0.019500
v -0.057500 0.097500 0.022000
v 0.057500 -0.073500 0.022000
v 0.057500 -0.076490 0.019549
v 0.060000 -0.073951 0.019500
v -0.057500 -0.076490 0.019549
v -0.057500 -0.073500 0.022000
v -0.060000 -0.097500 0.002500
v -0.057500 -0.097500 -0.000000
v -0.057500 -0.100000 0.002500
v -0.060000 0.097500 0.002500
v -0.057500 0.100000 0.002500
v -0.057500 0.097500 -0.000000
v 0.060000 0.097500 0.002500
v 0.057500 0.097500 -0.000000
v 0.057500 0.100000 0.002500
v 0.060000 -0.097500 0.002500
v 0.057500 -0.100000 0.002500
v 0.057500 -0.097500 -0.000000
v 0.060000 -0.077000 0.014500
v 0.057500 -0.076510 0.019451
v 0.057500 -0.079500 0.017000
v -0.060000 -0.073951 0.019500
v -0.060000 -0.077000 0.014500
v -0.057500 -0.079500 0.017000
v -0.057500 -0.076510 0.019451
v -0.060000 0.097500 0.014500
v -0.060000 0.097500 0.019500
v -0.057500 0.100000 0.014500
v 0.060000 0.097500 0.014500
v 0.057500 0.100000 0.014500
vn -0.0000 -0.0000 -1.0000
vn -0.0000 1.0000 -0.0000
vn 1.0000 -0.0000 -0.0000
vn -0.0000 -1.0000 -0.0000
vn -0.0000 -0.0000 1.0000
vn -1.0000 -0.0000 -0.0000
vn -0.0000 -0.9806 0.1961
vn -0.0031 1.0000 -0.0000
vn 0.7171 -0.6970 -0.0000
vn -0.6971 -0.7170 -0.0000
vn -0.0032 -1.0000 -0.0000
vn -1.0000 0.0036 -0.0000
vn 0.6968 0.7172 -0.0000
vn -0.4924 0.5075 0.7071
vn -0.7071 0.0025 0.7071
vn -0.4929 -0.5070 0.7071
vn -0.0022 -0.7071 0.7071
vn 0.5070 -0.4929 0.7071
vn 0.7071 -0.0000 0.7071
vn 0.4927 0.5072 0.7071
vn -0.0022 0.7071 0.7071
vn -0.6963 0.7177 -0.0000
vn -0.0011 1.0000 -0.0000
vn -0.0011 -1.0000 -0.0000
vn -0.0008 -0.7071 0.7071
vn -0.0008 0.7071 0.7071
vn 0.5773 -0.5774 0.5773
vn 0.5774 0.5774 0.5773
vn -0.5773 -0.5773 0.5774
vn -0.5773 0.5774 0.5773
vn 0.5503 -0.5294 0.6457
vn -0.5503 -0.5294 0.6457
vn -0.5773 -0.5773 -0.5774
vn -0.5774 0.5774 -0.5773
vn 0.5773 0.5774 -0.5773
vn 0.5773 -0.5774 -0.5773
vn 0.7383 -0.5239 0.4247
vn -0.7383 -0.5239 0.4247
vn -0.7071 0.7071 -0.0000
vn 0.7071 0.7071 -0.0000
vn -0.0000 0.7071 0.7071
vn -0.0000 -0.7071 0.7071
vn -0.7071 -0.6934 0.1387
vn -0.0000 -0.6340 0.7733
vn 0.7071 -0.7071 -0.0000
vn -0.7071 -0.7071 -0.0000
vn -0.0000 0.7071 -0.7071
vn -0.0000 -0.7071 -0.7071
vn 0.7071 -0.6934 0.1387
vn -0.7071 -0.0000 0.7071
vn 0.7071 -0.0000 -0.7071
vn -0.7071 -0.0000 -0.7071
vt 0.367332 0.618346
vt 0.357593 0.607007
vt 0.357304 0.510113
vt 0.367616 0.498087
vt 0.458382 0.497743
vt 0.468401 0.510113
vt 0.468401 0.607007
vt 0.458382 0.618688
vt 0.370619 0.608670
vt 0.367332 0.618346
vt 0.357593 0.607007
vt 0.365655 0.602894
vt 0.357304 0.510113
vt 0.365393 0.514192
vt 0.367616 0.498087
vt 0.370907 0.507762
vt 0.458382 0.497743
vt 0.454981 0.507444
vt 0.468401 0.510113
vt 0.460330 0.514046
vt 0.468401 0.607007
vt 0.460330 0.602912
vt 0.458382 0.618688
vt 0.455119 0.608989
vt 0.367337 0.460722
vt 0.357597 0.449383
vt 0.357308 0.352490
vt 0.367616 0.340463
vt 0.458387 0.340120
vt 0.468406 0.352490
vt 0.468406 0.449383
vt 0.458387 0.461065
vt 0.370619 0.451047
vt 0.367337 0.460722
vt 0.357597 0.449383
vt 0.365659 0.445270
vt 0.357308 0.352490
vt 0.365393 0.356569
vt 0.367616 0.340463
vt 0.370907 0.350139
vt 0.458387 0.340120
vt 0.454986 0.349820
vt 0.468406 0.352490
vt 0.460335 0.356422
vt 0.468406 0.449383
vt 0.460335 0.445288
vt 0.458387 0.461065
vt 0.455119 0.451365
vt 0.367337 0.303098
vt 0.357597 0.291759
vt 0.357308 0.194866
vt 0.367616 0.182839
vt 0.458387 0.182496
vt 0.468406 0.194866
vt 0.468406 0.291759
vt 0.458387 0.303441
vt 0.370619 0.293423
vt 0.367337 0.303098
vt 0.357597 0.291759
vt 0.365659 0.287646
vt 0.357308 0.194866
vt 0.365393 0.198945
vt 0.367616 0.182839
vt 0.370907 0.192515
vt 0.458387 0.182496
vt 0.454986 0.192196
vt 0.468406 0.194866
vt 0.460335 0.198798
vt 0.468406 0.291759
vt 0.460335 0.287664
vt 0.458387 0.303441
vt 0.455119 0.293741
vt 0.060225 0.303098
vt 0.050485 0.291759
vt 0.050196 0.194866
vt 0.060504 0.182839
vt 0.322988 0.182496
vt 0.333007 0.194866
vt 0.333007 0.291759
vt 0.322988 0.303441
vt 0.063506 0.293423
vt 0.060225 0.303098
vt 0.050485 0.291759
vt 0.058547 0.287646
vt 0.050196 0.194866
vt 0.058281 0.198945
vt 0.060504 0.182839
vt 0.063791 0.192515
vt 0.322988 0.182496
vt 0.319587 0.192196
vt 0.333007 0.194866
vt 0.324936 0.198798
vt 0.333007 0.291759
vt 0.324936 0.287664
vt 0.322988 0.303441
vt 0.319725 0.293741
vt 0.060225 0.460879
vt 0.050485 0.449540
vt 0.050196 0.352647
vt 0.060504 0.340620
vt 0.322988 0.340277
vt 0.333007 0.352647
vt 0.333007 0.449540
vt 0.322988 0.461221
vt 0.063506 0.451203
vt 0.060225 0.460879
vt 0.050485 0.449540
vt 0.058547 0.445427
vt 0.050196 0.352647
vt 0.058281 0.356725
vt 0.060504 0.340620
vt 0.063791 0.350295
vt 0.322988 0.340277
vt 0.319587 0.349977
vt 0.333007 0.352647
vt 0.324936 0.356580
vt 0.333007 0.449540
vt 0.324936 0.445445
vt 0.322988 0.461221
vt 0.319725 0.451522
vt 0.888803 0.012501
vt 0.500000 0.016544
vt 0.875000 0.012502
vt 0.510417 0.000000
vt 0.489583 0.012331
vt 0.888787 0.000000
vt 0.510417 0.016544
vt 0.489583 1.000000
vt 0.510417 0.878125
vt 0.489583 0.987503
vt 0.500000 0.878125
vt 0.500000 0.987503
vt 0.898106 0.987513
vt 0.989583 0.000000
vt 0.875000 0.012502
vt 0.010417 0.012331
vt 1.000000 0.016544
vt 0.888803 0.012501
vt 0.888787 0.000000
vt 0.989583 0.016544
vt 0.010417 1.000000
vt 0.989583 0.878125
vt 0.989583 0.850000
vt 0.010417 0.987503
vt 0.489583 0.132702
vt 0.510417 0.023468
vt 0.489583 0.120205
vt 0.875000 0.118514
vt 0.875808 0.130267
vt 0.500000 0.130450
vt 0.875385 0.131183
vt 0.989583 0.023468
vt 0.875000 0.118514
vt 0.010417 0.120205
vt 0.875000 0.134348
vt 0.010417 0.132702
vt 0.955016 0.012500
vt 1.000000 0.095956
vt 1.000000 0.014098
vt 0.989583 0.014098
vt 0.989583 0.095956
vt 0.989583 0.001598
vt 0.961645 0.987500
vt 1.000000 0.954228
vt 1.000000 0.989098
vt 0.989583 0.954228
vt 0.989583 1.001598
vt 0.989583 0.962500
vt 0.989583 0.989098
vt 0.961645 0.987500
vt 0.500000 0.954228
vt 0.500000 0.989098
vt 0.510417 0.989098
vt 0.510417 0.954228
vt 0.510417 1.001598
vt 0.955016 0.012500
vt 0.500000 0.095956
vt 0.500000 0.014098
vt 0.510417 0.095956
vt 0.510417 0.001598
vt 0.510417 0.112500
vt 0.510417 0.014098
vt 0.889074 0.115015
vt 0.510417 0.022680
vt 0.875130 0.117471
vt 0.875000 0.118381
vt 0.489583 0.113443
vt 0.875000 0.102517
vt 0.489583 0.101112
vt 0.875808 0.130266
vt 0.000000 0.130450
vt 0.875385 0.131183
vt 0.889074 0.115015
vt 0.875000 0.102517
vt 0.010417 0.101112
vt 0.989583 0.022680
vt 0.875130 0.117471
vt 0.875000 0.118381
vt 0.010417 0.113443
vt 1.000000 0.906250
vt 1.000000 0.914522
vt 0.928320 0.987500
vt 1.000000 0.878125
vt 0.000000 0.987503
vt 0.898106 0.987514
vt 0.989583 0.906250
vt 0.989583 0.914522
vt 0.500000 0.906250
vt 0.500000 0.914522
vt 0.928320 0.987500
vt 0.510417 0.906250
vt 0.510417 0.914522
s 0
usemtl button_11
f 144/173/1 148/182/1 138/160/1 142/169/1
f 160/212/2 145/174/2 141/166/2 158/207/2
f 159/210/3 149/183/3 121/121/3 146/176/3 143/170/3
f 129/140/4 139/161/4 147/179/4 123/127/4
f 132/145/5 125/130/5 131/144/5 136/156/5
f 153/193/6 156/202/6 140/163/6 137/157/6 128/138/6
f 150/184/7 133/146/7 135/152/7 155/196/7
f 8/8/8 1/1/8 10/10/8 23/23/8
f 5/5/9 6/6/9 19/19/9 17/17/9
f 3/3/10 4/4/10 15/15/10 13/13/10
f 6/6/3 7/7/3 21/21/3 19/19/3
f 4/4/11 5/5/11 17/17/11 15/15/11
f 2/2/12 3/3/12 13/13/12 11/11/12
f 7/7/13 8/8/13 23/23/13 21/21/13
f 10/10/14 11/11/14 12/12/14 9/9/14
f 11/11/15 13/13/15 14/14/15 12/12/15
f 13/13/16 15/15/16 16/16/16 14/14/16
f 15/15/17 17/17/17 18/18/17 16/16/17
f 17/17/18 19/19/18 20/20/18 18/18/18
f 19/19/19 21/21/19 22/22/19 20/20/19
f 21/21/20 23/23/20 24/24/20 22/22/20
f 23/23/21 10/10/21 9/9/21 24/24/21
f 1/1/22 2/2/22 11/11/22 10/10/22
f 14/14/5 16/16/5 9/9/5 12/12/5
f 18/18/5 20/20/5 22/22/5 24/24/5
f 18/18/5 24/24/5 9/9/5 16/16/5
f 32/32/8 25/25/8 34/34/8 47/47/8
f 29/29/9 30/30/9 43/43/9 41/41/9
f 27/27/10 28/28/10 39/39/10 37/37/10
f 30/30/3 31/31/3 45/45/3 43/43/3
f 28/28/11 29/29/11 41/41/11 39/39/11
f 26/26/12 27/27/12 37/37/12 35/35/12
f 31/31/13 32/32/13 47/47/13 45/45/13
f 34/34/14 35/35/14 36/36/14 33/33/14
f 35/35/15 37/37/15 38/38/15 36/36/15
f 37/37/16 39/39/16 40/40/16 38/38/16
f 39/39/17 41/41/17 42/42/17 40/40/17
f 41/41/18 43/43/18 44/44/18 42/42/18
f 43/43/19 45/45/19 46/46/19 44/44/19
f 45/45/20 47/47/20 48/48/20 46/46/20
f 47/47/21 34/34/21 33/33/21 48/48/21
f 25/25/22 26/26/22 35/35/22 34/34/22
f 38/38/5 40/40/5 33/33/5 36/36/5
f 42/42/5 44/44/5 46/46/5 48/48/5
f 42/42/5 48/48/5 33/33/5 40/40/5
f 56/56/8 49/49/8 58/58/8 71/71/8
f 53/53/9 54/54/9 67/67/9 65/65/9
f 51/51/10 52/52/10 63/63/10 61/61/10
f 54/54/3 55/55/3 69/69/3 67/67/3
f 52/52/11 53/53/11 65/65/11 63/63/11
f 50/50/12 51/51/12 61/61/12 59/59/12
f 55/55/13 56/56/13 71/71/13 69/69/13
f 58/58/14 59/59/14 60/60/14 57/57/14
f 59/59/15 61/61/15 62/62/15 60/60/15
f 61/61/16 63/63/16 64/64/16 62/62/16
f 63/63/17 65/65/17 66/66/17 64/64/17
f 65/65/18 67/67/18 68/68/18 66/66/18
f 67/67/19 69/69/19 70/70/19 68/68/19
f 69/69/20 71/71/20 72/72/20 70/70/20
f 71/71/21 58/58/21 57/57/21 72/72/21
f 49/49/22 50/50/22 59/59/22 58/58/22
f 62/62/5 64/64/5 57/57/5 60/60/5
f 66/66/5 68/68/5 70/70/5 72/72/5
f 66/66/5 72/72/5 57/57/5 64/64/5
f 80/80/23 73/73/23 82/82/23 95/95/23
f 77/77/9 78/78/9 91/91/9 89/89/9
f 75/75/10 76/76/10 87/87/10 85/85/10
f 78/78/3 79/79/3 93/93/3 91/91/3
f 76/76/24 77/77/24 89/89/24 87/87/24
f 74/74/12 75/75/12 85/85/12 83/83/12
f 79/79/13 80/80/13 95/95/13 93/93/13
f 82/82/14 83/83/14 84/84/14 81/81/14
f 83/83/15 85/85/15 86/86/15 84/84/15
f 85/85/16 87/87/16 88/88/16 86/86/16
f 87/87/25 89/89/25 90/90/25 88/88/25
f 89/89/18 91/91/18 92/92/18 90/90/18
f 91/91/19 93/93/19 94/94/19 92/92/19
f 93/93/20 95/95/20 96/96/20 94/94/20
f 95/95/26 82/82/26 81/81/26 96/96/26
f 73/73/22 74/74/22 83/83/22 82/82/22
f 86/86/5 88/88/5 81/81/5 84/84/5
f 90/90/5 92/92/5 94/94/5 96/96/5
f 90/90/5 96/96/5 81/81/5 88/88/5
f 104/104/23 97/97/23 106/106/23 119/119/23
f 101/101/9 102/102/9 115/115/9 113/113/9
f 99/99/10 100/100/10 111/111/10 109/109/10
f 102/102/3 103/103/3 117/117/3 115/115/3
f 100/100/24 101/101/24 113/113/24 111/111/24
f 98/98/12 99/99/12 109/109/12 107/107/12
f 103/103/13 104/104/13 119/119/13 117/117/13
f 106/106/14 107/107/14 108/108/14 105/105/14
f 107/107/15 109/109/15 110/110/15 108/108/15
f 109/109/16 111/111/16 112/112/16 110/110/16
f 111/111/25 113/113/25 114/114/25 112/112/25
f 113/113/18 115/115/18 116/116/18 114/114/18
f 115/115/19 117/117/19 118/118/19 116/116/19
f 117/117/20 119/119/20 120/120/20 118/118/20
f 119/119/26 106/106/26 105/105/26 120/120/26
f 97/97/22 98/98/22 107/107/22 106/106/22
f 110/110/5 112/112/5 105/105/5 108/108/5
f 114/114/5 116/116/5 118/118/5 120/120/5
f 114/114/5 120/120/5 105/105/5 112/112/5
f 121/121/27 122/123/27 123/126/27
f 124/128/28 125/130/28 126/132/28
f 127/135/29 128/138/29 129/139/29
f 130/142/30 157/203/30 131/143/30
f 132/145/31 133/147/31 134/150/31
f 152/192/32 135/153/32 136/155/32
f 137/159/33 138/160/33 139/162/33
f 140/164/34 141/166/34 142/168/34
f 143/172/35 144/173/35 145/175/35
f 146/177/36 147/179/36 148/181/36
f 149/183/37 134/149/37 150/185/37 151/188/37
f 152/190/38 153/193/38 154/194/38 155/197/38
f 156/200/39 157/203/39 130/142/39 158/206/39
f 159/208/40 160/211/40 124/129/40 126/131/40
f 151/188/19 122/123/19 121/121/19 149/183/19
f 131/144/41 125/130/41 124/128/41 130/141/41
f 122/124/42 127/134/42 129/140/42 123/127/42
f 155/198/43 135/153/43 152/192/43
f 135/154/44 133/147/44 132/145/44 136/156/44
f 146/177/45 121/122/45 123/127/45 147/179/45
f 128/137/46 137/158/46 139/161/46 129/140/46
f 158/207/39 141/166/39 140/164/39 156/201/39
f 159/209/40 143/171/40 145/174/40 160/212/40
f 144/173/47 142/169/47 141/167/47 145/175/47
f 138/160/48 148/182/48 147/180/48 139/162/48
f 133/148/49 150/186/49 134/151/49
f 127/135/50 154/194/50 153/193/50 128/138/50
f 150/187/44 155/199/44 154/195/44 151/189/44
f 136/156/50 131/144/50 157/204/50 152/191/50
f 125/130/19 132/145/19 134/150/19 126/132/19
f 148/182/51 144/173/51 143/172/51 146/178/51
f 142/169/52 138/160/52 137/159/52 140/165/52
f 160/212/2 158/207/2 130/142/2 124/129/2
f 149/183/3 159/210/3 126/133/3 134/151/3
f 156/202/6 153/193/6 152/192/6 157/205/6
f 122/125/5 151/189/5 154/195/5 127/136/5
