# Blender 3.4.0
# www.blender.org
mtllib pcb_2.mtl
o pcb_2
v -0.073301 0.000000 -0.026229
v -0.000423 0.000000 0.077851
v 0.000423 0.000000 -0.077851
v 0.073301 0.000000 0.026229
v 0.000423 0.005000 -0.077851
v -0.073301 0.005000 -0.026229
v -0.000423 0.005000 0.077851
v 0.073301 0.005000 0.026229
v 0.000334 0.005000 0.000893
v -0.011681 0.005000 0.009306
v -0.003029 0.005000 0.021661
v 0.009206 0.005000 0.013094
v -0.070023 0.005000 -0.021548
v -0.061337 0.005000 -0.009143
v -0.054644 0.005000 -0.032307
v -0.045958 0.005000 -0.019902
v 0.000334 0.008000 0.000893
v -0.011681 0.008000 0.009306
v -0.003029 0.008000 0.021661
v 0.009206 0.008000 0.013094
v -0.070023 0.008000 -0.021548
v -0.061337 0.008000 -0.009143
v -0.045958 0.008000 -0.019902
v -0.054644 0.008000 -0.032307
v -0.030664 0.005000 -0.030574
v -0.038165 0.005000 -0.025321
v -0.033829 0.005000 -0.019128
v -0.026250 0.005000 -0.024434
v -0.025450 0.005000 -0.013353
v -0.021161 0.005000 -0.007228
v -0.028746 0.005000 -0.001880
v -0.033074 0.005000 -0.008061
v -0.004594 0.005000 -0.025954
v -0.008957 0.005000 -0.022898
v -0.014261 0.005000 -0.030473
v -0.009745 0.005000 -0.033635
v -0.038257 0.005000 -0.025275
v -0.030664 0.007000 -0.030574
v -0.038165 0.007000 -0.025321
v -0.033829 0.007000 -0.019128
v -0.026250 0.007000 -0.024434
v -0.025450 0.007000 -0.013353
v -0.021161 0.007000 -0.007228
v -0.033074 0.007000 -0.008061
v -0.028746 0.007000 -0.001880
v -0.004594 0.007000 -0.025954
v -0.008957 0.007000 -0.022898
v -0.014261 0.007000 -0.030473
v -0.009745 0.007000 -0.033635
vn -0.0000 -1.0000 -0.0000
vn 0.5732 -0.0000 0.8194
vn 0.8192 -0.0000 -0.5736
vn -0.8192 -0.0000 0.5736
vn 0.5736 -0.0000 0.8192
vn -0.5736 -0.0000 -0.8192
vn 0.8088 -0.0000 -0.5881
vn -0.0000 1.0000 -0.0000
vn -0.5732 -0.0000 -0.8194
vn 0.5763 -0.0000 0.8173
vn -0.5702 -0.0000 -0.8215
vn 0.8120 -0.0000 -0.5837
vn 0.8306 -0.0000 -0.5569
vt 0.000000 0.000000
vt 1.000000 0.000000
vt 0.000000 1.000000
vt 1.000000 1.000000
vt 0.000000 1.000000
vt 0.000000 0.000000
vt 1.000000 0.000000
vt 1.000000 1.000000
vt 0.507266 0.497352
vt 0.507266 0.334378
vt 0.625976 0.334378
vt 0.625976 0.500340
vt 0.044974 0.000000
vt 0.164165 0.000000
vt 0.045034 0.208542
vt 0.164225 0.208542
vt 0.507266 0.497352
vt 0.507266 0.334378
vt 0.625976 0.334378
vt 0.625976 0.500340
vt 0.044974 0.000000
vt 0.164165 0.000000
vt 0.164225 0.208542
vt 0.045034 0.208542
vt 0.164465 0.415760
vt 0.164465 0.314006
vt 0.223970 0.314005
vt 0.223970 0.416798
vt 0.299027 0.353463
vt 0.357872 0.353463
vt 0.358112 0.250344
vt 0.298727 0.250344
vt 0.311937 0.623590
vt 0.311937 0.564406
vt 0.239162 0.564406
vt 0.239162 0.625667
vt 0.164346 0.312878
vt 0.164465 0.415760
vt 0.164465 0.314006
vt 0.223970 0.314005
vt 0.223970 0.416798
vt 0.299027 0.353463
vt 0.357872 0.353463
vt 0.298727 0.250344
vt 0.358112 0.250344
vt 0.311937 0.623590
vt 0.311937 0.564406
vt 0.239162 0.564406
vt 0.239162 0.625667
s 0
usemtl pcb_2
f 1/1/1 3/3/1 4/4/1 2/2/1
f 14/14/2 16/16/2 23/23/2 22/22/2
f 4/4/3 3/3/3 5/5/3 8/8/3
f 1/1/4 2/2/4 7/7/4 14/14/4
f 2/2/5 4/4/5 8/8/5 7/7/5
f 3/3/6 1/1/6 6/6/6 5/5/6
f 13/13/4 1/1/4 14/14/4
f 12/12/7 9/9/7 17/17/7 20/20/7
f 9/9/8 12/12/8 8/8/8 5/5/8
f 6/6/4 1/1/4 13/13/4
f 11/11/8 7/7/8 8/8/8 12/12/8
f 7/7/8 31/31/8 14/14/8
f 18/18/8 19/19/8 20/20/8 17/17/8
f 10/10/4 11/11/4 19/19/4 18/18/4
f 11/11/5 12/12/5 20/20/5 19/19/5
f 9/9/6 10/10/6 18/18/6 17/17/6
f 23/23/8 24/24/8 21/21/8 22/22/8
f 13/13/4 14/14/4 22/22/4 21/21/4
f 15/15/9 13/13/9 21/21/9 24/24/9
f 16/16/3 15/15/3 24/24/3 23/23/3
f 31/31/10 30/30/10 43/43/10 45/45/10
f 27/27/8 32/32/8 29/29/8
f 14/14/8 31/31/8 32/32/8 16/16/8
f 16/16/8 37/37/8 15/15/8
f 34/34/5 33/33/5 46/46/5 47/47/5
f 27/27/8 26/26/8 25/25/8 37/37/8 16/16/8 32/32/8
f 11/11/8 10/10/8 31/31/8 7/7/8
f 5/5/8 35/35/8 36/36/8
f 29/29/11 32/32/11 44/44/11 42/42/11
f 5/5/8 25/25/8 35/35/8
f 35/35/8 28/28/8 9/9/8 34/34/8
f 28/28/8 35/35/8 25/25/8
f 15/15/8 37/37/8 25/25/8 5/5/8 6/6/8 13/13/8
f 10/10/8 9/9/8 30/30/8 31/31/8
f 29/29/8 28/28/8 27/27/8
f 9/9/8 33/33/8 34/34/8
f 36/36/8 33/33/8 9/9/8 5/5/8
f 30/30/8 9/9/8 28/28/8 29/29/8
f 40/40/8 41/41/8 38/38/8 39/39/8
f 44/44/8 45/45/8 43/43/8 42/42/8
f 46/46/8 49/49/8 48/48/8 47/47/8
f 26/26/4 27/27/4 40/40/4 39/39/4
f 35/35/4 34/34/4 47/47/4 48/48/4
f 30/30/3 29/29/3 42/42/3 43/43/3
f 32/32/4 31/31/4 45/45/4 44/44/4
f 27/27/5 28/28/5 41/41/5 40/40/5
f 36/36/6 35/35/6 48/48/6 49/49/6
f 28/28/12 25/25/12 38/38/12 41/41/12
f 33/33/13 36/36/13 49/49/13 46/46/13
f 25/25/6 26/26/6 39/39/6 38/38/6
