# Blender 3.4.0
# www.blender.org
mtllib supply_box_1.mtl
o supply_box_1
v -0.301566 0.003500 0.147345
v -0.298566 0.003500 0.150345
v -0.298566 0.000500 0.147345
v -0.301566 0.297500 0.147345
v -0.298566 0.300500 0.147345
v -0.298566 0.297500 0.150345
v 0.295433 0.000500 0.147345
v 0.295433 0.003500 0.150345
v 0.298433 0.003500 0.147345
v 0.295433 0.300500 0.147345
v 0.298433 0.297500 0.147345
v 0.295433 0.297500 0.150345
v -0.301566 0.003500 -0.146655
v -0.298566 0.000500 -0.146655
v -0.298566 0.003500 -0.149655
v -0.301566 0.297500 -0.146655
v -0.298566 0.297500 -0.149655
v -0.298566 0.300500 -0.146655
v 0.295433 0.000500 -0.146655
v 0.298433 0.003500 -0.146655
v 0.295433 0.003500 -0.149655
v 0.295433 0.300500 -0.146655
v 0.295433 0.297500 -0.149655
v 0.298433 0.297500 -0.146655
vn -0.0000 -1.0000 -0.0000
vn -0.0000 -0.0000 -1.0000
vn 1.0000 -0.0000 -0.0000
vn -0.0000 1.0000 -0.0000
vn -0.0000 -0.0000 1.0000
vn -0.7588 -0.4606 0.4606
vn -0.4606 -0.7588 0.4606
vn -0.4606 -0.4606 0.7588
vn -0.7588 0.4606 0.4606
vn -0.4606 0.4606 0.7588
vn -0.4606 0.7588 0.4606
vn 0.4606 -0.7588 0.4606
vn 0.7588 -0.4606 0.4606
vn 0.4606 -0.4606 0.7588
vn 0.4606 0.7588 0.4606
vn 0.4606 0.4606 0.7588
vn 0.7588 0.4606 0.4606
vn -0.7588 -0.4606 -0.4606
vn -0.4606 -0.4606 -0.7588
vn -0.4606 -0.7588 -0.4606
vn -0.7588 0.4606 -0.4606
vn -0.4606 0.7588 -0.4606
vn -0.4606 0.4606 -0.7588
vn 0.4606 -0.7588 -0.4606
vn 0.4606 -0.4606 -0.7588
vn 0.7588 -0.4606 -0.4606
vn 0.4606 0.7588 -0.4606
vn 0.7588 0.4606 -0.4606
vn 0.4606 0.4606 -0.7588
vn -1.0000 -0.0000 -0.0000
vt 0.667678 0.004525
vt 0.003035 0.004525
vt 0.664643 0.004525
vt 0.003035 0.000000
vt 0.003035 0.004525
vt 0.667678 0.000000
vt 0.667678 0.495475
vt 0.001517 0.995475
vt 0.667678 0.500000
vt 0.003035 0.495475
vt 0.664643 0.495475
vt 0.001517 1.000000
vt 0.663126 0.004525
vt 0.667678 0.000000
vt 0.661609 0.004525
vt 0.663126 0.000000
vt 0.664643 0.004525
vt 0.667678 0.004525
vt 0.666161 0.995475
vt 0.667678 0.500000
vt 0.667678 0.495475
vt 0.661609 0.495475
vt 0.666161 1.000000
vt 0.664643 0.495475
vt 0.996965 0.004525
vt 0.003035 0.495475
vt 0.996965 0.000000
vt 0.003035 0.495475
vt 1.000000 0.004525
vt 0.003035 0.500000
vt 0.996965 0.495475
vt 0.003035 0.004525
vt 1.000000 0.495475
vt 0.001517 0.500000
vt 0.001517 0.504525
vt 0.996965 0.500000
vt 0.663126 0.495475
vt 0.996965 0.000000
vt 0.996965 0.004525
vt 0.661609 0.495475
vt 0.663126 0.500000
vt 1.000000 0.004525
vt 0.666161 0.504525
vt 0.996965 0.500000
vt 0.661609 0.004525
vt 0.666161 0.500000
vt 1.000000 0.495475
vt 0.996965 0.495475
s 1
usemtl supply_box_1
f 3/5/1 14/26/1 19/37/1 7/13/1
f 15/28/2 17/32/2 23/45/2 21/40/2
f 9/18/3 20/39/3 24/48/3 11/21/3
f 10/19/4 22/43/4 18/35/4 5/8/4
f 2/2/5 8/15/5 12/22/5 6/10/5
f 1/1/6 3/6/7 2/3/8
f 4/7/9 6/11/10 5/9/11
f 7/14/12 9/18/13 8/17/14
f 10/20/15 12/24/16 11/21/17
f 13/25/18 15/29/19 14/27/20
f 16/31/21 18/36/22 17/33/23
f 19/38/24 21/42/25 20/39/26
f 22/44/27 24/48/28 23/47/29
f 6/11/10 4/7/9 1/1/6 2/3/8
f 12/23/16 10/19/15 5/8/11 6/12/10
f 2/4/8 3/5/7 7/13/12 8/16/14
f 8/17/14 9/18/13 11/21/17 12/24/16
f 16/31/21 17/33/23 15/29/19 13/25/18
f 22/43/27 23/46/29 17/34/23 18/35/22
f 14/26/20 15/30/19 21/41/25 19/37/24
f 20/39/26 21/42/25 23/47/29 24/48/28
f 10/20/15 11/21/17 24/48/28 22/44/27
f 19/38/24 20/39/26 9/18/13 7/14/12
f 4/7/9 5/9/11 18/36/22 16/31/21
f 13/25/18 14/27/20 3/6/7 1/1/6
f 4/7/30 16/31/30 13/25/30 1/1/30
