# Blender 3.4.0
# www.blender.org
mtllib table_large_3.mtl
o table_large_3
v -0.850002 0.925000 0.439005
v -0.845002 0.920000 0.440000
v -0.850002 0.926756 0.443244
v -0.845002 0.922929 0.447071
v -0.850002 0.930995 0.445000
v -0.845002 0.930000 0.450000
v -0.850002 0.959005 0.445000
v -0.845002 0.960000 0.450000
v -0.850002 0.965000 0.439005
v -0.845002 0.970000 0.440000
v -0.845002 0.967071 0.447071
v -0.850002 0.963244 0.443244
v -0.850002 0.925000 -0.439006
v -0.845002 0.920000 -0.440000
v -0.850002 0.965000 -0.439006
v -0.845002 0.970000 -0.440000
v -0.845002 0.922929 -0.447071
v -0.850002 0.926756 -0.443244
v -0.850002 0.930995 -0.445000
v -0.845002 0.930000 -0.450000
v -0.845002 0.960000 -0.450000
v -0.850002 0.959005 -0.445000
v -0.850002 0.963244 -0.443244
v -0.845002 0.967071 -0.447071
v 0.849993 0.965000 0.439005
v 0.844993 0.970000 0.440000
v 0.849993 0.963244 0.443244
v 0.844993 0.967071 0.447071
v 0.849993 0.925000 0.439005
v 0.844993 0.920000 0.440000
v 0.849993 0.926756 0.443244
v 0.844993 0.922929 0.447071
v 0.849993 0.930995 0.445000
v 0.844993 0.930000 0.450000
v 0.849993 0.959005 0.445000
v 0.844993 0.960000 0.450000
v 0.849993 0.925000 -0.439006
v 0.844993 0.920000 -0.440000
v 0.849993 0.926756 -0.443244
v 0.844993 0.922929 -0.447071
v 0.849993 0.930995 -0.445000
v 0.844993 0.930000 -0.450000
v 0.849993 0.959005 -0.445000
v 0.844993 0.960000 -0.450000
v 0.849993 0.965000 -0.439006
v 0.844993 0.970000 -0.440000
v 0.849993 0.963244 -0.443244
v 0.844993 0.967071 -0.447071
v -0.720002 0.920000 0.350000
v -0.720002 0.920000 0.330000
v 0.719998 0.920000 0.350000
v 0.719998 0.920000 0.330000
v -0.720002 0.920000 -0.330000
v -0.720002 0.920000 -0.350000
v 0.719998 0.920000 -0.330000
v 0.719998 0.920000 -0.350000
v -0.750000 0.920000 -0.320002
v -0.730000 0.920000 -0.320002
v -0.750000 0.920000 0.319998
v -0.730000 0.920000 0.319998
v 0.730000 0.920000 -0.320002
v 0.750000 0.920000 -0.320002
v 0.730000 0.920000 0.319998
v 0.750000 0.920000 0.319998
v -0.764997 0.000000 -0.330000
v -0.770000 0.000000 -0.335003
v -0.784000 0.920000 -0.320252
v -0.779748 0.920000 -0.316000
v -0.770000 0.000000 -0.364998
v -0.764997 0.000000 -0.370000
v -0.779748 0.920000 -0.384000
v -0.784000 0.920000 -0.379748
v -0.730000 0.000000 -0.335003
v -0.735003 0.000000 -0.330000
v -0.720252 0.920000 -0.316000
v -0.716000 0.920000 -0.320252
v -0.735003 0.000000 -0.370000
v -0.730000 0.000000 -0.364998
v -0.716000 0.920000 -0.379748
v -0.720252 0.920000 -0.384000
v -0.764997 0.000000 0.370000
v -0.770000 0.000000 0.364997
v -0.784000 0.920000 0.379748
v -0.779748 0.920000 0.384000
v -0.770000 0.000000 0.335003
v -0.764997 0.000000 0.330000
v -0.779748 0.920000 0.316000
v -0.784000 0.920000 0.320252
v -0.730000 0.000000 0.364997
v -0.735003 0.000000 0.370000
v -0.720252 0.920000 0.384000
v -0.716000 0.920000 0.379748
v -0.735003 0.000000 0.330000
v -0.730000 0.000000 0.335003
v -0.716000 0.920000 0.320252
v -0.720252 0.920000 0.316000
v 0.735003 0.000000 0.370000
v 0.730000 0.000000 0.364997
v 0.716000 0.920000 0.379748
v 0.720252 0.920000 0.384000
v 0.730000 0.000000 0.335003
v 0.735003 0.000000 0.330000
v 0.720252 0.920000 0.316000
v 0.716000 0.920000 0.320252
v 0.770000 0.000000 0.364997
v 0.764997 0.000000 0.370000
v 0.779748 0.920000 0.384000
v 0.784000 0.920000 0.379748
v 0.764997 0.000000 0.330000
v 0.770000 0.000000 0.335003
v 0.784000 0.920000 0.320252
v 0.779748 0.920000 0.316000
v 0.735003 0.000000 -0.330000
v 0.730000 0.000000 -0.335003
v 0.716000 0.920000 -0.320252
v 0.720252 0.920000 -0.316000
v 0.730000 0.000000 -0.364998
v 0.735003 0.000000 -0.370000
v 0.720252 0.920000 -0.384000
v 0.716000 0.920000 -0.379748
v 0.770000 0.000000 -0.335003
v 0.764997 0.000000 -0.330000
v 0.779748 0.920000 -0.316000
v 0.784000 0.920000 -0.320252
v 0.764997 0.000000 -0.370000
v 0.770000 0.000000 -0.364998
v 0.784000 0.920000 -0.379748
v 0.779748 0.920000 -0.384000
v -0.720002 0.840000 0.345000
v -0.720002 0.845000 0.350000
v -0.720002 0.845000 0.330000
v -0.720002 0.840000 0.335000
v 0.719998 0.845000 0.350000
v 0.719998 0.840000 0.345000
v 0.719998 0.840000 0.335000
v 0.719998 0.845000 0.330000
v -0.720002 0.840000 -0.335000
v -0.720002 0.845000 -0.330000
v -0.720002 0.845000 -0.350000
v -0.720002 0.840000 -0.345000
v 0.719998 0.845000 -0.330000
v 0.719998 0.840000 -0.335000
v 0.719998 0.840000 -0.345000
v 0.719998 0.845000 -0.350000
v 0.735000 0.840000 -0.320002
v 0.730000 0.845000 -0.320002
v 0.750000 0.845000 -0.320002
v 0.745000 0.840000 -0.320002
v 0.730000 0.845000 0.319998
v 0.735000 0.840000 0.319998
v 0.745000 0.840000 0.319998
v 0.750000 0.845000 0.319998
v -0.745000 0.840000 -0.320002
v -0.750000 0.845000 -0.320002
v -0.730000 0.845000 -0.320002
v -0.735000 0.840000 -0.320002
v -0.750000 0.845000 0.319998
v -0.745000 0.840000 0.319998
v -0.735000 0.840000 0.319998
v -0.730000 0.845000 0.319998
vn -0.0000 0.9808 0.1951
vn -0.0000 0.7071 0.7071
vn -0.0000 -0.1951 0.9808
vn -0.0000 0.1951 0.9808
vn -0.0000 0.9808 -0.1951
vn -1.0000 -0.0000 -0.0000
vn 1.0000 -0.0000 -0.0000
vn -0.0000 -0.1951 -0.9808
vn -0.0000 -0.7071 -0.7071
vn -0.0000 0.1951 -0.9808
vn -0.0000 0.7071 -0.7071
vn -0.0000 -0.9808 -0.1951
vn -0.0000 -0.7071 0.7071
vn -0.0000 -0.9808 0.1951
vn -0.7345 0.4798 0.4798
vn -0.7139 0.1366 0.6868
vn -0.7139 -0.1366 0.6868
vn -0.7345 -0.4798 0.4798
vn -0.7139 0.6868 0.1366
vn -0.7139 -0.6868 0.1366
vn -0.7139 0.1366 -0.6868
vn -0.7345 0.4798 -0.4798
vn -0.7139 -0.1366 -0.6868
vn -0.7345 -0.4798 -0.4798
vn -0.7139 0.6868 -0.1366
vn -0.7139 -0.6868 -0.1366
vn 0.7345 -0.4798 0.4798
vn 0.7139 -0.6868 0.1366
vn 0.7139 0.1366 0.6868
vn 0.7139 -0.1366 0.6868
vn 0.7139 0.6868 0.1366
vn 0.7345 0.4798 0.4798
vn 0.7345 0.4798 -0.4798
vn 0.7139 0.6868 -0.1366
vn 0.7139 0.1366 -0.6868
vn 0.7139 -0.1366 -0.6868
vn 0.7345 -0.4798 -0.4798
vn 0.7139 -0.6868 -0.1366
vn -0.0000 -0.9239 -0.3827
vn -0.0000 -0.9239 0.3827
vn -0.0000 -0.3827 -0.9239
vn -0.0000 -0.0000 -1.0000
vn -0.0000 -0.3827 0.9239
vn -0.0000 -0.0000 1.0000
vn 0.3827 -0.9239 -0.0000
vn -0.3827 -0.9239 -0.0000
vn 0.9239 -0.3827 -0.0000
vn -0.9239 -0.3827 -0.0000
vn 0.3806 -0.0202 0.9245
vn 0.3846 -0.0202 0.9229
vn -0.3846 -0.0202 0.9229
vn -0.3806 -0.0202 0.9245
vn 0.9245 -0.0202 -0.3806
vn 0.9229 -0.0202 -0.3846
vn 0.9229 -0.0202 0.3846
vn 0.9245 -0.0202 0.3806
vn -0.0000 -1.0000 -0.0000
vn -0.9245 -0.0202 0.3806
vn -0.9229 -0.0202 0.3846
vn -0.9229 -0.0202 -0.3846
vn -0.9245 -0.0202 -0.3806
vn -0.3806 -0.0202 -0.9245
vn -0.3846 -0.0202 -0.9229
vn 0.3846 -0.0202 -0.9229
vn 0.3806 -0.0202 -0.9245
vt 0.940000 0.939005
vt -0.349997 0.939005
vt 0.935000 0.940000
vt -0.344997 0.940000
vt 0.941756 0.943244
vt -0.344997 0.947071
vt -0.344997 0.937929
vt 0.937929 0.947071
vt 0.945995 0.945000
vt -0.349997 0.945995
vt 0.945000 0.950000
vt -0.344997 0.945000
vt 0.974005 0.945000
vt -0.349997 0.974005
vt 0.975000 0.950000
vt -0.344997 0.975000
vt 0.980000 0.939005
vt -0.349997 0.939005
vt 0.985000 0.940000
vt -0.344997 0.940000
vt -0.344997 0.947071
vt -0.344997 0.982071
vt 0.982071 0.947071
vt 0.978244 0.943244
vt 0.940000 0.060995
vt -0.349997 0.060995
vt 0.935000 0.060000
vt -0.344997 0.060000
vt 0.980000 0.060995
vt -0.349997 0.060995
vt 0.985000 0.060000
vt -0.344997 0.060000
vt -0.344997 0.937929
vt -0.344997 0.052929
vt 0.937929 0.052929
vt 0.941756 0.056756
vt 0.945995 0.055000
vt -0.349997 0.945995
vt 0.945000 0.050000
vt -0.344997 0.945000
vt 0.975000 0.050000
vt -0.344997 0.975000
vt 0.974005 0.055000
vt -0.349997 0.974005
vt 0.978244 0.056756
vt -0.344997 0.982071
vt -0.344997 0.052929
vt 0.982071 0.052929
vt 0.980000 0.939005
vt 1.349997 0.939005
vt 0.985000 0.940000
vt 1.344997 0.940000
vt 0.978244 0.943244
vt 1.344997 0.947071
vt 1.344997 0.982071
vt 0.982071 0.947071
vt 0.940000 0.939005
vt 1.349997 0.939005
vt 0.935000 0.940000
vt 1.344997 0.940000
vt 0.941756 0.943244
vt 1.344997 0.947071
vt 1.344997 0.937929
vt 0.937929 0.947071
vt 1.349997 0.945995
vt 0.945995 0.945000
vt 1.344997 0.945000
vt 0.945000 0.950000
vt 1.349997 0.974005
vt 0.974005 0.945000
vt 1.344997 0.975000
vt 0.975000 0.950000
vt 0.940000 0.060995
vt 1.349997 0.060995
vt 0.935000 0.060000
vt 1.344997 0.060000
vt 0.941756 0.056756
vt 1.344997 0.937929
vt 1.344997 0.052929
vt 0.937929 0.052929
vt 0.945995 0.055000
vt 1.349997 0.945995
vt 0.945000 0.050000
vt 1.344997 0.945000
vt 0.974005 0.055000
vt 1.349997 0.974005
vt 0.975000 0.050000
vt 1.344997 0.975000
vt 0.980000 0.060995
vt 1.349997 0.060995
vt 0.985000 0.060000
vt 1.344997 0.060000
vt 0.978244 0.056756
vt 1.344997 0.982071
vt 1.344997 0.052929
vt 0.982071 0.052929
vt -0.219997 0.935000
vt -0.219997 0.935000
vt 1.220003 0.935000
vt 1.220003 0.935000
vt -0.219997 0.935000
vt -0.219997 0.935000
vt 1.220003 0.935000
vt 1.220003 0.935000
vt 0.820005 0.934994
vt 0.820005 0.934994
vt 0.180005 0.934994
vt 0.180005 0.934994
vt 0.820005 0.934994
vt 0.820005 0.934994
vt 0.180005 0.934994
vt 0.180005 0.934994
vt 0.960005 -0.289997
vt 0.805005 -0.289997
vt 0.015000 0.164997
vt 0.960005 -0.295000
vt 0.810007 -0.295000
vt 0.935000 0.179748
vt 0.040005 -0.309000
vt 0.040005 -0.304748
vt 0.015000 0.135003
vt 0.960005 -0.295000
vt 0.840002 -0.295000
vt 0.960005 -0.289997
vt 0.845005 -0.289997
vt 0.040005 -0.304748
vt 0.935000 0.120252
vt 0.040005 -0.309000
vt 0.015000 0.164997
vt 0.960005 -0.255000
vt 0.810007 -0.255000
vt 0.960005 -0.260003
vt 0.805005 -0.260003
vt 0.040005 -0.245252
vt 0.935000 0.179748
vt 0.040005 -0.241000
vt 0.960005 -0.260003
vt 0.845005 -0.260003
vt 0.015000 0.135003
vt 0.960005 -0.255000
vt 0.840002 -0.255000
vt 0.935000 0.120252
vt 0.040005 -0.241000
vt 0.040005 -0.245252
vt 0.105005 -0.289997
vt 0.960005 -0.289997
vt 0.110007 -0.295000
vt 0.015000 0.864998
vt 0.960005 -0.295000
vt 0.935000 0.879748
vt 0.040005 -0.309000
vt 0.040005 -0.304748
vt 0.140002 -0.295000
vt 0.015000 0.835003
vt 0.960005 -0.295000
vt 0.145004 -0.289997
vt 0.960005 -0.289997
vt 0.040005 -0.304748
vt 0.935000 0.820252
vt 0.040005 -0.309000
vt 0.110007 -0.255000
vt 0.015000 0.864998
vt 0.960005 -0.255000
vt 0.105005 -0.260003
vt 0.960005 -0.260003
vt 0.040005 -0.245252
vt 0.935000 0.879748
vt 0.040005 -0.241000
vt 0.145004 -0.260003
vt 0.960005 -0.260003
vt 0.140002 -0.255000
vt 0.015000 0.835003
vt 0.960005 -0.255000
vt 0.935000 0.820252
vt 0.040005 -0.241000
vt 0.040005 -0.245252
vt 0.105005 1.210003
vt 0.960005 1.210003
vt 0.110007 1.205000
vt 0.015000 0.864998
vt 0.960005 1.205000
vt 0.935000 0.879748
vt 0.040005 1.191000
vt 0.040005 1.195252
vt 0.140002 1.205000
vt 0.015000 0.835003
vt 0.960005 1.205000
vt 0.145005 1.210003
vt 0.960005 1.210003
vt 0.040005 1.195252
vt 0.935000 0.820252
vt 0.040005 1.191000
vt 0.110007 1.245000
vt 0.015000 0.864998
vt 0.960005 1.245000
vt 0.105005 1.239997
vt 0.960005 1.239997
vt 0.040005 1.254748
vt 0.935000 0.879748
vt 0.040005 1.259000
vt 0.145005 1.239997
vt 0.960005 1.239997
vt 0.140002 1.245000
vt 0.015000 0.835003
vt 0.960005 1.245000
vt 0.935000 0.820252
vt 0.040005 1.259000
vt 0.040005 1.254748
vt 0.805005 1.210003
vt 0.960005 1.210003
vt 0.810007 1.205000
vt 0.015000 0.164997
vt 0.960005 1.205000
vt 0.935000 0.179748
vt 0.040005 1.191000
vt 0.040005 1.195252
vt 0.840002 1.205000
vt 0.015000 0.135003
vt 0.960005 1.205000
vt 0.845005 1.210003
vt 0.960005 1.210003
vt 0.040005 1.195252
vt 0.935000 0.120252
vt 0.040005 1.191000
vt 0.810007 1.245000
vt 0.015000 0.164997
vt 0.960005 1.245000
vt 0.805005 1.239997
vt 0.960005 1.239997
vt 0.040005 1.254748
vt 0.935000 0.179748
vt 0.040005 1.259000
vt 0.845005 1.239997
vt 0.960005 1.239997
vt 0.840002 1.245000
vt 0.015000 0.135003
vt 0.960005 1.245000
vt 0.935000 0.120252
vt 0.040005 1.259000
vt 0.040005 1.254748
vt -0.219997 0.855000
vt -0.219997 0.845000
vt -0.219997 0.860000
vt -0.219997 0.860000
vt -0.219997 0.855000
vt -0.219997 0.835000
vt 1.220003 0.860000
vt 1.220003 0.855000
vt 1.220003 0.845000
vt 1.220003 0.855000
vt 1.220003 0.835000
vt 1.220003 0.860000
vt -0.219997 0.165000
vt -0.219997 0.855000
vt -0.219997 0.860000
vt -0.219997 0.860000
vt -0.219997 0.155000
vt -0.219997 0.855000
vt 1.220003 0.860000
vt 1.220003 0.165000
vt 1.220003 0.855000
vt 1.220003 0.155000
vt 1.220003 0.855000
vt 1.220003 0.860000
vt 0.820005 1.234999
vt 0.820005 0.859994
vt 0.820005 1.229999
vt 0.820005 0.859994
vt 0.820005 1.249999
vt 0.820005 1.244999
vt 0.180005 0.859994
vt 0.180005 1.229999
vt 0.180005 1.234999
vt 0.180005 1.244999
vt 0.180005 0.859994
vt 0.180005 1.249999
vt 0.820005 -0.245001
vt 0.820005 0.859994
vt 0.820005 -0.250001
vt 0.820005 0.859994
vt 0.820005 -0.230001
vt 0.820005 -0.235001
vt 0.180005 0.859994
vt 0.180005 -0.250001
vt 0.180005 -0.245001
vt 0.180005 -0.235001
vt 0.180005 0.859994
vt 0.180005 -0.230001
s 1
usemtl wood_1
f 26/52/1 10/20/1 11/21/2 28/54/2
f 34/67/3 36/71/4 8/16/4 6/12/3
f 26/52/1 46/92/5 16/32/5 10/20/1
f 28/55/2 11/22/2 8/16/4 36/71/4
f 7/13/6 12/24/6 9/17/6 15/29/6 23/45/6 22/43/6 19/37/6 18/36/6 13/25/6 1/1/6 3/5/6 5/9/6
f 31/61/7 29/57/7 37/73/7 39/77/7 41/81/7 43/85/7 47/93/7 45/89/7 25/49/7 27/53/7 35/70/7 33/66/7
f 20/40/8 42/84/8 40/78/9 17/33/9
f 20/40/8 21/42/10 44/88/10 42/84/8
f 44/88/10 21/42/10 24/46/11 48/94/11
f 48/95/11 24/47/11 16/32/5 46/92/5
f 17/34/9 40/79/9 38/76/12 14/28/12
f 32/62/13 4/6/13 2/4/14 30/60/14
f 34/67/3 6/12/3 4/7/13 32/63/13
f 12/24/15 7/13/16 8/15/16 11/23/15
f 5/9/17 3/5/18 4/8/18 6/11/17
f 9/17/19 12/24/15 11/23/15 10/19/19
f 7/14/16 5/10/17 6/12/17 8/16/16
f 3/5/18 1/1/20 2/3/20 4/8/18
f 22/43/21 23/45/22 24/48/22 21/41/21
f 20/39/23 17/35/24 18/36/24 19/37/23
f 21/42/21 20/40/23 19/38/23 22/44/21
f 23/45/22 15/29/25 16/31/25 24/48/22
f 17/35/24 14/27/26 13/25/26 18/36/24
f 32/64/27 30/59/28 29/57/28 31/61/27
f 36/71/29 34/67/30 33/65/30 35/69/29
f 26/51/31 28/56/32 27/53/32 25/49/31
f 34/68/30 32/64/27 31/61/27 33/66/30
f 28/56/32 36/72/29 35/70/29 27/53/32
f 48/96/33 46/91/34 45/89/34 47/93/33
f 44/87/35 48/96/33 47/93/33 43/85/35
f 41/81/36 39/77/37 40/80/37 42/83/36
f 43/86/35 41/82/36 42/84/36 44/88/35
f 39/77/37 37/73/38 38/75/38 40/80/37
f 46/92/34 26/52/31 25/50/31 45/90/34
f 15/30/25 9/18/19 10/20/19 16/32/25
f 14/28/26 2/4/20 1/2/20 13/26/26
f 37/74/38 29/58/28 30/60/28 38/76/38
f 2/4/14 14/28/12 38/76/12 30/60/14
f 140/257/39 143/262/39 142/260/40 137/253/40
f 131/244/41 50/98/42 52/100/42 136/252/41
f 133/247/43 51/99/44 49/97/44 130/243/43
f 148/270/45 151/274/45 150/273/46 145/265/46
f 139/256/41 54/102/42 56/104/42 144/264/41
f 141/259/43 55/103/44 53/101/44 138/255/43
f 155/280/47 58/106/7 60/108/7 160/287/47
f 157/283/48 59/107/6 57/105/6 154/278/48
f 147/268/47 62/110/7 64/112/7 152/275/47
f 149/271/48 63/111/6 61/109/6 146/266/48
f 74/132/49 75/134/50 68/120/51 65/113/52
f 78/139/53 79/142/54 76/135/55 73/129/56
f 85/153/57 86/156/57 93/169/57 94/171/57 89/161/57 90/164/57 81/145/57 82/147/57
f 66/115/58 67/118/59 72/127/60 69/121/61
f 70/124/62 71/126/63 80/144/64 77/137/65
f 90/165/49 91/166/50 84/152/51 81/146/52
f 94/172/53 95/174/54 92/167/55 89/162/56
f 101/185/57 102/188/57 109/201/57 110/203/57 105/193/57 106/196/57 97/177/57 98/179/57
f 82/148/58 83/150/59 88/159/60 85/154/61
f 86/157/62 87/158/63 96/176/64 93/170/65
f 106/197/49 107/198/50 100/184/51 97/178/52
f 110/204/53 111/206/54 108/199/55 105/194/56
f 117/217/57 118/220/57 125/233/57 126/235/57 121/225/57 122/228/57 113/209/57 114/211/57
f 98/180/58 99/182/59 104/191/60 101/186/61
f 102/189/62 103/190/63 112/208/64 109/202/65
f 122/229/49 123/230/50 116/216/51 113/210/52
f 126/236/53 127/238/54 124/231/55 121/226/56
f 114/212/58 115/214/59 120/223/60 117/218/61
f 118/221/62 119/222/63 128/240/64 125/234/65
f 65/113/52 68/120/51 67/119/59 66/116/58
f 71/126/63 70/124/62 69/122/61 72/128/60
f 79/143/54 78/140/53 77/137/65 80/144/64
f 75/134/50 74/132/49 73/130/56 76/136/55
f 81/146/52 84/152/51 83/151/59 82/149/58
f 87/158/63 86/157/62 85/155/61 88/160/60
f 95/175/54 94/173/53 93/170/65 96/176/64
f 91/166/50 90/165/49 89/163/56 92/168/55
f 97/178/52 100/184/51 99/183/59 98/181/58
f 103/190/63 102/189/62 101/187/61 104/192/60
f 111/207/54 110/205/53 109/202/65 112/208/64
f 107/198/50 106/197/49 105/195/56 108/200/55
f 113/210/52 116/216/51 115/215/59 114/213/58
f 119/222/63 118/221/62 117/219/61 120/224/60
f 127/239/54 126/237/53 125/234/65 128/240/64
f 123/230/50 122/229/49 121/227/56 124/232/55
f 69/123/57 70/125/57 77/138/57 78/141/57 73/131/57 74/133/57 65/114/57 66/117/57
f 135/250/39 132/245/39 131/244/41 136/252/41
f 129/241/40 134/248/40 133/247/43 130/243/43
f 143/263/39 140/258/39 139/256/41 144/264/41
f 137/254/40 142/261/40 141/259/43 138/255/43
f 151/274/45 148/270/45 147/269/47 152/276/47
f 145/265/46 150/273/46 149/272/48 146/267/48
f 132/246/39 135/251/39 134/249/40 129/242/40
f 159/286/45 156/282/45 155/281/47 160/288/47
f 153/277/46 158/285/46 157/284/48 154/279/48
f 156/282/45 159/286/45 158/285/46 153/277/46
