# Blender 3.4.0
# www.blender.org
mtllib tunnel_straight_down_1.mtl
o tunnel_straight_down_1
v 3.000000 0.000000 1.750000
v 3.000000 1.616789 0.669696
v 3.000000 1.455072 0.972248
v 3.000000 1.237437 1.237437
v 3.000000 0.972248 1.455072
v 3.000000 0.669696 1.616789
v 3.000000 0.341408 1.716374
v -3.000000 1.000000 1.750000
v -3.000000 1.341408 1.716374
v -3.000000 1.669696 1.616789
v -3.000000 1.972248 1.455072
v -3.000000 2.237437 1.237437
v -3.000000 2.455072 0.972248
v -3.000000 2.616789 0.669696
v 3.000000 0.000000 -1.750000
v 3.000000 0.341408 -1.716374
v 3.000000 0.669696 -1.616789
v 3.000000 0.972248 -1.455072
v 3.000000 1.237437 -1.237437
v 3.000000 1.455072 -0.972248
v 3.000000 1.616789 -0.669696
v -3.000000 1.000000 -1.750000
v -3.000000 2.616789 -0.669696
v -3.000000 2.455072 -0.972248
v -3.000000 2.237437 -1.237437
v -3.000000 1.972248 -1.455072
v -3.000000 1.669696 -1.616789
v -3.000000 1.341408 -1.716374
v 3.000000 1.716374 0.168758
v -3.000000 2.716374 0.168758
v 3.000000 1.716374 -0.168758
v -3.000000 2.716374 -0.168758
v 3.000000 -0.350427 1.698462
v 3.000000 -0.321233 1.718361
v 3.000000 -0.338140 1.711710
v 3.000000 -0.419731 1.595396
v 3.000000 -0.390981 1.617913
v 3.000000 -0.403138 1.603898
v 3.000000 -1.000000 1.440000
v 3.000000 -0.980269 1.464604
v 3.000000 -0.994221 1.455491
v -3.000000 0.019731 1.464604
v -3.000000 -0.000000 1.440000
v -3.000000 0.005779 1.455490
v -3.000000 0.609019 1.617912
v -3.000000 0.580269 1.595396
v -3.000000 0.596862 1.603898
v -3.000000 0.678768 1.718361
v -3.000000 0.649573 1.698461
v -3.000000 0.661860 1.711710
v 3.000000 -0.980269 -1.464604
v 3.000000 -1.000000 -1.440000
v 3.000000 -0.994221 -1.455490
v 3.000000 -0.390981 -1.617912
v 3.000000 -0.419731 -1.595396
v 3.000000 -0.403138 -1.603898
v 3.000000 -0.321233 -1.718361
v 3.000000 -0.350427 -1.698461
v 3.000000 -0.338140 -1.711710
v -3.000000 0.649573 -1.698462
v -3.000000 0.678768 -1.718361
v -3.000000 0.661860 -1.711710
v -3.000000 0.580269 -1.595396
v -3.000000 0.609019 -1.617913
v -3.000000 0.596862 -1.603898
v -3.000000 0.000000 -1.440000
v -3.000000 0.019731 -1.464604
v -3.000000 0.005779 -1.455491
vn 0.1644 0.9864 -0.0000
vn 0.0367 0.2204 -0.9747
vn -0.0017 -0.0103 -0.9999
vn 0.0017 0.0103 -0.9999
vn 0.0413 0.2477 -0.9680
vn 0.0628 0.3766 -0.9242
vn 0.0591 0.3547 -0.9331
vn 0.0554 0.3323 -0.9416
vn 0.0679 0.4073 -0.9108
vn -0.1560 -0.9363 -0.3147
vn -0.1367 -0.8205 -0.5551
vn -0.1378 -0.8266 -0.5456
vn -0.1566 -0.9397 -0.3041
vn -0.1162 -0.6971 -0.7075
vn -0.1179 -0.7072 -0.6971
vn -0.0910 -0.5461 -0.8328
vn -0.0934 -0.5601 -0.8231
vn -0.0622 -0.3731 -0.9257
vn -0.0651 -0.3906 -0.9183
vn -0.0308 -0.1851 -0.9822
vn -0.0341 -0.2048 -0.9782
vn 0.1365 0.8188 0.5576
vn 0.1364 0.8183 0.5584
vn 0.1348 0.8090 0.5722
vn 0.1378 0.8267 0.5456
vn 0.0413 0.2477 0.9680
vn 0.0017 0.0103 0.9999
vn -0.0017 -0.0103 0.9999
vn 0.0367 0.2204 0.9747
vn -0.1566 -0.9397 0.3041
vn -0.1378 -0.8266 0.5456
vn -0.1367 -0.8205 0.5551
vn -0.1560 -0.9363 0.3147
vn -0.1179 -0.7072 0.6971
vn -0.1162 -0.6971 0.7075
vn -0.0934 -0.5601 0.8231
vn -0.0910 -0.5461 0.8328
vn -0.0651 -0.3906 0.9183
vn -0.0622 -0.3731 0.9257
vn -0.0341 -0.2048 0.9782
vn -0.0308 -0.1851 0.9822
vn 0.0679 0.4073 0.9108
vn 0.0554 0.3323 0.9416
vn 0.0591 0.3547 0.9331
vn 0.0628 0.3766 0.9242
vn -0.1623 -0.9739 0.1586
vn -0.1625 -0.9747 0.1535
vn -0.1623 -0.9739 -0.1586
vn -0.1625 -0.9747 -0.1535
vn 0.1043 0.6256 -0.7731
vn 0.1002 0.6013 -0.7927
vn 0.1378 0.8267 -0.5456
vn 0.1365 0.8188 -0.5576
vn 0.1364 0.8183 -0.5584
vn 0.1348 0.8090 -0.5722
vn 0.1213 0.7278 -0.6750
vn 0.0609 0.3654 -0.9289
vn 0.1002 0.6013 0.7927
vn 0.1043 0.6256 0.7731
vn 0.1213 0.7278 0.6750
vn 0.0609 0.3654 0.9289
vn 0.1543 0.9257 -0.3454
vn 0.1269 0.7613 -0.6359
vn 0.1310 0.7862 -0.6039
vn 0.1543 0.9257 0.3454
vn 0.1310 0.7862 0.6039
vn 0.1269 0.7613 0.6359
vt -0.227818 -1.000000
vt 0.803432 -1.000000
vt 1.459848 -1.000000
vt 0.633510 -1.000000
vt 0.463588 -1.000000
vt 0.287807 -1.000000
vt 0.117885 -1.000000
vt -0.052037 -1.000000
vt -0.227818 2.000000
vt -0.052037 2.000000
vt 0.117885 2.000000
vt 0.287807 2.000000
vt 0.463588 2.000000
vt 0.633510 2.000000
vt 0.803432 2.000000
vt 1.459848 2.000000
vt -0.232945 -1.000000
vt -0.057164 -1.000000
vt 0.112758 -1.000000
vt 0.282680 -1.000000
vt 0.452602 -1.000000
vt 0.628383 -1.000000
vt 0.798305 -1.000000
vt 0.790152 -1.000000
vt -0.232945 2.000000
vt 0.798305 2.000000
vt 0.790152 2.000000
vt 0.628383 2.000000
vt 0.452602 2.000000
vt 0.282680 2.000000
vt 0.112758 2.000000
vt -0.057164 2.000000
vt 1.209379 -1.000000
vt 1.209379 2.000000
vt 1.040621 -1.000000
vt 1.040621 2.000000
vt 2.000000 1.349231
vt -0.387698 -1.000000
vt 2.000000 1.355855
vt -0.397740 -0.999735
vt 2.000000 0.065812
vt 2.000000 1.308956
vt 2.000000 0.074109
vt 2.000000 1.301949
vt 2.000000 1.220000
vt 2.000000 -0.214457
vt 2.000000 1.227746
vt 2.000000 -0.221433
vt -1.000000 0.285543
vt -1.000000 1.220000
vt -1.000000 1.227745
vt -1.000000 0.278567
vt -1.000000 1.308956
vt -1.000000 0.565812
vt -1.000000 0.574109
vt -1.000000 1.301949
vt -0.387698 2.000000
vt -1.000000 1.349231
vt -1.000000 1.355855
vt -0.397740 2.000000
vt 2.000000 -0.214457
vt 2.000000 -0.220000
vt 2.000000 -0.227745
vt 2.000000 -0.221433
vt 2.000000 -0.308956
vt 2.000000 0.065812
vt 2.000000 0.074109
vt 2.000000 -0.301949
vt -0.392825 -1.000000
vt 2.000000 -0.349231
vt 2.000000 -0.355855
vt -0.402867 -0.999735
vt -1.000000 -0.349231
vt -0.392825 2.000000
vt -1.000000 -0.355855
vt -0.402867 2.000000
vt -1.000000 0.565812
vt -1.000000 -0.308956
vt -1.000000 0.574109
vt -1.000000 -0.301949
vt -1.000000 -0.220000
vt -1.000000 0.285543
vt -1.000000 -0.227745
vt -1.000000 0.278567
s 1
usemtl metal_floor_2
f 48/57/2 8/9/3 1/1/4 34/38/5
f 2/2/10 3/4/11 13/14/12 14/15/13
f 3/4/11 4/5/14 12/13/15 13/14/12
f 4/5/14 5/6/16 11/12/17 12/13/15
f 5/6/16 6/7/18 10/11/19 11/12/17
f 6/7/18 7/8/20 9/10/21 10/11/19
f 7/8/20 1/1/4 8/9/3 9/10/21
f 57/69/26 15/17/27 22/25/28 61/74/29
f 23/26/30 24/28/31 20/22/32 21/23/33
f 24/28/31 25/29/34 19/21/35 20/22/32
f 25/29/34 26/30/36 18/20/37 19/21/35
f 26/30/36 27/31/38 17/19/39 18/20/37
f 27/31/38 28/32/40 16/18/41 17/19/39
f 28/32/40 22/25/28 15/17/27 16/18/41
f 23/27/30 21/24/33 31/35/46 32/36/47
f 31/35/46 29/33/48 30/34/49 32/36/47
f 35/40/57 50/60/57 48/57/2 34/38/5
f 62/76/61 59/72/61 57/69/26 61/74/29
f 2/3/10 14/16/13 30/34/49 29/33/48
usemtl concrete_1
f 52/62/1 66/81/1 43/50/1 39/45/1
f 42/49/6 46/54/7 36/41/8 40/46/9
f 54/65/22 58/70/23 60/73/24 64/78/25
f 51/61/42 55/66/43 63/77/44 67/82/45
f 36/41/8 46/54/7 47/55/50 38/43/51
f 38/44/51 47/56/50 45/53/52 37/42/53
f 33/37/54 49/58/55 50/59/56 35/39/56
f 63/77/44 55/66/43 56/67/58 65/79/59
f 65/80/59 56/68/58 54/65/22 64/78/25
f 60/73/24 58/70/23 59/71/60 62/75/60
f 39/45/62 43/50/62 44/51/63 41/47/64
f 41/48/64 44/52/63 42/49/6 40/46/9
f 66/81/65 52/62/65 53/63/66 68/83/67
f 68/84/67 53/64/66 51/61/42 67/82/45
f 45/53/52 49/58/55 33/37/54 37/42/53
