# Blender 3.4.0
# www.blender.org
mtllib wall_box_1.mtl
o wall_box_1
v -0.206791 0.291791 0.240000
v 0.207791 -0.297791 0.240000
v 0.212791 -0.302791 0.245000
v 0.212791 0.296791 0.245000
v 0.207791 0.291791 0.240000
v -0.206791 -0.297791 0.240000
v -0.211791 -0.302791 0.245000
v -0.211791 0.296791 0.245000
v 0.246000 -0.331000 -0.000000
v 0.241000 -0.336000 -0.000000
v 0.241000 0.330000 -0.000000
v 0.246000 0.325000 -0.000000
v -0.240000 -0.336000 -0.000000
v -0.245000 -0.331000 -0.000000
v -0.245000 0.325000 -0.000000
v -0.240000 0.330000 -0.000000
v 0.241742 0.321383 0.245000
v 0.246000 0.325000 0.240000
v 0.241000 0.330000 0.240000
v 0.237383 0.325742 0.245000
v 0.237383 -0.331743 0.245000
v 0.241000 -0.336000 0.240000
v 0.246000 -0.331000 0.240000
v 0.241742 -0.327384 0.245000
v -0.240742 -0.327384 0.245000
v -0.245000 -0.331000 0.240000
v -0.240000 -0.336000 0.240000
v -0.236383 -0.331743 0.245000
v -0.236383 0.325742 0.245000
v -0.240000 0.330000 0.240000
v -0.245000 0.325000 0.240000
v -0.240742 0.321383 0.245000
vn -0.0000 -0.0000 1.0000
vn 0.3827 0.9239 -0.0000
vn 0.9239 0.3827 -0.0000
vn -0.3827 -0.9239 -0.0000
vn -0.9239 -0.3827 -0.0000
vn -0.7071 -0.0000 0.7071
vn -0.0000 0.7071 0.7071
vn -0.0000 -0.7071 0.7071
vn 0.7071 -0.0000 0.7071
vn -0.3827 0.9239 -0.0000
vn -0.9239 0.3827 -0.0000
vn 0.3827 -0.9239 -0.0000
vn 0.9239 -0.3827 -0.0000
vn 0.2166 0.6604 0.7190
vn 0.6604 0.2166 0.7190
vn 0.6162 0.2881 0.7330
vn 0.2881 0.6162 0.7330
vn 0.6604 -0.2166 0.7190
vn 0.2166 -0.6604 0.7190
vn 0.2881 -0.6162 0.7330
vn 0.6162 -0.2881 0.7330
vn -0.2166 -0.6604 0.7190
vn -0.6604 -0.2166 0.7190
vn -0.6162 -0.2881 0.7330
vn -0.2881 -0.6162 0.7330
vn -0.6604 0.2166 0.7190
vn -0.2166 0.6604 0.7190
vn -0.2881 0.6162 0.7330
vn -0.6162 0.2881 0.7330
vt 0.051880 0.961752
vt 0.643291 0.964610
vt 0.614787 0.371581
vt 0.621576 0.366576
vt 0.621576 0.966757
vt 0.614787 0.961752
vt 0.051880 0.371581
vt 0.643291 0.370056
vt 0.650139 0.370056
vt 0.045091 0.366576
vt 0.650139 0.964610
vt 0.045091 0.966757
vt 0.666667 0.338338
vt 0.000012 0.333351
vt 0.006802 0.333351
vt 0.006802 0.333351
vt 0.000012 0.333351
vt 0.666667 0.994995
vt 0.659967 0.333351
vt 0.666757 0.333351
vt 0.666667 0.338338
vt 0.666757 0.333351
vt 0.666667 0.994995
vt 0.659967 0.333351
vt 0.000448 0.088550
vt 0.660886 0.991375
vt 0.993197 0.994995
vt 0.000012 0.093546
vt 0.666667 0.994995
vt 0.006802 0.093546
vt 0.654967 0.995738
vt 0.006367 0.088550
vt 0.011713 0.088550
vt 0.654967 0.337595
vt 0.006802 0.093546
vt 0.659878 0.333333
vt 0.993197 0.338338
vt 0.000012 0.093546
vt 0.666667 0.338338
vt 0.660886 0.341958
vt 0.005781 0.341958
vt 0.666757 0.093546
vt 0.993197 0.338338
vt 0.000000 0.338338
vt 0.659967 0.093546
vt 0.006789 0.333333
vt 0.011699 0.337595
vt 0.011699 0.995738
vt 0.660402 0.088550
vt 0.655056 0.088550
vt 0.659967 0.093546
vt 0.993197 0.994995
vt 0.666757 0.093546
vt 0.000000 0.994995
vt 0.666322 0.088550
vt 0.005781 0.991375
s 1
usemtl wall_box_1
f 21/34/1 24/40/1 3/4/1
f 11/16/2 19/30/2 18/28/3 12/17/3
f 8/12/1 4/5/1 20/31/1 29/48/1
f 8/12/1 29/48/1 32/56/1
f 20/31/1 4/5/1 17/26/1
f 13/19/4 27/45/4 26/42/5 14/20/5
f 2/3/1 5/6/1 1/1/1 6/7/1
f 7/10/1 25/41/1 28/47/1
f 5/6/6 2/3/6 3/4/6 4/5/6
f 7/10/7 3/4/7 2/3/7 6/7/7
f 4/5/8 8/12/8 1/1/8 5/6/8
f 8/11/9 7/9/9 6/8/9 1/2/9
f 30/51/10 19/30/2 11/16/2 16/24/10
f 30/51/10 16/24/10 15/22/11 31/53/11
f 22/35/12 27/45/4 13/19/4 10/15/12
f 9/13/13 12/18/3 18/27/3 23/37/13
f 26/43/5 31/52/11 15/23/11 14/21/5
f 3/4/1 7/10/1 28/47/1 21/34/1
f 7/10/1 8/12/1 32/56/1 25/41/1
f 22/35/12 10/15/12 9/14/13 23/38/13
f 20/32/14 17/25/15 18/28/16 19/30/17
f 24/40/18 21/34/19 22/36/20 23/39/21
f 28/47/22 25/41/23 26/44/24 27/46/25
f 32/55/26 29/49/27 30/51/28 31/53/29
f 21/34/19 28/47/22 27/46/25 22/36/20
f 17/26/15 24/40/18 23/39/21 18/29/16
f 29/50/27 20/33/14 19/30/17 30/51/28
f 25/41/23 32/56/26 31/54/29 26/44/24
f 4/5/1 3/4/1 24/40/1 17/26/1
