# Blender 3.4.0
# www.blender.org
mtllib fence_e_pillar_1_corner.mtl
o fence_e_pillar_1_corner
v 0.100002 0.210000 0.030005
v 0.100002 0.231213 0.021218
v 0.100002 0.180000 0.000005
v 0.100002 0.210000 -0.029995
v 0.100003 0.240002 0.000005
v 0.100003 0.231215 -0.021209
v 0.129999 2.200000 -0.001000
v 0.129999 0.230000 -0.001000
v 0.100002 0.188787 -0.021209
v 0.171215 0.260000 0.021218
v 0.150002 0.260000 0.030005
v 0.128789 0.260000 0.021218
v 0.180002 0.260000 0.000005
v 0.150002 0.260000 -0.029995
v 0.128789 0.260000 -0.021209
v 0.100002 2.221214 0.021218
v 0.100002 2.200001 0.030005
v 0.100002 2.178788 0.021218
v 0.100002 2.221214 -0.021209
v 0.100002 2.200001 -0.029995
v 0.150002 2.150001 0.030005
v 0.128789 2.150001 0.021218
v 0.180002 2.150001 0.000005
v 0.171215 2.150001 -0.021209
v 0.120002 2.150001 0.000005
v 0.150002 2.150001 -0.029995
v 0.128789 2.150001 -0.021209
v 0.100002 2.230001 0.000005
v 0.100002 2.170001 0.000005
v 0.100002 2.178788 -0.021209
v 0.150357 2.200356 0.021218
v 0.135357 2.185357 0.030005
v 0.156570 2.206570 0.000005
v 0.150357 2.200356 -0.021209
v 0.135357 2.185356 -0.029995
v 0.171215 2.150001 0.021218
v 0.171216 0.260002 -0.021209
v 0.120003 0.260002 0.000005
v 0.150358 0.209647 0.021218
v 0.135358 0.224647 0.030005
v 0.156571 0.203433 0.000005
v 0.150358 0.209647 -0.021209
v 0.135358 0.224647 -0.029995
v 0.100003 0.188789 0.021218
v 0.160001 1.770000 -0.009999
v 0.160001 1.830000 -0.009999
v 0.220001 1.770000 -0.009999
v 0.220001 1.830000 -0.009999
v 0.160001 1.770000 0.010001
v 0.160001 1.830000 0.010001
v 0.220001 1.770000 0.010001
v 0.220001 1.830000 0.010001
v 0.160001 0.570000 -0.009999
v 0.160001 0.630000 -0.009999
v 0.220001 0.570000 -0.009999
v 0.220001 0.630000 -0.009999
v 0.160001 0.570000 0.010001
v 0.160001 0.630000 0.010001
v 0.220001 0.570000 0.010001
v 0.220001 0.630000 0.010001
v 0.050002 2.200001 -0.029995
v 0.050002 0.210000 -0.029995
v 0.050002 0.210000 0.030005
v 0.129999 2.200000 -0.000000
v 0.129999 0.230000 -0.000000
v 0.050002 2.200001 0.030005
v -0.000001 2.200000 0.129000
v -0.000001 0.230000 0.129000
v -0.000001 2.200000 0.130000
v -0.000001 0.230000 0.130000
v 0.049999 2.200000 -0.001000
v -0.000001 2.200000 0.049000
v 0.014644 2.200000 0.013645
v -0.000001 0.230000 0.049000
v 0.049999 0.230000 -0.001000
v 0.014644 0.230000 0.013645
v -0.000001 2.200000 0.050000
v 0.049999 2.200000 -0.000000
v 0.014644 2.200000 0.014645
v 0.049999 0.230000 0.000000
v -0.000001 0.230000 0.050000
v 0.014644 0.230000 0.014645
v -0.029995 0.210000 0.099998
v -0.029995 0.260000 0.149998
v -0.029995 2.150000 0.149999
v -0.021209 2.200355 0.150354
v -0.029995 2.185355 0.135354
v -0.021209 2.221213 0.099999
v -0.029995 2.200000 0.099999
v -0.021209 2.178787 0.099999
v -0.029995 0.224646 0.135353
v -0.001000 2.200000 0.130001
v -0.001000 0.230000 0.130001
v -0.029995 2.200001 0.049998
v -0.021209 2.221214 0.049998
v -0.021209 2.178787 0.049998
v 0.021218 2.221214 0.049998
v 0.021218 2.178787 0.049998
v -0.029995 0.210000 0.049998
v 0.021218 0.231214 0.049998
v 0.021218 0.188788 0.049998
v 0.021218 0.188787 0.099998
v 0.030005 0.210000 0.099998
v 0.000005 0.180000 0.099998
v -0.021209 0.188787 0.099998
v 0.000005 0.240000 0.099998
v -0.021209 0.231213 0.099998
v 0.021218 0.260000 0.171211
v 0.030005 0.260000 0.149998
v 0.021218 0.260000 0.128785
v 0.000005 0.260000 0.179998
v 0.000005 0.260000 0.119998
v -0.021209 0.260000 0.128785
v 0.000005 2.230000 0.099998
v 0.000005 2.150000 0.179998
v 0.021218 2.150000 0.171212
v 0.030005 2.150000 0.149999
v 0.021218 2.150000 0.128786
v -0.021209 2.150000 0.171212
v 0.000005 2.150000 0.119999
v -0.021209 2.150000 0.128786
v 0.021218 2.200356 0.150354
v 0.030005 2.185355 0.135354
v 0.000005 2.206568 0.156567
v 0.021218 2.221213 0.099999
v 0.030005 2.200000 0.099999
v 0.021218 2.178787 0.099999
v 0.000005 2.170000 0.099999
v 0.021218 0.231214 0.099998
v 0.021218 0.209646 0.150353
v 0.030005 0.224646 0.135353
v 0.000005 0.203433 0.156567
v -0.021209 0.209646 0.150353
v -0.021209 0.260001 0.171211
v -0.009999 1.770000 0.219999
v -0.009999 1.830000 0.219999
v -0.009999 1.770000 0.159999
v -0.009999 1.830000 0.159999
v 0.010001 1.770000 0.219999
v 0.010001 1.830000 0.219999
v 0.010001 1.770000 0.159999
v 0.010001 1.830000 0.159999
v -0.009999 0.570000 0.219999
v -0.009999 0.630000 0.219999
v -0.009999 0.570000 0.159999
v -0.009999 0.630000 0.159999
v 0.010001 0.570000 0.219999
v 0.010001 0.630000 0.219999
v 0.010001 0.570000 0.159999
v 0.010001 0.630000 0.159999
v 0.000005 2.170001 0.049998
v -0.021209 0.231214 0.049998
v -0.021209 0.188787 0.049998
v -0.000354 2.178791 -0.000356
v 0.014646 2.170004 0.014644
v 0.050001 2.178791 -0.021214
v 0.050001 2.170004 -0.000001
v 0.050001 2.178791 0.021213
v 0.000001 2.230004 0.049999
v 0.030001 2.200004 0.049999
v -0.000354 2.221218 -0.000356
v 0.014646 2.230004 0.014644
v -0.006567 2.200004 -0.006569
v 0.050001 2.221217 -0.021214
v 0.050001 2.230004 -0.000001
v 0.050001 2.221218 0.021212
v 0.000001 0.180005 0.049999
v -0.000354 0.188791 -0.000356
v 0.014646 0.180005 0.014644
v 0.050001 0.188791 -0.021214
v 0.050001 0.180005 -0.000001
v 0.050001 0.188791 0.021213
v 0.000001 0.240005 0.049999
v 0.030001 0.210005 0.049999
v -0.000354 0.231218 -0.000356
v 0.014646 0.240005 0.014644
v -0.006567 0.210005 -0.006569
v 0.050001 0.231218 -0.021214
v 0.050001 0.240005 -0.000001
v 0.050001 0.231218 0.021212
vn 0.2215 0.9639 0.1475
vn -0.0097 1.0000 -0.0000
vn -0.2459 0.6256 -0.7404
vn 0.1140 0.8172 -0.5649
vn -0.0385 -0.0681 -0.9969
vn -0.2066 -0.2189 -0.9536
vn 0.0317 -0.9893 -0.1423
vn 0.1802 -0.9586 -0.2205
vn 0.3047 -0.7147 0.6295
vn 0.1289 -0.9740 0.1865
vn 0.0469 -0.0770 0.9959
vn 0.1749 -0.2187 0.9600
vn 0.0611 0.9931 0.1004
vn 0.4327 0.8986 -0.0731
vn 0.3047 0.7148 -0.6295
vn 0.0511 0.8515 -0.5218
vn 0.0467 0.0772 -0.9959
vn -0.1745 -0.2265 -0.9582
vn 0.1996 -0.9565 -0.2128
vn -0.3189 -0.8568 -0.4053
vn -0.2459 -0.6256 0.7404
vn 0.1080 -0.9762 0.1880
vn -0.0385 0.0681 0.9969
vn 0.1596 -0.1958 0.9676
vn -1.0000 -0.0000 -0.0000
vn 0.7163 0.0707 -0.6942
vn 0.9954 0.0958 -0.0000
vn 0.9954 -0.0958 -0.0000
vn 0.7163 -0.0707 -0.6942
vn -0.9788 -0.2048 -0.0000
vn -0.6667 -0.1221 -0.7353
vn -0.6667 0.1221 -0.7353
vn -0.9788 0.2048 -0.0000
vn 0.0239 0.0048 -0.9997
vn 0.0239 -0.0048 -0.9997
vn -0.6667 -0.1221 0.7353
vn -0.6667 0.1221 0.7353
vn 0.0239 0.0048 0.9997
vn 0.0239 -0.0048 0.9997
vn 0.7163 0.0708 0.6942
vn 0.7163 -0.0707 0.6942
vn 0.5158 0.5158 0.6841
vn 0.7071 0.7071 -0.0000
vn 0.1916 0.5584 0.8072
vn 0.5158 0.5158 -0.6841
vn 0.0202 0.0565 -0.9982
vn 0.0331 0.0331 0.9989
vn -0.1574 -0.6237 -0.7656
vn -0.1886 0.6522 0.7342
vn 0.5158 -0.5158 0.6841
vn 0.7071 -0.7071 -0.0000
vn 0.5158 -0.5158 -0.6840
vn 0.0331 -0.0331 -0.9989
vn 0.0202 -0.0565 0.9982
vn 0.1917 -0.5583 -0.8072
vn -0.0000 -0.0000 -1.0000
vn -0.0000 -0.0000 1.0000
vn -0.0000 -1.0000 -0.0000
vn -0.0000 1.0000 -0.0000
vn 0.3359 0.7100 0.6189
vn -0.0827 -0.2950 -0.9519
vn 0.3279 0.6664 0.6696
vn 0.0241 -0.3327 -0.9427
vn 1.0000 -0.0000 -0.0000
vn -0.3827 -0.0000 -0.9239
vn -0.9239 -0.0000 -0.3827
vn 0.3827 -0.0000 0.9239
vn 0.9239 -0.0000 0.3827
vn -0.8168 -0.3969 -0.4187
vn -0.9156 -0.3894 0.1001
vn -0.9997 -0.0239 0.0048
vn -0.9371 0.0565 -0.3445
vn -0.9997 0.0048 0.0239
vn -0.9480 0.1239 -0.2931
vn -0.9417 0.2984 -0.1557
vn -0.9997 -0.0048 0.0239
vn -0.9248 0.0094 0.3803
vn -0.9156 -0.1001 0.3894
vn -0.9455 -0.2972 -0.1328
vn -0.9480 -0.2931 0.1240
vn -0.9985 0.0326 0.0431
vn -0.9424 0.1383 -0.3045
vn -0.9026 0.2967 0.3120
vn -0.9989 0.0331 0.0331
vn -0.9296 0.3489 0.1188
vn -0.9026 -0.3120 0.2967
vn -0.9989 -0.0331 0.0331
vn -0.7191 0.6531 0.2374
vn -0.6262 0.7719 0.1095
vn -0.5329 0.8459 -0.0223
vn -0.1582 -0.9874 0.0001
vn -0.0000 -0.9954 0.0957
vn 0.2130 0.9685 -0.1291
vn -0.2221 0.9004 -0.3742
vn 0.7353 0.6667 -0.1220
vn 0.4715 0.8719 0.1326
vn 0.9985 -0.0326 0.0431
vn 0.9800 -0.0344 0.1960
vn 0.7353 -0.1221 -0.6667
vn 0.9997 0.0048 0.0239
vn 0.9997 -0.0048 0.0239
vn 0.7353 0.1220 -0.6666
vn 0.6942 0.0707 0.7163
vn 0.6942 -0.0707 0.7163
vn -0.0000 0.0958 0.9954
vn -0.0000 -0.0958 0.9954
vn -0.0000 -0.2048 -0.9788
vn -0.0000 0.2048 -0.9788
vn -0.2876 -0.9524 -0.1015
vn -0.0000 -0.9788 -0.2048
vn 0.0977 0.9952 0.0096
vn 0.0913 0.9770 0.1927
vn 0.6942 0.7163 0.0707
vn 0.5125 0.8585 0.0188
vn 0.9997 0.0239 0.0048
vn 0.9871 -0.0130 0.1597
vn 0.6841 0.5158 0.5158
vn -0.0000 0.7071 0.7071
vn 0.9982 0.0565 0.0202
vn 0.7709 -0.5535 -0.3152
vn 0.6840 -0.5158 0.5158
vn -0.0000 -0.7071 0.7071
vn 0.6223 -0.7688 0.1475
vn 0.9989 -0.0338 0.0338
vn 0.4505 -0.8901 -0.0692
vn 0.4405 -0.8959 -0.0579
vn -0.3120 -0.9026 -0.2967
vn -0.0331 -0.9989 -0.0331
vn -0.5158 0.6841 -0.5158
vn -0.7071 -0.0000 -0.7071
vn -0.0202 0.9982 -0.0565
vt 0.372803 0.245073
vt 0.037989 0.150000
vt 0.369139 0.249860
vt 0.032248 0.150000
vt 0.377689 0.233978
vt 0.049469 0.150000
vt 0.374669 0.221027
vt 0.060950 0.150000
vt 0.072430 0.150000
vt 0.366946 0.255259
vt 0.368477 0.207424
vt 0.026508 0.150000
vt 0.066690 0.150000
vt 0.370880 0.214619
vt 0.662500 2.962499
vt 0.662500 -1.962500
vt 0.377152 0.227378
vt 0.055209 0.150000
vt 0.147053 0.572500
vt 0.351999 0.239012
vt 0.152794 0.572500
vt 0.354578 0.244305
vt 0.158534 0.572500
vt 0.357743 0.249344
vt 0.141313 0.572500
vt 0.350821 0.233257
vt 0.129833 0.572500
vt 0.353486 0.221425
vt 0.124092 0.572500
vt 0.356600 0.215067
vt 0.158205 0.132087
vt 0.089651 0.850000
vt 0.155330 0.126590
vt 0.083911 0.850000
vt 0.078170 0.850000
vt 0.151752 0.121371
vt 0.101131 0.850000
vt 0.158423 0.144818
vt 0.155461 0.150838
vt 0.106872 0.850000
vt 0.152794 0.100000
vt 0.136348 0.126447
vt 0.158534 0.100000
vt 0.139871 0.121338
vt 0.141313 0.100000
vt 0.132071 0.137834
vt 0.135573 0.100000
vt 0.132543 0.144023
vt 0.118352 0.100000
vt 0.164274 0.100000
vt 0.140625 0.162704
vt 0.141915 0.115625
vt 0.129833 0.100000
vt 0.134700 0.150389
vt 0.124092 0.100000
vt 0.138497 0.156307
vt 0.159589 0.138246
vt 0.095391 0.850000
vt 0.072430 0.850000
vt 0.149350 0.162799
vt 0.149715 0.115625
vt 0.118352 0.850000
vt 0.151620 0.156495
vt 0.112612 0.850000
vt 0.145668 0.133893
vt 0.145732 0.128868
vt 0.145585 0.138410
vt 0.145455 0.142986
vt 0.145277 0.148269
vt 0.147053 0.100000
vt 0.133471 0.131867
vt 0.135573 0.572500
vt 0.351380 0.227292
vt 0.118352 0.572500
vt 0.164274 0.572500
vt 0.359421 0.254906
vt 0.358246 0.207424
vt 0.363871 0.237455
vt 0.363722 0.242358
vt 0.363949 0.233015
vt 0.363978 0.228480
vt 0.363946 0.223188
vt 0.043729 0.150000
vt 0.375950 0.239860
vt 0.040000 0.651875
vt 0.497500 0.040000
vt 0.040000 0.666875
vt 0.497500 0.040000
vt 0.055000 0.651875
vt 0.497500 0.055000
vt 0.055000 0.666875
vt 0.497500 0.055000
vt 0.040000 0.651875
vt 0.502500 0.040000
vt 0.040000 0.666875
vt 0.502500 0.040000
vt 0.055000 0.651875
vt 0.502500 0.055000
vt 0.055000 0.666875
vt 0.502500 0.055000
vt 0.040000 0.351878
vt 0.497501 0.040000
vt 0.040000 0.366878
vt 0.497501 0.040000
vt 0.055000 0.351879
vt 0.497501 0.055000
vt 0.055000 0.366879
vt 0.497501 0.055000
vt 0.040001 0.351883
vt 0.502501 0.040000
vt 0.040001 0.366882
vt 0.502501 0.040000
vt 0.055001 0.351883
vt 0.502501 0.055000
vt 0.055001 0.366882
vt 0.502501 0.055000
vt 0.106872 0.862500
vt 0.316586 0.091103
vt 0.060950 0.137500
vt 0.316586 0.091103
vt 0.037989 0.137500
vt 0.307076 0.114276
vt 0.306074 0.067298
vt 0.662500 2.962499
vt 0.662500 -1.962500
vt 0.083911 0.862500
vt 0.307076 0.114276
vt 0.306074 0.067298
vt 2.962500 0.661241
vt -1.962499 0.661259
vt 2.962500 0.663741
vt -1.962499 0.663759
vt 0.462500 2.962499
vt 2.962500 0.461241
vt 0.374112 2.962499
vt 2.962499 0.372853
vt -1.962500 0.461259
vt 0.462500 -1.962500
vt 0.374112 -1.962500
vt -1.962500 0.372871
vt 2.962500 0.463741
vt 0.462500 2.962499
vt 0.374112 2.962499
vt 2.962499 0.375353
vt 0.462500 -1.962500
vt -1.962500 0.463759
vt 0.374112 -1.962500
vt -1.962500 0.375371
vt 0.374721 0.189405
vt 0.060950 0.100000
vt 0.198716 0.572500
vt 0.354473 0.189924
vt 0.198716 0.100000
vt 0.293273 0.103500
vt 0.302671 0.095819
vt 0.302805 0.100919
vt 0.315352 0.097373
vt 0.101131 0.900000
vt 0.312509 0.103099
vt 0.106872 0.900000
vt 0.112612 0.900000
vt 0.309011 0.108419
vt 0.364698 0.191986
vt 0.106872 0.887500
vt 0.288774 0.091876
vt 0.101131 0.887500
vt 0.289243 0.085395
vt 0.112612 0.887500
vt 0.290259 0.097992
vt 0.089651 0.887500
vt 0.295660 0.073683
vt 0.078170 0.887500
vt 0.296941 0.108650
vt 0.060950 0.112500
vt 0.288774 0.091876
vt 0.032248 0.112500
vt 0.295660 0.073683
vt 0.043729 0.112500
vt 0.296941 0.108650
vt 0.377855 0.207787
vt 0.043729 0.100000
vt 0.375099 0.213440
vt 0.037989 0.100000
vt 0.379055 0.201526
vt 0.049469 0.100000
vt 0.055209 0.100000
vt 0.377721 0.195153
vt 0.026508 0.100000
vt 0.368542 0.177785
vt 0.369621 0.224771
vt 0.072430 0.100000
vt 0.370853 0.183898
vt 0.066690 0.100000
vt 0.181495 0.572500
vt 0.352735 0.208443
vt 0.175755 0.572500
vt 0.355700 0.213885
vt 0.170014 0.572500
vt 0.359419 0.219110
vt 0.187235 0.572500
vt 0.351276 0.202393
vt 0.210196 0.572500
vt 0.164274 0.572500
vt 0.360135 0.177975
vt 0.361622 0.224935
vt 0.204456 0.572500
vt 0.358107 0.184200
vt 0.316586 0.091103
vt 0.095391 0.900000
vt 0.187235 0.100000
vt 0.288774 0.091876
vt 0.181495 0.100000
vt 0.289243 0.085395
vt 0.175755 0.100000
vt 0.292009 0.079397
vt 0.170014 0.100000
vt 0.295660 0.073683
vt 0.192975 0.100000
vt 0.290259 0.097992
vt 0.210196 0.100000
vt 0.164274 0.100000
vt 0.299090 0.114422
vt 0.297696 0.067474
vt 0.204456 0.100000
vt 0.296941 0.108650
vt 0.302399 0.086698
vt 0.302252 0.081478
vt 0.302537 0.091282
vt 0.089651 0.900000
vt 0.315263 0.084706
vt 0.312212 0.078841
vt 0.083911 0.900000
vt 0.308375 0.073387
vt 0.078170 0.900000
vt 0.118352 0.900000
vt 0.307076 0.114276
vt 0.306074 0.067298
vt 0.072430 0.900000
vt 0.032248 0.100000
vt 0.371581 0.218849
vt 0.365163 0.206269
vt 0.365310 0.211336
vt 0.365023 0.201737
vt 0.364860 0.197178
vt 0.192975 0.572500
vt 0.351733 0.195921
vt -0.055000 0.651874
vt 0.497500 -0.055000
vt -0.055000 0.666874
vt 0.497500 -0.055000
vt -0.040000 0.651875
vt 0.497500 -0.040000
vt -0.040000 0.666874
vt 0.497500 -0.040000
vt -0.055000 0.651875
vt 0.502500 -0.055000
vt -0.055000 0.666874
vt 0.502500 -0.055000
vt -0.040000 0.651875
vt 0.502500 -0.040000
vt -0.040000 0.666874
vt 0.502500 -0.040000
vt -0.055000 0.351880
vt 0.497501 -0.055000
vt -0.055000 0.366879
vt 0.497501 -0.055000
vt -0.040000 0.351880
vt 0.497501 -0.040000
vt -0.040000 0.366879
vt 0.497501 -0.040000
vt -0.054999 0.351880
vt 0.502501 -0.055000
vt -0.054999 0.366879
vt 0.502501 -0.055000
vt -0.039999 0.351880
vt 0.502501 -0.040000
vt -0.039999 0.366879
vt 0.502501 -0.040000
vt 0.118352 0.887500
vt 0.072430 0.887500
vt 0.293273 0.103500
vt 0.066690 0.112500
vt 0.289243 0.085395
vt 0.055209 0.112500
vt 0.290259 0.097992
vt 0.302671 0.095819
vt 0.302805 0.100919
vt 0.112612 0.862500
vt 0.315352 0.097373
vt 0.072430 0.862500
vt 0.118352 0.862500
vt 0.312509 0.103099
vt 0.078170 0.862500
vt 0.309011 0.108419
vt 0.095391 0.887500
vt 0.292009 0.079397
vt 0.083911 0.887500
vt 0.299090 0.114422
vt 0.297696 0.067474
vt 0.302399 0.086698
vt 0.302252 0.081478
vt 0.302537 0.091282
vt 0.101131 0.862500
vt 0.315263 0.084706
vt 0.095391 0.862500
vt 0.312212 0.078841
vt 0.089651 0.862500
vt 0.308375 0.073387
vt 0.049469 0.112500
vt 0.293273 0.103500
vt 0.302671 0.095819
vt 0.302805 0.100919
vt 0.055209 0.137500
vt 0.315352 0.097373
vt 0.049469 0.137500
vt 0.312509 0.103099
vt 0.043729 0.137500
vt 0.309011 0.108419
vt 0.026508 0.112500
vt 0.072430 0.112500
vt 0.292009 0.079397
vt 0.037989 0.112500
vt 0.299090 0.114422
vt 0.297696 0.067474
vt 0.302399 0.086698
vt 0.302252 0.081478
vt 0.302537 0.091282
vt 0.066690 0.137500
vt 0.315263 0.084706
vt 0.072430 0.137500
vt 0.026508 0.137500
vt 0.312212 0.078841
vt 0.032248 0.137500
vt 0.308375 0.073387
s 1
usemtl metal_hr_2
f 179/330/1 5/9/2 6/13/3 178/328/4
f 178/328/4 6/13/3 4/8/5 62/119/6
f 171/315/7 3/6/8 44/83/9 172/317/10
f 172/317/10 44/83/9 1/2/11 63/121/12
f 165/305/13 28/58/14 19/37/15 164/303/16
f 164/303/16 19/37/15 20/40/17 61/117/18
f 157/290/19 29/59/20 18/35/21 158/293/22
f 158/293/22 18/35/21 17/34/23 66/126/24
f 24/47/26 23/45/27 13/25/28 37/72/29
f 25/49/30 27/55/31 15/29/32 38/74/33
f 26/53/34 24/47/26 37/72/29 14/27/35
f 22/43/36 25/50/30 38/75/33 12/23/37
f 21/41/38 22/43/36 12/23/37 11/21/39
f 23/45/27 36/70/40 10/19/41 13/25/28
f 27/55/31 26/53/34 14/27/35 15/29/32
f 36/70/40 21/41/38 11/21/39 10/19/41
f 31/65/42 33/67/43 28/57/14 16/31/44
f 34/68/45 35/69/46 20/39/17 19/38/15
f 32/66/47 21/42/38 36/71/40 31/65/42
f 35/69/46 27/56/31 30/63/48
f 28/57/14 33/67/43 34/68/45 19/38/15
f 35/69/46 30/63/48 20/39/17
f 33/67/43 23/46/27 24/48/26 34/68/45
f 34/68/45 24/48/26 26/54/34 35/69/46
f 31/65/42 36/71/40 23/46/27 33/67/43
f 38/76/33 5/10/2 2/3/49 12/24/37
f 30/63/48 27/56/31 25/51/30 29/60/20
f 39/78/50 41/80/51 13/26/28 10/20/41
f 37/73/29 42/81/52 43/82/53 14/28/35
f 40/79/54 1/1/11 44/84/9 39/78/50
f 6/14/3 15/30/32 43/82/53
f 41/80/51 42/81/52 37/73/29 13/26/28
f 43/82/53 15/30/32 14/28/35
f 41/80/51 3/5/8 9/17/55 42/81/52
f 42/81/52 9/17/55 4/7/5 43/82/53
f 39/78/50 44/84/9 3/5/8 41/80/51
f 43/82/53 4/7/5 6/14/3
f 32/66/47 31/65/42 16/31/44 17/33/23
f 15/30/32 6/14/3 5/11/2 38/77/33
f 40/79/54 39/78/50 10/20/41 11/22/39
s 0
f 45/85/56 46/87/56 48/91/56 47/89/56
f 51/97/57 52/99/57 50/95/57 49/93/57
f 47/90/58 51/98/58 49/94/58 45/86/58
f 52/100/59 48/92/59 46/88/59 50/96/59
f 53/101/56 54/103/56 56/107/56 55/105/56
f 59/113/57 60/115/57 58/111/57 57/109/57
f 55/106/58 59/114/58 57/110/58 53/102/58
f 60/116/59 56/108/59 54/104/59 58/112/59
s 1
f 29/61/20 25/52/30 22/44/36 18/36/21
f 22/44/36 32/66/47 18/36/21
f 27/56/31 35/69/46 26/54/34
f 18/36/21 32/66/47 17/33/23
f 22/44/36 21/42/38 32/66/47
f 12/24/37 40/79/54 11/22/39
f 2/3/49 1/1/11 40/79/54
f 12/24/37 2/3/49 40/79/54
f 16/32/44 166/307/60 66/126/24 17/34/23
f 28/58/14 165/305/13 166/307/60 16/32/44
f 30/64/48 156/288/61 61/117/18 20/40/17
f 29/62/20 157/291/19 156/288/61 30/64/48
f 2/4/49 180/333/62 63/121/12 1/2/11
f 5/12/2 179/331/1 180/333/62 2/4/49
f 9/18/55 170/313/63 62/119/6 4/8/5
f 3/6/8 171/315/7 170/313/63 9/18/55
f 153/284/69 105/186/70 83/150/71 99/174/72
f 85/153/73 121/224/74 113/206/75 84/151/76
f 119/218/77 85/153/73 84/151/76 134/245/78
f 96/168/79 90/161/80 89/160/81 94/164/82
f 119/219/77 86/155/83 87/156/84 85/154/73
f 90/162/80 121/225/74 87/156/84
f 85/154/73 87/156/84 121/225/74
f 86/155/83 88/157/85 89/159/81 87/156/84
f 87/156/84 89/159/81 90/162/80
f 133/244/86 91/163/87 83/149/71 105/187/70
f 91/163/87 113/207/75 107/192/88
f 133/244/86 134/246/78 84/152/76 91/163/87
f 91/163/87 107/192/88 83/149/71
f 113/207/75 91/163/87 84/152/76
f 88/158/85 95/166/89 94/164/82 89/160/81
f 107/193/88 152/282/90 99/174/72 83/150/71
f 167/309/91 104/185/92 105/186/70 153/284/69
f 173/319/93 106/188/94 129/239/95 100/176/96
f 100/176/96 129/239/95 103/183/97 174/322/98
f 118/216/99 117/214/100 109/196/101 110/198/102
f 117/214/100 116/212/103 108/194/104 109/196/101
f 116/212/103 115/210/105 111/200/106 108/194/104
f 121/224/74 120/220/107 112/202/108 113/206/75
f 120/221/107 118/216/99 110/198/102 112/203/108
f 115/210/105 119/218/77 134/245/78 111/200/106
f 151/279/109 128/235/110 90/161/80 96/168/79
f 159/295/111 114/209/112 125/229/113 97/170/114
f 97/170/114 125/229/113 126/232/115 160/297/116
f 116/213/103 122/226/117 124/228/118 115/211/105
f 123/227/119 127/233/120 126/231/115
f 123/227/119 126/231/115 125/230/113 122/226/117
f 124/228/118 86/155/83 119/219/77 115/211/105
f 124/228/118 114/208/112 88/157/85 86/155/83
f 122/226/117 125/230/113 114/208/112 124/228/118
f 121/225/74 90/162/80 128/236/110 120/222/107
f 130/241/121 132/243/122 104/184/92 102/180/123
f 131/242/124 103/182/97 129/240/95
f 131/242/124 109/197/101 108/195/104 130/241/121
f 132/243/122 133/244/86 105/187/70 104/184/92
f 132/243/122 111/201/106 134/246/78 133/244/86
f 130/241/121 108/195/104 111/201/106 132/243/122
f 107/192/88 113/207/75 112/204/108 106/189/94
f 117/215/100 123/227/119 122/226/117 116/213/103
f 131/242/124 130/241/121 102/180/123 103/182/97
s 0
f 135/247/25 136/249/25 138/253/25 137/251/25
f 141/259/64 142/261/64 140/257/64 139/255/64
f 137/252/58 141/260/58 139/256/58 135/248/58
f 142/262/59 138/254/59 136/250/59 140/258/59
f 143/263/25 144/265/25 146/269/25 145/267/25
f 149/275/64 150/277/64 148/273/64 147/271/64
f 145/268/58 149/276/58 147/272/58 143/264/58
f 150/278/59 146/270/59 144/266/59 148/274/59
s 1
f 106/190/94 112/205/108 110/199/102 129/240/95
f 118/217/99 123/227/119 117/215/100
f 123/227/119 118/217/99 127/233/120
f 129/240/95 110/199/102 131/242/124
f 109/197/101 131/242/124 110/199/102
f 120/223/107 128/237/110 127/233/120 118/217/99
f 127/234/120 98/172/125 160/297/116 126/232/115
f 128/238/110 151/280/109 98/172/125 127/234/120
f 114/209/112 159/295/111 95/166/89 88/158/85
f 102/181/123 101/178/126 174/322/98 103/183/97
f 104/185/92 167/309/91 101/178/126 102/181/123
f 106/191/94 173/320/93 152/282/90 107/193/88
f 96/169/79 154/286/127 155/287/128 151/281/109
f 158/294/22 98/173/125 155/287/128
f 151/281/109 155/287/128 98/173/125
f 154/286/127 156/289/61 157/292/19 155/287/128
f 155/287/128 157/292/19 158/294/22
f 95/167/89 161/300/129 163/302/130 94/165/82
f 162/301/131 166/308/60 165/306/13
f 162/301/131 165/306/13 164/304/16 161/300/129
f 163/302/130 154/286/127 96/169/79 94/165/82
f 163/302/130 61/118/18 156/289/61 154/286/127
f 161/300/129 164/304/16 61/118/18 163/302/130
f 98/173/125 158/294/22 66/127/24 160/298/116
f 159/296/111 162/301/131 161/300/129 95/167/89
f 97/171/114 162/301/131 159/296/111
f 162/301/131 97/171/114 166/308/60
f 160/299/116 66/128/24 166/308/60 97/171/114
f 153/285/69 168/311/127 169/312/128 167/310/91
f 172/318/10 101/179/126 169/312/128
f 167/310/91 169/312/128 101/179/126
f 168/311/127 170/314/63 171/316/7 169/312/128
f 169/312/128 171/316/7 172/318/10
f 152/283/90 175/325/129 177/327/130 99/175/72
f 176/326/131 180/334/62 179/332/1
f 176/326/131 179/332/1 178/329/4 175/325/129
f 177/327/130 168/311/127 153/285/69 99/175/72
f 177/327/130 62/120/6 170/314/63 168/311/127
f 175/325/129 178/329/4 62/120/6 177/327/130
f 101/179/126 172/318/10 63/122/12 174/323/98
f 173/321/93 176/326/131 175/325/129 152/283/90
f 100/177/96 176/326/131 173/321/93
f 176/326/131 100/177/96 180/334/62
f 174/324/98 63/123/12 180/334/62 100/177/96
s 0
usemtl grate_hm_1
f 72/134/25 74/137/25 68/130/25 67/129/25
f 81/146/64 77/141/64 69/131/64 70/132/64
f 78/142/57 80/145/57 65/125/57 64/124/57
f 71/133/65 75/138/65 76/139/65 73/135/65
f 73/136/66 76/140/66 74/137/66 72/134/66
f 80/145/67 78/142/67 79/143/67 82/147/67
f 82/148/68 79/144/68 77/141/68 81/146/68
f 71/133/56 7/15/56 8/16/56 75/138/56
l 92 93
