# Blender 3.4.0
# www.blender.org
mtllib fence_e_pillar_1.mtl
o fence_e_pillar_1
v -0.099998 0.188787 0.021218
v -0.099998 0.210000 0.030005
v -0.099998 0.180000 0.000005
v -0.099998 0.188787 -0.021209
v -0.099998 0.240000 0.000005
v -0.099998 0.210000 -0.029995
v -0.099998 0.231213 -0.021209
v 0.100002 0.210000 0.030005
v 0.100002 0.231213 0.021218
v 0.100002 0.180000 0.000005
v 0.100002 0.210000 -0.029995
v -0.171211 0.260000 0.021218
v -0.149998 0.260000 0.030005
v -0.128785 0.260000 0.021218
v -0.179998 0.260000 0.000005
v -0.119998 0.260000 0.000005
v -0.149998 0.260000 -0.029995
v -0.128785 0.260000 -0.021209
v -0.099998 2.230000 0.000005
v -0.179998 2.150000 0.000005
v -0.171212 2.150000 0.021218
v -0.149999 2.150000 0.030005
v -0.128786 2.150000 0.021218
v -0.171212 2.150000 -0.021209
v -0.119999 2.150000 0.000005
v -0.149999 2.150000 -0.029995
v -0.128786 2.150000 -0.021209
v -0.150354 2.200356 0.021218
v -0.135354 2.185355 0.030005
v -0.156567 2.206568 0.000005
v -0.150354 2.200355 -0.021209
v -0.135354 2.185355 -0.029995
v -0.099999 2.221213 0.021218
v -0.099999 2.200000 0.030005
v -0.099999 2.178787 0.021218
v -0.099999 2.221213 -0.021209
v -0.099999 2.170000 0.000005
v -0.099999 2.200000 -0.029995
v -0.099999 2.178787 -0.021209
v -0.099998 0.231214 0.021218
v -0.150353 0.209646 0.021218
v -0.135353 0.224646 0.030005
v -0.156567 0.203433 0.000005
v -0.150353 0.209646 -0.021209
v -0.135353 0.224646 -0.029995
v -0.171211 0.260001 -0.021209
v 0.100003 0.240002 0.000005
v 0.100003 0.231215 -0.021209
v -0.130001 2.200000 0.000000
v -0.130001 0.230000 0.000000
v 0.129999 2.200000 -0.000000
v 0.129999 0.230000 -0.000000
v -0.130001 2.200000 -0.001000
v -0.130001 0.230000 -0.001000
v 0.129999 2.200000 -0.001000
v 0.129999 0.230000 -0.001000
v 0.100002 0.188787 -0.021209
v 0.171215 0.260000 0.021218
v 0.150002 0.260000 0.030005
v 0.128789 0.260000 0.021218
v 0.180002 0.260000 0.000005
v 0.150002 0.260000 -0.029995
v 0.128789 0.260000 -0.021209
v 0.100002 2.221214 0.021218
v 0.100002 2.200001 0.030005
v 0.100002 2.178788 0.021218
v 0.100002 2.221214 -0.021209
v 0.100002 2.200001 -0.029995
v 0.150002 2.150001 0.030005
v 0.128789 2.150001 0.021218
v 0.180002 2.150001 0.000005
v 0.171215 2.150001 -0.021209
v 0.120002 2.150001 0.000005
v 0.150002 2.150001 -0.029995
v 0.128789 2.150001 -0.021209
v 0.100002 2.230001 0.000005
v 0.100002 2.170001 0.000005
v 0.100002 2.178788 -0.021209
v 0.150357 2.200356 0.021218
v 0.135357 2.185357 0.030005
v 0.156570 2.206570 0.000005
v 0.150357 2.200356 -0.021209
v 0.135357 2.185356 -0.029995
v 0.171215 2.150001 0.021218
v 0.171216 0.260002 -0.021209
v 0.120003 0.260002 0.000005
v 0.150358 0.209647 0.021218
v 0.135358 0.224647 0.030005
v 0.156571 0.203433 0.000005
v 0.150358 0.209647 -0.021209
v 0.135358 0.224647 -0.029995
v 0.100003 0.188789 0.021218
v 0.160001 1.770000 -0.009999
v 0.160001 1.830000 -0.009999
v 0.220001 1.770000 -0.009999
v 0.220001 1.830000 -0.009999
v 0.160001 1.770000 0.010001
v 0.160001 1.830000 0.010001
v 0.220001 1.770000 0.010001
v 0.220001 1.830000 0.010001
v -0.219999 1.770000 -0.009999
v -0.219999 1.830000 -0.009999
v -0.159999 1.770000 -0.009999
v -0.159999 1.830000 -0.009999
v -0.219999 1.770000 0.010001
v -0.219999 1.830000 0.010001
v -0.159999 1.770000 0.010001
v -0.159999 1.830000 0.010001
v 0.160001 0.570000 -0.009999
v 0.160001 0.630000 -0.009999
v 0.220001 0.570000 -0.009999
v 0.220001 0.630000 -0.009999
v 0.160001 0.570000 0.010001
v 0.160001 0.630000 0.010001
v 0.220001 0.570000 0.010001
v 0.220001 0.630000 0.010001
v -0.219999 0.570000 -0.009999
v -0.219999 0.630000 -0.009999
v -0.159999 0.570000 -0.009999
v -0.159999 0.630000 -0.009999
v -0.219999 0.570000 0.010001
v -0.219999 0.630000 0.010001
v -0.159999 0.570000 0.010001
v -0.159999 0.630000 0.010001
vn 0.3981 -0.9172 0.0152
vn -0.0958 -0.9954 -0.0000
vn -0.0708 -0.7163 -0.6942
vn 0.3277 -0.7472 -0.5782
vn -0.0048 -0.0239 -0.9997
vn 0.0408 -0.1050 -0.9936
vn 0.2049 0.9788 0.0001
vn -0.0097 1.0000 -0.0000
vn -0.2459 0.6256 -0.7404
vn 0.1221 0.6667 -0.7353
vn 0.3047 -0.7147 0.6295
vn -0.0707 -0.7163 0.6942
vn 0.0469 -0.0771 0.9959
vn -0.0048 -0.0239 0.9997
vn 0.1220 0.6666 0.7353
vn -0.2484 0.6404 0.7267
vn -0.0239 0.0048 -0.9997
vn 0.6667 -0.1221 -0.7353
vn 0.6667 0.1221 -0.7353
vn -0.0239 -0.0048 -0.9997
vn 0.6667 -0.1221 0.7353
vn -0.0239 0.0048 0.9997
vn -0.0239 -0.0048 0.9997
vn 0.6666 0.1220 0.7353
vn -0.7163 0.0707 0.6942
vn -0.7163 -0.0707 0.6942
vn -0.7163 0.0707 -0.6942
vn -0.7163 -0.0708 -0.6942
vn -0.9954 0.0958 -0.0000
vn -0.9954 -0.0958 -0.0000
vn 0.9788 -0.2048 0.0001
vn 0.9788 0.2048 -0.0000
vn -0.0958 0.9954 -0.0000
vn 0.4327 0.8986 -0.0731
vn 0.3047 0.7148 -0.6295
vn -0.0707 0.7163 -0.6942
vn 0.0467 0.0772 -0.9959
vn -0.0048 0.0239 -0.9997
vn -0.0097 -1.0000 -0.0000
vn 0.2048 -0.9788 -0.0000
vn 0.1221 -0.6667 -0.7353
vn -0.2483 -0.6404 -0.7268
vn -0.0707 0.7163 0.6942
vn 0.3277 0.7471 0.5783
vn -0.0048 0.0239 0.9997
vn 0.0408 0.1050 0.9936
vn -0.2459 -0.6256 0.7404
vn 0.1221 -0.6667 0.7353
vn -0.5158 0.5158 0.6841
vn -0.7071 0.7071 -0.0000
vn -0.5158 0.5158 -0.6841
vn -0.0331 0.0331 -0.9989
vn -0.0202 0.0565 0.9982
vn -0.5158 -0.5158 0.6840
vn -0.7071 -0.7071 -0.0000
vn -0.0338 -0.0338 0.9989
vn -0.5158 -0.5158 -0.6841
vn -0.0331 -0.0331 -0.9989
vn -0.0000 -0.0000 1.0000
vn -0.0000 -0.0000 -1.0000
vn 0.7163 0.0707 -0.6942
vn 0.9954 0.0958 -0.0000
vn 0.9954 -0.0958 -0.0000
vn 0.7163 -0.0707 -0.6942
vn -0.9788 -0.2048 -0.0000
vn -0.6667 -0.1221 -0.7353
vn -0.6667 0.1221 -0.7353
vn -0.9788 0.2048 -0.0000
vn 0.0239 0.0048 -0.9997
vn 0.0239 -0.0048 -0.9997
vn -0.6667 -0.1221 0.7353
vn -0.6667 0.1221 0.7353
vn 0.0239 0.0048 0.9997
vn 0.0239 -0.0048 0.9997
vn 0.7163 0.0708 0.6942
vn 0.7163 -0.0707 0.6942
vn 0.5158 0.5158 0.6841
vn 0.7071 0.7071 -0.0000
vn 0.5158 0.5158 -0.6841
vn 0.0202 0.0565 -0.9982
vn 0.0331 0.0331 0.9989
vn 0.5158 -0.5158 0.6841
vn 0.7071 -0.7071 -0.0000
vn 0.5158 -0.5158 -0.6840
vn 0.0331 -0.0331 -0.9989
vn 0.0202 -0.0565 0.9982
vn -0.0000 -1.0000 -0.0000
vn -0.0000 1.0000 -0.0000
vt 0.043729 0.100000
vt 0.377855 0.207787
vt 0.037989 0.100000
vt 0.375099 0.213440
vt 0.049469 0.100000
vt 0.379055 0.201526
vt 0.055209 0.100000
vt 0.377721 0.195153
vt 0.072430 0.100000
vt 0.026508 0.100000
vt 0.368542 0.177785
vt 0.369621 0.224771
vt 0.060950 0.100000
vt 0.374721 0.189405
vt 0.066690 0.100000
vt 0.370853 0.183898
vt 0.037989 0.150000
vt 0.372803 0.245073
vt 0.032248 0.150000
vt 0.369139 0.249860
vt 0.049469 0.150000
vt 0.377689 0.233978
vt 0.060950 0.150000
vt 0.374669 0.221027
vt 0.181495 0.572500
vt 0.352735 0.208443
vt 0.175755 0.572500
vt 0.355700 0.213885
vt 0.170014 0.572500
vt 0.359419 0.219110
vt 0.187235 0.572500
vt 0.351276 0.202393
vt 0.210196 0.572500
vt 0.164274 0.572500
vt 0.360135 0.177975
vt 0.361622 0.224935
vt 0.198716 0.572500
vt 0.354473 0.189924
vt 0.204456 0.572500
vt 0.358107 0.184200
vt 0.095391 0.900000
vt 0.316586 0.091103
vt 0.187235 0.100000
vt 0.288774 0.091876
vt 0.181495 0.100000
vt 0.289243 0.085395
vt 0.175755 0.100000
vt 0.292009 0.079397
vt 0.170014 0.100000
vt 0.295660 0.073683
vt 0.192975 0.100000
vt 0.290259 0.097992
vt 0.210196 0.100000
vt 0.164274 0.100000
vt 0.299090 0.114422
vt 0.297696 0.067474
vt 0.198716 0.100000
vt 0.293273 0.103500
vt 0.204456 0.100000
vt 0.296941 0.108650
vt 0.302399 0.086698
vt 0.302252 0.081478
vt 0.302537 0.091282
vt 0.302671 0.095819
vt 0.302805 0.100919
vt 0.089651 0.900000
vt 0.315263 0.084706
vt 0.083911 0.900000
vt 0.312212 0.078841
vt 0.078170 0.900000
vt 0.308375 0.073387
vt 0.101131 0.900000
vt 0.315352 0.097373
vt 0.118352 0.900000
vt 0.072430 0.900000
vt 0.307076 0.114276
vt 0.306074 0.067298
vt 0.106872 0.900000
vt 0.312509 0.103099
vt 0.112612 0.900000
vt 0.309011 0.108419
vt 0.032248 0.100000
vt 0.371581 0.218849
vt 0.365163 0.206269
vt 0.365310 0.211336
vt 0.365023 0.201737
vt 0.364860 0.197178
vt 0.364698 0.191986
vt 0.192975 0.572500
vt 0.351733 0.195921
vt 0.072430 0.150000
vt 0.026508 0.150000
vt 0.366946 0.255259
vt 0.368477 0.207424
vt 0.066690 0.150000
vt 0.370880 0.214619
vt 0.175000 2.962500
vt 0.175000 -1.962500
vt 0.825000 2.962500
vt 0.825000 -1.962500
vt 0.175000 2.962500
vt 0.175000 -1.962500
vt 0.825000 2.962500
vt 0.825000 -1.962500
vt 0.055209 0.150000
vt 0.377152 0.227378
vt 0.147053 0.572500
vt 0.351999 0.239012
vt 0.152794 0.572500
vt 0.354578 0.244305
vt 0.158534 0.572500
vt 0.357743 0.249344
vt 0.141313 0.572500
vt 0.350821 0.233257
vt 0.129833 0.572500
vt 0.353486 0.221425
vt 0.124092 0.572500
vt 0.356600 0.215067
vt 0.089651 0.850000
vt 0.158205 0.132087
vt 0.083911 0.850000
vt 0.155330 0.126590
vt 0.078170 0.850000
vt 0.151752 0.121371
vt 0.101131 0.850000
vt 0.158423 0.144818
vt 0.106872 0.850000
vt 0.155461 0.150838
vt 0.152794 0.100000
vt 0.136348 0.126447
vt 0.158534 0.100000
vt 0.139871 0.121338
vt 0.141313 0.100000
vt 0.132071 0.137834
vt 0.135573 0.100000
vt 0.132543 0.144023
vt 0.118352 0.100000
vt 0.164274 0.100000
vt 0.140625 0.162704
vt 0.141915 0.115625
vt 0.129833 0.100000
vt 0.134700 0.150389
vt 0.124092 0.100000
vt 0.138497 0.156307
vt 0.095391 0.850000
vt 0.159589 0.138246
vt 0.118352 0.850000
vt 0.072430 0.850000
vt 0.149350 0.162799
vt 0.149715 0.115625
vt 0.112612 0.850000
vt 0.151620 0.156495
vt 0.145668 0.133893
vt 0.145732 0.128868
vt 0.145585 0.138410
vt 0.145455 0.142986
vt 0.145277 0.148269
vt 0.147053 0.100000
vt 0.133471 0.131867
vt 0.135573 0.572500
vt 0.351380 0.227292
vt 0.118352 0.572500
vt 0.164274 0.572500
vt 0.359421 0.254906
vt 0.358246 0.207424
vt 0.363871 0.237455
vt 0.363722 0.242358
vt 0.363949 0.233015
vt 0.363978 0.228480
vt 0.363946 0.223188
vt 0.043729 0.150000
vt 0.375950 0.239860
vt 0.040000 0.651875
vt 0.497500 0.040000
vt 0.040000 0.666875
vt 0.497500 0.040000
vt 0.055000 0.651875
vt 0.497500 0.055000
vt 0.055000 0.666875
vt 0.497500 0.055000
vt 0.040000 0.651875
vt 0.502500 0.040000
vt 0.040000 0.666875
vt 0.502500 0.040000
vt 0.055000 0.651875
vt 0.502500 0.055000
vt 0.055000 0.666875
vt 0.502500 0.055000
vt -0.055000 0.651874
vt 0.497500 -0.055000
vt -0.055000 0.666874
vt 0.497500 -0.055000
vt -0.040000 0.651875
vt 0.497500 -0.040000
vt -0.040000 0.666874
vt 0.497500 -0.040000
vt -0.055000 0.651875
vt 0.502500 -0.055000
vt -0.055000 0.666874
vt 0.502500 -0.055000
vt -0.040000 0.651875
vt 0.502500 -0.040000
vt -0.040000 0.666874
vt 0.502500 -0.040000
vt 0.040000 0.351878
vt 0.497501 0.040000
vt 0.040000 0.366878
vt 0.497501 0.040000
vt 0.055000 0.351879
vt 0.497501 0.055000
vt 0.055000 0.366879
vt 0.497501 0.055000
vt 0.040001 0.351883
vt 0.502501 0.040000
vt 0.040001 0.366882
vt 0.502501 0.040000
vt 0.055001 0.351883
vt 0.502501 0.055000
vt 0.055001 0.366882
vt 0.502501 0.055000
vt -0.055000 0.351880
vt 0.497501 -0.055000
vt -0.055000 0.366879
vt 0.497501 -0.055000
vt -0.040000 0.351880
vt 0.497501 -0.040000
vt -0.040000 0.366879
vt 0.497501 -0.040000
vt -0.054999 0.351880
vt 0.502501 -0.055000
vt -0.054999 0.366879
vt 0.502501 -0.055000
vt -0.039999 0.351880
vt 0.502501 -0.040000
vt -0.039999 0.366879
vt 0.502501 -0.040000
s 1
usemtl metal_hr_2
f 10/21/1 3/5/2 4/7/3 57/105/4
f 57/105/4 4/7/3 6/13/5 11/23/6
f 5/9/7 47/91/8 48/95/9 7/15/10
f 7/15/10 48/95/9 11/23/6 6/13/5
f 3/5/2 10/21/1 92/171/11 1/1/12
f 1/1/12 92/171/11 8/17/13 2/3/14
f 47/92/8 5/10/7 40/82/15 9/19/16
f 9/19/16 40/82/15 2/3/14 8/17/13
f 26/57/17 27/59/18 18/39/19 17/37/20
f 23/49/21 22/47/22 13/27/23 14/29/24
f 22/47/22 21/45/25 12/25/26 13/27/23
f 24/51/27 26/57/17 17/37/20 46/89/28
f 21/45/25 20/43/29 15/31/30 12/25/26
f 27/59/18 25/53/31 16/33/32 18/39/19
f 25/54/31 23/49/21 14/29/24 16/34/32
f 20/43/29 24/51/27 46/89/28 15/31/30
f 19/41/33 76/145/34 67/125/35 36/72/36
f 36/72/36 67/125/35 68/127/37 38/78/38
f 77/147/39 37/74/40 39/80/41 78/151/42
f 78/151/42 39/80/41 38/78/38 68/127/37
f 76/145/34 19/41/33 33/66/43 64/119/44
f 64/119/44 33/66/43 34/68/45 65/121/46
f 37/75/40 77/148/39 66/123/47 35/70/48
f 35/70/48 66/123/47 65/121/46 34/68/45
f 21/46/25 28/61/49 30/63/50 20/44/29
f 24/52/27 31/64/51 32/65/52 26/58/17
f 29/62/53 35/71/48 34/69/45
f 29/62/53 34/69/45 33/67/43 28/61/49
f 39/81/41 27/60/18 32/65/52
f 30/63/50 31/64/51 24/52/27 20/44/29
f 26/58/17 32/65/52 27/60/18
f 30/63/50 19/42/33 36/73/36 31/64/51
f 31/64/51 36/73/36 38/79/38 32/65/52
f 28/61/49 33/67/43 19/42/33 30/63/50
f 32/65/52 38/79/38 39/81/41
f 27/60/18 39/81/41 37/76/40 25/55/31
f 41/84/54 43/86/55 3/6/2 1/2/12
f 42/85/56 2/4/14 40/83/15
f 44/87/57 45/88/58 6/14/5 4/8/3
f 42/85/56 13/28/23 12/26/26 41/84/54
f 45/88/58 18/40/19 7/16/10
f 43/86/55 44/87/57 4/8/3 3/6/2
f 43/86/55 15/32/30 46/90/28 44/87/57
f 44/87/57 46/90/28 17/38/20 45/88/58
f 41/84/54 12/26/26 15/32/30 43/86/55
f 45/88/58 7/16/10 6/14/5
f 7/16/10 18/40/19 16/35/32 5/11/7
f 22/48/22 29/62/53 28/61/49 21/46/25
f 42/85/56 41/84/54 1/2/12 2/4/14
f 72/135/61 71/133/62 61/113/63 85/160/64
f 73/137/65 75/143/66 63/117/67 86/162/68
f 74/141/69 72/135/61 85/160/64 62/115/70
f 70/131/71 73/138/65 86/163/68 60/111/72
f 69/129/73 70/131/71 60/111/72 59/109/74
f 71/133/62 84/158/75 58/107/76 61/113/63
f 75/143/66 74/141/69 62/115/70 63/117/67
f 84/158/75 69/129/73 59/109/74 58/107/76
f 79/153/77 81/155/78 76/146/34 64/120/44
f 82/156/79 83/157/80 68/128/37 67/126/35
f 80/154/81 69/130/73 84/159/75 79/153/77
f 83/157/80 75/144/66 78/152/42
f 76/146/34 81/155/78 82/156/79 67/126/35
f 83/157/80 78/152/42 68/128/37
f 81/155/78 71/134/62 72/136/61 82/156/79
f 82/156/79 72/136/61 74/142/69 83/157/80
f 79/153/77 84/159/75 71/134/62 81/155/78
f 86/164/68 47/93/8 9/20/16 60/112/72
f 78/152/42 75/144/66 73/139/65 77/149/39
f 87/166/82 89/168/83 61/114/63 58/108/76
f 85/161/64 90/169/84 91/170/85 62/116/70
f 88/167/86 8/18/13 92/172/11 87/166/82
f 48/96/9 63/118/67 91/170/85
f 89/168/83 90/169/84 85/161/64 61/114/63
f 91/170/85 63/118/67 62/116/70
f 89/168/83 10/22/1 57/106/4 90/169/84
f 90/169/84 57/106/4 11/24/6 91/170/85
f 87/166/82 92/172/11 10/22/1 89/168/83
f 91/170/85 11/24/6 48/96/9
f 80/154/81 79/153/77 64/120/44 65/122/46
f 63/118/67 48/96/9 47/94/8 86/165/68
f 88/167/86 87/166/82 58/108/76 59/110/74
s 0
f 93/173/60 94/175/60 96/179/60 95/177/60
f 99/185/59 100/187/59 98/183/59 97/181/59
f 95/178/87 99/186/87 97/182/87 93/174/87
f 100/188/88 96/180/88 94/176/88 98/184/88
f 101/189/60 102/191/60 104/195/60 103/193/60
f 107/201/59 108/203/59 106/199/59 105/197/59
f 103/194/87 107/202/87 105/198/87 101/190/87
f 108/204/88 104/196/88 102/192/88 106/200/88
f 109/205/60 110/207/60 112/211/60 111/209/60
f 115/217/59 116/219/59 114/215/59 113/213/59
f 111/210/87 115/218/87 113/214/87 109/206/87
f 116/220/88 112/212/88 110/208/88 114/216/88
f 117/221/60 118/223/60 120/227/60 119/225/60
f 123/233/59 124/235/59 122/231/59 121/229/59
f 119/226/87 123/234/87 121/230/87 117/222/87
f 124/236/88 120/228/88 118/224/88 122/232/88
s 1
f 77/150/39 73/140/65 70/132/71 66/124/47
f 5/12/7 16/36/32 14/30/24 40/83/15
f 23/50/21 29/62/53 22/48/22
f 29/62/53 23/50/21 35/71/48
f 70/132/71 80/154/81 66/124/47
f 75/144/66 83/157/80 74/142/69
f 66/124/47 80/154/81 65/122/46
f 70/132/71 69/130/73 80/154/81
f 60/112/72 88/167/86 59/110/74
f 9/20/16 8/18/13 88/167/86
f 60/112/72 9/20/16 88/167/86
f 40/83/15 14/30/24 42/85/56
f 18/40/19 45/88/58 17/38/20
f 13/28/23 42/85/56 14/30/24
f 25/56/31 37/77/40 35/71/48 23/50/21
s 0
usemtl grate_hm_1
f 49/97/59 50/98/59 52/100/59 51/99/59
f 53/101/60 55/103/60 56/104/60 54/102/60
