# Blender 3.4.0
# www.blender.org
mtllib drain_cover_2.mtl
o drain_cover_2
v 0.249441 -0.000000 -0.166671
v 0.166671 -0.000000 -0.249441
v -0.188895 0.002500 0.188895
v 0.246803 0.002500 -0.102229
v 0.188895 0.002500 -0.188895
v 0.212132 -0.000000 -0.212132
v 0.196261 0.009151 -0.196261
v 0.204766 0.009151 -0.204766
v 0.222117 0.002500 -0.148414
v 0.230778 0.009151 -0.154201
v 0.240780 0.009151 -0.160884
v -0.222117 0.002500 0.148414
v -0.249441 -0.000000 0.166671
v -0.230778 0.009151 0.154201
v -0.240780 0.009151 0.160884
v -0.246803 0.002500 0.102229
v -0.277164 -0.000000 0.114805
v -0.256427 0.009151 0.106216
v -0.267540 0.009151 0.110819
v 0.148414 0.002500 -0.222117
v 0.154201 0.009151 -0.230778
v 0.160884 0.009151 -0.240780
v -0.212132 -0.000000 0.212132
v -0.196261 0.009151 0.196261
v -0.204766 0.009151 0.204766
v 0.102229 0.002500 -0.246803
v 0.114805 -0.000000 -0.277164
v 0.106216 0.009151 -0.256427
v 0.110819 0.009151 -0.267540
v -0.148414 0.002500 0.222117
v -0.166671 -0.000000 0.249441
v -0.154201 0.009151 0.230778
v -0.160884 0.009151 0.240780
v 0.052116 0.002500 -0.262005
v 0.058527 -0.000000 -0.294236
v 0.054148 0.009151 -0.272222
v 0.056495 0.009151 -0.284019
v -0.102229 0.002500 0.246803
v -0.114805 -0.000000 0.277164
v -0.106216 0.009151 0.256427
v -0.110819 0.009151 0.267540
v 0.267138 0.002500 -0.000000
v 0.300000 -0.000000 -0.000000
v 0.277555 0.009151 -0.000000
v 0.289583 0.009151 -0.000000
v -0.000000 0.002500 -0.267138
v 0.000000 -0.000000 -0.300000
v -0.000000 0.009151 -0.277555
v -0.000000 0.009151 -0.289583
v -0.052116 0.002500 0.262005
v -0.058527 -0.000000 0.294236
v -0.054148 0.009151 0.272222
v -0.056495 0.009151 0.284019
v -0.262005 0.002500 -0.052116
v -0.294236 -0.000000 -0.058527
v -0.272222 0.009151 -0.054148
v -0.284019 0.009151 -0.056495
v 0.277164 -0.000000 -0.114805
v 0.256427 0.009151 -0.106216
v 0.267540 0.009151 -0.110819
v -0.262005 0.002500 0.052116
v -0.294236 -0.000000 0.058527
v -0.272222 0.009151 0.054148
v -0.284019 0.009151 0.056495
v 0.294236 -0.000000 0.058527
v 0.262005 0.002500 0.052116
v 0.284019 0.009151 0.056495
v 0.272222 0.009151 0.054148
v 0.277164 -0.000000 0.114805
v 0.246803 0.002500 0.102229
v 0.267540 0.009151 0.110819
v 0.256427 0.009151 0.106216
v 0.249441 -0.000000 0.166671
v 0.222117 0.002500 0.148414
v 0.240780 0.009151 0.160884
v 0.230778 0.009151 0.154201
v 0.212132 -0.000000 0.212132
v 0.188895 0.002500 0.188895
v 0.204766 0.009151 0.204766
v 0.196261 0.009151 0.196261
v 0.166671 -0.000000 0.249441
v 0.148414 0.002500 0.222117
v 0.160884 0.009151 0.240780
v 0.154201 0.009151 0.230778
v 0.114805 -0.000000 0.277164
v 0.102229 0.002500 0.246803
v 0.110819 0.009151 0.267540
v 0.106216 0.009151 0.256427
v 0.058527 -0.000000 0.294236
v 0.052116 0.002500 0.262005
v 0.056495 0.009151 0.284019
v 0.054148 0.009151 0.272222
v 0.000000 -0.000000 0.300000
v -0.000000 0.002500 0.267138
v -0.000000 0.009151 0.289583
v -0.000000 0.009151 0.277555
v -0.300000 -0.000000 -0.000000
v -0.267138 0.002500 -0.000000
v -0.289583 0.009151 -0.000000
v -0.277555 0.009151 -0.000000
v -0.277164 -0.000000 -0.114805
v -0.246803 0.002500 -0.102229
v -0.267540 0.009151 -0.110819
v -0.256427 0.009151 -0.106216
v -0.249441 -0.000000 -0.166671
v -0.222117 0.002500 -0.148414
v -0.240780 0.009151 -0.160884
v -0.230778 0.009151 -0.154201
v -0.212132 -0.000000 -0.212132
v -0.188895 0.002500 -0.188895
v -0.204766 0.009151 -0.204766
v -0.196261 0.009151 -0.196261
v -0.166671 -0.000000 -0.249441
v -0.148414 0.002500 -0.222117
v -0.160884 0.009151 -0.240780
v -0.154201 0.009151 -0.230778
v -0.114805 -0.000000 -0.277164
v -0.102229 0.002500 -0.246803
v -0.110819 0.009151 -0.267540
v -0.106216 0.009151 -0.256427
v -0.058527 -0.000000 -0.294236
v -0.052116 0.002500 -0.262005
v -0.056495 0.009151 -0.284019
v -0.054148 0.009151 -0.272222
v 0.294236 -0.000000 -0.058527
v 0.262005 0.002500 -0.052116
v 0.284019 0.009151 -0.056495
v 0.272222 0.009151 -0.054148
vn -0.0000 1.0000 -0.0000
vn -0.5278 0.8429 0.1050
vn -0.5381 0.8429 -0.0000
vn -0.2640 0.9645 -0.0000
vn -0.2589 0.9645 0.0515
vn 0.3716 0.9284 -0.0000
vn 0.3645 0.9284 -0.0725
vn 0.6600 0.7513 -0.0000
vn 0.6473 0.7513 -0.1288
vn 0.1050 0.8429 0.5278
vn -0.0000 0.8429 0.5381
vn -0.0000 0.9645 0.2640
vn 0.0515 0.9645 0.2589
vn -0.0000 0.9284 -0.3716
vn -0.0725 0.9284 -0.3645
vn -0.0000 0.7513 -0.6600
vn -0.1288 0.7513 -0.6473
vn 0.5381 0.8429 -0.0000
vn 0.5278 0.8429 0.1050
vn 0.2589 0.9645 0.0515
vn 0.2640 0.9645 -0.0000
vn -0.3645 0.9284 -0.0725
vn -0.3716 0.9284 -0.0000
vn -0.6473 0.7513 -0.1288
vn -0.6600 0.7513 -0.0000
vn -0.0000 0.8429 -0.5381
vn 0.1050 0.8429 -0.5278
vn 0.0515 0.9645 -0.2589
vn -0.0000 0.9645 -0.2640
vn -0.0725 0.9284 0.3645
vn -0.0000 0.9284 0.3716
vn -0.1288 0.7513 0.6473
vn -0.0000 0.7513 0.6600
vn -0.1050 0.8429 0.5278
vn -0.0515 0.9645 0.2589
vn 0.0725 0.9284 -0.3645
vn 0.1288 0.7513 -0.6473
vn -0.2059 0.8429 0.4972
vn -0.1010 0.9645 0.2439
vn 0.1422 0.9284 -0.3433
vn 0.2526 0.7513 -0.6097
vn -0.2990 0.8429 0.4474
vn -0.1467 0.9645 0.2195
vn 0.2065 0.9284 -0.3090
vn 0.3667 0.7513 -0.5487
vn -0.3805 0.8429 0.3805
vn -0.1867 0.9645 0.1867
vn 0.2628 0.9284 -0.2628
vn 0.4667 0.7513 -0.4667
vn -0.4474 0.8429 0.2990
vn -0.2195 0.9645 0.1467
vn 0.3090 0.9284 -0.2065
vn 0.5487 0.7513 -0.3667
vn -0.4972 0.8429 0.2059
vn -0.2439 0.9645 0.1010
vn 0.3433 0.9284 -0.1422
vn 0.6097 0.7513 -0.2526
vn -0.2526 0.7513 -0.6097
vn -0.1422 0.9284 -0.3433
vn 0.1010 0.9645 0.2439
vn 0.2059 0.8429 0.4972
vn -0.3667 0.7513 -0.5487
vn -0.2065 0.9284 -0.3090
vn 0.1467 0.9645 0.2195
vn 0.2990 0.8429 0.4474
vn -0.4667 0.7513 -0.4667
vn -0.2628 0.9284 -0.2628
vn 0.1867 0.9645 0.1867
vn 0.3805 0.8429 0.3805
vn -0.5487 0.7513 -0.3667
vn -0.3090 0.9284 -0.2065
vn 0.2195 0.9645 0.1467
vn 0.4474 0.8429 0.2990
vn -0.6097 0.7513 -0.2526
vn -0.3433 0.9284 -0.1422
vn 0.2439 0.9645 0.1010
vn 0.4972 0.8429 0.2059
vn 0.2059 0.8429 -0.4972
vn 0.1010 0.9645 -0.2439
vn -0.1422 0.9284 0.3433
vn -0.2526 0.7513 0.6097
vn 0.2990 0.8429 -0.4474
vn 0.1467 0.9645 -0.2195
vn -0.2065 0.9284 0.3090
vn -0.3667 0.7513 0.5487
vn 0.3805 0.8429 -0.3805
vn 0.1867 0.9645 -0.1867
vn -0.2628 0.9284 0.2628
vn -0.4667 0.7513 0.4667
vn 0.4474 0.8429 -0.2990
vn 0.2195 0.9645 -0.1467
vn -0.3090 0.9284 0.2065
vn -0.5487 0.7513 0.3667
vn 0.4972 0.8429 -0.2059
vn 0.2439 0.9645 -0.1010
vn -0.3433 0.9284 0.1422
vn -0.6097 0.7513 0.2526
vn 0.5278 0.8429 -0.1050
vn 0.2589 0.9645 -0.0515
vn -0.3645 0.9284 0.0725
vn -0.6473 0.7513 0.1288
vn 0.1288 0.7513 0.6473
vn 0.0725 0.9284 0.3645
vn -0.0515 0.9645 -0.2589
vn -0.1050 0.8429 -0.5278
vn 0.2526 0.7513 0.6097
vn 0.1422 0.9284 0.3433
vn -0.1010 0.9645 -0.2439
vn -0.2059 0.8429 -0.4972
vn 0.3667 0.7513 0.5487
vn 0.2065 0.9284 0.3090
vn -0.1467 0.9645 -0.2195
vn -0.2990 0.8429 -0.4474
vn 0.4667 0.7513 0.4667
vn 0.2628 0.9284 0.2628
vn -0.1867 0.9645 -0.1867
vn -0.3805 0.8429 -0.3805
vn 0.5487 0.7513 0.3667
vn 0.3090 0.9284 0.2065
vn -0.2195 0.9645 -0.1467
vn -0.4474 0.8429 -0.2990
vn 0.6097 0.7513 0.2526
vn 0.3433 0.9284 0.1422
vn -0.2439 0.9645 -0.1010
vn -0.4972 0.8429 -0.2059
vn 0.6473 0.7513 0.1288
vn 0.3645 0.9284 0.0725
vn -0.2589 0.9645 -0.0515
vn -0.5278 0.8429 -0.1050
vt 0.915734 0.777785
vt 0.777784 0.915734
vt 0.185174 0.185176
vt 0.911338 0.670381
vt 0.814824 0.814826
vt 0.853553 0.853555
vt 0.827101 0.827100
vt 0.841276 0.841277
vt 0.870194 0.747356
vt 0.884631 0.757002
vt 0.901299 0.768139
vt 0.129804 0.252645
vt 0.084264 0.222215
vt 0.115369 0.242998
vt 0.098701 0.231861
vt 0.088662 0.329619
vt 0.038061 0.308659
vt 0.072622 0.322974
vt 0.054101 0.315303
vt 0.747356 0.870195
vt 0.757002 0.884631
vt 0.768138 0.901299
vt 0.146446 0.146447
vt 0.172899 0.172900
vt 0.158723 0.158723
vt 0.670381 0.911338
vt 0.691341 0.961940
vt 0.677026 0.927377
vt 0.684698 0.945901
vt 0.252644 0.129805
vt 0.222215 0.084266
vt 0.242998 0.115369
vt 0.231860 0.098701
vt 0.586861 0.936674
vt 0.597544 0.990391
vt 0.590247 0.953702
vt 0.594157 0.973365
vt 0.329618 0.088662
vt 0.308658 0.038062
vt 0.322974 0.072623
vt 0.315302 0.054101
vt 0.945229 0.500001
vt 1.000000 0.500001
vt 0.962589 0.500001
vt 0.982638 0.500001
vt 0.499999 0.945229
vt 0.499999 1.000000
vt 0.499999 0.962591
vt 0.499999 0.982639
vt 0.413139 0.063326
vt 0.402455 0.009609
vt 0.409752 0.046298
vt 0.405843 0.026637
vt 0.063326 0.586861
vt 0.009608 0.597544
vt 0.046298 0.590248
vt 0.026636 0.594158
vt 0.961939 0.691343
vt 0.927378 0.677026
vt 0.945899 0.684699
vt 0.063326 0.413140
vt 0.009608 0.402456
vt 0.046298 0.409753
vt 0.026636 0.405842
vt 0.990391 0.402456
vt 0.936674 0.413140
vt 0.973363 0.405842
vt 0.953702 0.409753
vt 0.961939 0.308659
vt 0.911338 0.329619
vt 0.945899 0.315303
vt 0.927378 0.322974
vt 0.915734 0.222215
vt 0.870194 0.252645
vt 0.901299 0.231861
vt 0.884631 0.242998
vt 0.853553 0.146447
vt 0.814824 0.185176
vt 0.841276 0.158723
vt 0.827101 0.172900
vt 0.777784 0.084266
vt 0.747356 0.129805
vt 0.768138 0.098701
vt 0.757002 0.115369
vt 0.691341 0.038062
vt 0.670381 0.088662
vt 0.684698 0.054101
vt 0.677026 0.072623
vt 0.597544 0.009609
vt 0.586861 0.063326
vt 0.594157 0.026637
vt 0.590247 0.046298
vt 0.499999 0.000000
vt 0.499999 0.054771
vt 0.499999 0.017363
vt 0.499999 0.037410
vt 0.000000 0.500001
vt 0.054771 0.500001
vt 0.017361 0.500001
vt 0.037409 0.500001
vt 0.038061 0.691343
vt 0.088662 0.670381
vt 0.054101 0.684699
vt 0.072622 0.677026
vt 0.084264 0.777785
vt 0.129804 0.747356
vt 0.098701 0.768139
vt 0.115369 0.757002
vt 0.146446 0.853555
vt 0.185174 0.814826
vt 0.158723 0.841277
vt 0.172899 0.827100
vt 0.222215 0.915734
vt 0.252644 0.870195
vt 0.231860 0.901299
vt 0.242998 0.884631
vt 0.308658 0.961940
vt 0.329618 0.911338
vt 0.315302 0.945901
vt 0.322974 0.927377
vt 0.402455 0.990391
vt 0.413139 0.936674
vt 0.405843 0.973365
vt 0.409752 0.953702
vt 0.990391 0.597544
vt 0.936674 0.586861
vt 0.973363 0.594158
vt 0.953702 0.590248
s 1
usemtl drain_cover_2
f 46/46/1 94/94/1 90/90/1 34/34/1
f 126/126/2 42/42/3 44/44/4 128/128/5
f 128/128/5 44/44/4 45/45/6 127/127/7
f 127/127/7 45/45/6 43/43/8 125/125/9
f 122/122/10 46/46/11 48/48/12 124/124/13
f 124/124/13 48/48/12 49/49/14 123/123/15
f 123/123/15 49/49/14 47/47/16 121/121/17
f 98/98/18 54/54/19 56/56/20 100/100/21
f 100/100/21 56/56/20 57/57/22 99/99/23
f 99/99/23 57/57/22 55/55/24 97/97/25
f 94/94/26 50/50/27 52/52/28 96/96/29
f 96/96/29 52/52/28 53/53/30 95/95/31
f 95/95/31 53/53/30 51/51/32 93/93/33
f 46/46/11 34/34/34 36/36/35 48/48/12
f 48/48/12 36/36/35 37/37/36 49/49/14
f 49/49/14 37/37/36 35/35/37 47/47/16
f 34/34/34 26/26/38 28/28/39 36/36/35
f 36/36/35 28/28/39 29/29/40 37/37/36
f 37/37/36 29/29/40 27/27/41 35/35/37
f 26/26/38 20/20/42 21/21/43 28/28/39
f 28/28/39 21/21/43 22/22/44 29/29/40
f 29/29/40 22/22/44 2/2/45 27/27/41
f 20/20/42 5/5/46 7/7/47 21/21/43
f 21/21/43 7/7/47 8/8/48 22/22/44
f 22/22/44 8/8/48 6/6/49 2/2/45
f 5/5/46 9/9/50 10/10/51 7/7/47
f 7/7/47 10/10/51 11/11/52 8/8/48
f 8/8/48 11/11/52 1/1/53 6/6/49
f 9/9/50 4/4/54 59/59/55 10/10/51
f 10/10/51 59/59/55 60/60/56 11/11/52
f 11/11/52 60/60/56 58/58/57 1/1/53
f 125/125/9 58/58/57 60/60/56 127/127/7
f 127/127/7 60/60/56 59/59/55 128/128/5
f 128/128/5 59/59/55 4/4/54 126/126/2
f 121/121/17 117/117/58 119/119/59 123/123/15
f 123/123/15 119/119/59 120/120/60 124/124/13
f 124/124/13 120/120/60 118/118/61 122/122/10
f 117/117/58 113/113/62 115/115/63 119/119/59
f 119/119/59 115/115/63 116/116/64 120/120/60
f 120/120/60 116/116/64 114/114/65 118/118/61
f 113/113/62 109/109/66 111/111/67 115/115/63
f 115/115/63 111/111/67 112/112/68 116/116/64
f 116/116/64 112/112/68 110/110/69 114/114/65
f 109/109/66 105/105/70 107/107/71 111/111/67
f 111/111/67 107/107/71 108/108/72 112/112/68
f 112/112/68 108/108/72 106/106/73 110/110/69
f 105/105/70 101/101/74 103/103/75 107/107/71
f 107/107/71 103/103/75 104/104/76 108/108/72
f 108/108/72 104/104/76 102/102/77 106/106/73
f 101/101/74 55/55/24 57/57/22 103/103/75
f 103/103/75 57/57/22 56/56/20 104/104/76
f 104/104/76 56/56/20 54/54/19 102/102/77
f 50/50/27 38/38/78 40/40/79 52/52/28
f 52/52/28 40/40/79 41/41/80 53/53/30
f 53/53/30 41/41/80 39/39/81 51/51/32
f 38/38/78 30/30/82 32/32/83 40/40/79
f 40/40/79 32/32/83 33/33/84 41/41/80
f 41/41/80 33/33/84 31/31/85 39/39/81
f 30/30/82 3/3/86 24/24/87 32/32/83
f 32/32/83 24/24/87 25/25/88 33/33/84
f 33/33/84 25/25/88 23/23/89 31/31/85
f 3/3/86 12/12/90 14/14/91 24/24/87
f 24/24/87 14/14/91 15/15/92 25/25/88
f 25/25/88 15/15/92 13/13/93 23/23/89
f 12/12/90 16/16/94 18/18/95 14/14/91
f 14/14/91 18/18/95 19/19/96 15/15/92
f 15/15/92 19/19/96 17/17/97 13/13/93
f 16/16/94 61/61/98 63/63/99 18/18/95
f 18/18/95 63/63/99 64/64/100 19/19/96
f 19/19/96 64/64/100 62/62/101 17/17/97
f 97/97/25 62/62/101 64/64/100 99/99/23
f 99/99/23 64/64/100 63/63/99 100/100/21
f 100/100/21 63/63/99 61/61/98 98/98/18
f 93/93/33 89/89/102 91/91/103 95/95/31
f 95/95/31 91/91/103 92/92/104 96/96/29
f 96/96/29 92/92/104 90/90/105 94/94/26
f 89/89/102 85/85/106 87/87/107 91/91/103
f 91/91/103 87/87/107 88/88/108 92/92/104
f 92/92/104 88/88/108 86/86/109 90/90/105
f 85/85/106 81/81/110 83/83/111 87/87/107
f 87/87/107 83/83/111 84/84/112 88/88/108
f 88/88/108 84/84/112 82/82/113 86/86/109
f 81/81/110 77/77/114 79/79/115 83/83/111
f 83/83/111 79/79/115 80/80/116 84/84/112
f 84/84/112 80/80/116 78/78/117 82/82/113
f 77/77/114 73/73/118 75/75/119 79/79/115
f 79/79/115 75/75/119 76/76/120 80/80/116
f 80/80/116 76/76/120 74/74/121 78/78/117
f 73/73/118 69/69/122 71/71/123 75/75/119
f 75/75/119 71/71/123 72/72/124 76/76/120
f 76/76/120 72/72/124 70/70/125 74/74/121
f 69/69/122 65/65/126 67/67/127 71/71/123
f 71/71/123 67/67/127 68/68/128 72/72/124
f 72/72/124 68/68/128 66/66/129 70/70/125
f 65/65/126 43/43/8 45/45/6 67/67/127
f 67/67/127 45/45/6 44/44/4 68/68/128
f 68/68/128 44/44/4 42/42/3 66/66/129
f 34/34/1 90/90/1 86/86/1 26/26/1
f 26/26/1 86/86/1 82/82/1 20/20/1
f 20/20/1 82/82/1 78/78/1 5/5/1
f 5/5/1 78/78/1 74/74/1 9/9/1
f 9/9/1 74/74/1 70/70/1 4/4/1
f 4/4/1 70/70/1 66/66/1 126/126/1
f 126/126/1 66/66/1 42/42/1
f 94/94/1 46/46/1 122/122/1 50/50/1
f 50/50/1 122/122/1 118/118/1 38/38/1
f 38/38/1 118/118/1 114/114/1 30/30/1
f 30/30/1 114/114/1 110/110/1 3/3/1
f 3/3/1 110/110/1 106/106/1 12/12/1
f 12/12/1 106/106/1 102/102/1 16/16/1
f 16/16/1 102/102/1 54/54/1 61/61/1
f 61/61/1 54/54/1 98/98/1
