# Blender 3.4.0
# www.blender.org
mtllib drain_cover_3.mtl
o drain_cover_3
v -0.000000 0.020000 -0.109223
v -0.028269 0.020000 -0.105502
v -0.054612 0.020000 -0.094590
v -0.077233 0.020000 -0.077233
v -0.094590 0.020000 -0.054612
v -0.105502 0.020000 -0.028269
v -0.109223 0.020000 0.000000
v -0.000000 0.020000 0.109223
v -0.105502 0.020000 0.028269
v -0.094590 0.020000 0.054612
v -0.077233 0.020000 0.077233
v -0.054612 0.020000 0.094590
v -0.028269 0.020000 0.105502
v 0.105502 0.020000 -0.028269
v 0.094590 0.020000 -0.054612
v 0.077233 0.020000 -0.077233
v 0.054612 0.020000 -0.094590
v 0.028269 0.020000 -0.105502
v 0.109223 0.020000 0.000000
v 0.028269 0.020000 0.105502
v 0.054612 0.020000 0.094590
v 0.077233 0.020000 0.077233
v 0.094590 0.020000 0.054612
v 0.105502 0.020000 0.028269
v 0.051764 -0.000000 0.193185
v 0.000000 -0.000000 0.200000
v -0.200000 0.000000 0.000000
v -0.193185 0.000000 -0.051764
v -0.000000 0.000000 -0.200000
v 0.051764 0.000000 -0.193185
v 0.193185 0.000000 -0.051764
v 0.200000 0.000000 0.000000
v 0.193185 0.000000 0.051764
v 0.173205 -0.000000 0.100000
v 0.141421 -0.000000 0.141421
v 0.100000 -0.000000 0.173205
v -0.193185 0.000000 0.051764
v -0.173205 0.000000 0.100000
v -0.141421 -0.000000 0.141421
v -0.100000 -0.000000 0.173205
v -0.051764 -0.000000 0.193185
v -0.173205 0.000000 -0.100000
v -0.141421 0.000000 -0.141421
v -0.100000 0.000000 -0.173205
v -0.051764 0.000000 -0.193185
v 0.173205 0.000000 -0.100000
v 0.141421 0.000000 -0.141421
v 0.100000 0.000000 -0.173205
v 0.028269 0.010000 0.105502
v 0.023048 0.030000 0.086016
v 0.027570 0.020000 0.102891
v 0.025659 0.027320 0.095759
v -0.000000 0.030000 0.089051
v -0.000000 0.010000 0.109223
v -0.000000 0.027321 0.099137
v -0.000000 0.020000 0.106521
v -0.109223 0.010000 -0.000000
v -0.089051 0.030000 0.000000
v -0.106521 0.020000 -0.000000
v -0.099137 0.027320 0.000000
v -0.086016 0.030000 -0.023048
v -0.105502 0.010000 -0.028269
v -0.095759 0.027321 -0.025659
v -0.102891 0.020000 -0.027570
v -0.000000 0.010000 -0.109223
v -0.000000 0.030000 -0.089051
v -0.000000 0.020000 -0.106521
v -0.000000 0.027321 -0.099137
v 0.023048 0.030000 -0.086016
v 0.028269 0.010000 -0.105502
v 0.025659 0.027321 -0.095759
v 0.027570 0.020000 -0.102891
v 0.105502 0.010000 -0.028269
v 0.086016 0.030000 -0.023048
v 0.102891 0.020000 -0.027570
v 0.095759 0.027321 -0.025659
v 0.089051 0.030000 0.000000
v 0.109223 0.010000 -0.000000
v 0.099137 0.027321 0.000000
v 0.106521 0.020000 0.000000
v 0.086016 0.030000 0.023048
v 0.105502 0.010000 0.028269
v 0.095759 0.027320 0.025659
v 0.102891 0.020000 0.027570
v 0.077120 0.030000 0.044525
v 0.094590 0.010000 0.054612
v 0.085855 0.027321 0.049569
v 0.092250 0.020000 0.053260
v 0.062968 0.030000 0.062968
v 0.077233 0.010000 0.077233
v 0.070101 0.027320 0.070101
v 0.075322 0.020000 0.075322
v 0.044525 0.030000 0.077120
v 0.054612 0.010000 0.094590
v 0.049569 0.027321 0.085855
v 0.053260 0.020000 0.092250
v -0.105502 0.010000 0.028269
v -0.086016 0.030000 0.023048
v -0.102891 0.020000 0.027570
v -0.095759 0.027321 0.025659
v -0.094590 0.010000 0.054612
v -0.077120 0.030000 0.044525
v -0.092250 0.020000 0.053260
v -0.085855 0.027320 0.049569
v -0.077233 0.010000 0.077233
v -0.062968 0.030000 0.062968
v -0.075322 0.020000 0.075322
v -0.070101 0.027321 0.070101
v -0.054612 0.010000 0.094590
v -0.044525 0.030000 0.077120
v -0.053260 0.020000 0.092250
v -0.049569 0.027321 0.085855
v -0.028269 0.010000 0.105502
v -0.023048 0.030000 0.086016
v -0.027570 0.020000 0.102891
v -0.025659 0.027321 0.095759
v -0.077120 0.030000 -0.044525
v -0.094590 0.010000 -0.054612
v -0.085855 0.027321 -0.049569
v -0.092250 0.020000 -0.053260
v -0.062968 0.030000 -0.062968
v -0.077233 0.010000 -0.077233
v -0.070101 0.027321 -0.070101
v -0.075322 0.020000 -0.075322
v -0.044525 0.030000 -0.077120
v -0.054612 0.010000 -0.094590
v -0.049569 0.027321 -0.085855
v -0.053260 0.020000 -0.092250
v -0.023048 0.030000 -0.086016
v -0.028269 0.010000 -0.105502
v -0.025659 0.027321 -0.095759
v -0.027570 0.020000 -0.102891
v 0.094590 0.010000 -0.054612
v 0.077120 0.030000 -0.044525
v 0.092250 0.020000 -0.053260
v 0.085855 0.027321 -0.049569
v 0.077233 0.010000 -0.077233
v 0.062968 0.030000 -0.062968
v 0.075322 0.020000 -0.075322
v 0.070101 0.027321 -0.070101
v 0.054612 0.010000 -0.094590
v 0.044525 0.030000 -0.077120
v 0.053260 0.020000 -0.092250
v 0.049569 0.027320 -0.085855
vn 0.2588 -0.0000 -0.9659
vn -0.0000 -0.0000 -1.0000
vn 0.0557 0.9766 0.2078
vn -0.0000 0.9766 0.2152
vn -0.2152 0.9766 -0.0000
vn -0.2078 0.9766 -0.0557
vn -0.0000 0.9766 -0.2152
vn 0.0557 0.9766 -0.2078
vn 0.2078 0.9766 -0.0557
vn 0.2152 0.9766 -0.0000
vn 0.2078 0.9766 0.0557
vn 0.1863 0.9766 0.1076
vn 0.1521 0.9766 0.1521
vn 0.1076 0.9766 0.1863
vn -0.2078 0.9766 0.0557
vn -0.1863 0.9766 0.1076
vn -0.1521 0.9766 0.1521
vn -0.1076 0.9766 0.1863
vn -0.0557 0.9766 0.2078
vn -0.1863 0.9766 -0.1076
vn -0.1521 0.9766 -0.1521
vn -0.1076 0.9766 -0.1863
vn -0.0557 0.9766 -0.2078
vn 0.1863 0.9766 -0.1076
vn 0.1521 0.9766 -0.1521
vn 0.1076 0.9766 -0.1863
vn -0.2588 -0.0000 -0.9659
vn -0.5000 -0.0000 -0.8660
vn -1.0000 -0.0000 -0.0000
vn -0.9659 -0.0000 0.2588
vn 1.0000 -0.0000 -0.0000
vn 0.9659 -0.0000 -0.2588
vn 0.5000 -0.0000 0.8660
vn 0.7071 -0.0000 0.7071
vn 0.8660 -0.0000 0.5000
vn 0.9659 -0.0000 0.2588
vn -0.0000 -0.0000 1.0000
vn 0.2588 -0.0000 0.9659
vn 0.8660 -0.0000 -0.5000
vn 0.7071 -0.0000 -0.7071
vn -0.8660 -0.0000 0.5000
vn -0.7071 -0.0000 0.7071
vn 0.5000 -0.0000 -0.8660
vn -0.8660 -0.0000 -0.5000
vn -0.9659 -0.0000 -0.2588
vn -0.5000 -0.0000 0.8660
vn -0.2588 -0.0000 0.9659
vn -0.7071 -0.0000 -0.7071
vn -0.0000 0.9901 -0.1400
vn -0.0362 0.9901 -0.1353
vn -0.0362 0.9901 0.1353
vn -0.0000 0.9901 0.1400
vn 0.0362 0.9901 0.1353
vn -0.0000 0.8584 0.5130
vn 0.1328 0.8584 0.4956
vn -0.0000 0.4936 0.8697
vn 0.2251 0.4936 0.8400
vn -0.0000 0.2609 0.9654
vn 0.2499 0.2609 0.9325
vn -0.1401 0.9901 -0.0000
vn -0.1353 0.9901 -0.0362
vn -0.4956 0.8584 -0.1328
vn -0.5130 0.8584 -0.0000
vn -0.8400 0.4936 -0.2251
vn -0.8697 0.4936 -0.0000
vn -0.9325 0.2609 -0.2499
vn -0.9654 0.2609 -0.0000
vn 0.0362 0.9901 -0.1353
vn 0.1328 0.8584 -0.4956
vn -0.0000 0.8584 -0.5130
vn 0.2251 0.4936 -0.8400
vn -0.0000 0.4936 -0.8697
vn 0.2499 0.2609 -0.9325
vn -0.0000 0.2609 -0.9654
vn 0.1353 0.9901 -0.0362
vn 0.1400 0.9901 -0.0000
vn 0.5130 0.8584 -0.0000
vn 0.4956 0.8584 -0.1328
vn 0.8697 0.4936 -0.0000
vn 0.8400 0.4936 -0.2251
vn 0.9654 0.2609 -0.0000
vn 0.9325 0.2609 -0.2499
vn 0.1353 0.9901 0.0362
vn 0.4956 0.8584 0.1328
vn 0.8400 0.4936 0.2251
vn 0.9325 0.2609 0.2499
vn 0.1213 0.9901 0.0700
vn 0.4443 0.8584 0.2565
vn 0.7532 0.4936 0.4348
vn 0.8360 0.2609 0.4827
vn 0.0990 0.9901 0.0990
vn 0.3628 0.8584 0.3628
vn 0.6150 0.4936 0.6150
vn 0.6826 0.2609 0.6826
vn 0.0700 0.9901 0.1213
vn 0.2565 0.8584 0.4443
vn 0.4348 0.4936 0.7532
vn 0.4827 0.2609 0.8360
vn -0.1353 0.9901 0.0362
vn -0.4956 0.8584 0.1328
vn -0.8400 0.4936 0.2251
vn -0.9325 0.2609 0.2499
vn -0.1213 0.9901 0.0700
vn -0.4443 0.8584 0.2565
vn -0.7532 0.4936 0.4348
vn -0.8360 0.2609 0.4827
vn -0.0990 0.9901 0.0990
vn -0.3628 0.8584 0.3628
vn -0.6150 0.4936 0.6150
vn -0.6826 0.2609 0.6826
vn -0.0700 0.9901 0.1213
vn -0.2565 0.8584 0.4443
vn -0.4348 0.4936 0.7532
vn -0.4827 0.2609 0.8360
vn -0.1328 0.8584 0.4956
vn -0.2251 0.4936 0.8400
vn -0.2499 0.2609 0.9325
vn -0.1213 0.9901 -0.0700
vn -0.4443 0.8584 -0.2565
vn -0.7532 0.4936 -0.4348
vn -0.8360 0.2609 -0.4827
vn -0.0990 0.9901 -0.0990
vn -0.3628 0.8584 -0.3628
vn -0.6150 0.4936 -0.6150
vn -0.6826 0.2609 -0.6826
vn -0.0700 0.9901 -0.1213
vn -0.2565 0.8584 -0.4443
vn -0.4348 0.4936 -0.7532
vn -0.4827 0.2609 -0.8360
vn -0.1328 0.8584 -0.4956
vn -0.2251 0.4936 -0.8400
vn -0.2499 0.2609 -0.9325
vn 0.1213 0.9901 -0.0700
vn 0.4443 0.8584 -0.2565
vn 0.7532 0.4936 -0.4348
vn 0.8360 0.2609 -0.4827
vn 0.0990 0.9901 -0.0990
vn 0.3628 0.8584 -0.3628
vn 0.6150 0.4936 -0.6150
vn 0.6826 0.2609 -0.6826
vn 0.0700 0.9901 -0.1213
vn 0.2565 0.8584 -0.4443
vn 0.4348 0.4936 -0.7532
vn 0.4827 0.2609 -0.8360
vt 0.226941 0.500000
vt 0.236246 0.429327
vt 0.263525 0.363470
vt 0.306919 0.306919
vt 0.363471 0.263525
vt 0.429327 0.236246
vt 0.500000 0.226942
vt 0.773058 0.500000
vt 0.570673 0.236246
vt 0.636529 0.263525
vt 0.693081 0.306919
vt 0.736475 0.363470
vt 0.763754 0.429327
vt 0.429327 0.763754
vt 0.363471 0.736476
vt 0.306919 0.693081
vt 0.263525 0.636530
vt 0.236246 0.570673
vt 0.500000 0.773058
vt 0.763754 0.570673
vt 0.736475 0.636530
vt 0.693081 0.693081
vt 0.636529 0.736476
vt 0.570673 0.763754
vt 0.982964 0.629409
vt 1.000000 0.500000
vt 0.500000 0.000000
vt 0.370590 0.017037
vt 0.000000 0.500000
vt 0.017036 0.629409
vt 0.370590 0.982963
vt 0.500000 1.000000
vt 0.629410 0.982963
vt 0.750000 0.933012
vt 0.853554 0.853553
vt 0.933013 0.750000
vt 0.629410 0.017037
vt 0.750000 0.066987
vt 0.853554 0.146447
vt 0.933013 0.250000
vt 0.982964 0.370591
vt 0.250000 0.066987
vt 0.146446 0.146447
vt 0.066987 0.250000
vt 0.017036 0.370591
vt 0.250000 0.933012
vt 0.146446 0.853553
vt 0.066987 0.750000
vt 0.763754 0.570673
vt 0.715042 0.557620
vt 0.757228 0.568924
vt 0.739397 0.564146
vt 0.722627 0.500000
vt 0.773058 0.500000
vt 0.747844 0.500000
vt 0.766301 0.500000
vt 0.500000 0.226942
vt 0.500000 0.277373
vt 0.500000 0.233698
vt 0.500000 0.252157
vt 0.442380 0.284959
vt 0.429327 0.236246
vt 0.435853 0.260602
vt 0.431075 0.242772
vt 0.226941 0.500000
vt 0.277373 0.500000
vt 0.233698 0.500000
vt 0.252156 0.500000
vt 0.284958 0.557620
vt 0.236246 0.570673
vt 0.260603 0.564146
vt 0.242772 0.568924
vt 0.429327 0.763754
vt 0.442380 0.715041
vt 0.431075 0.757228
vt 0.435853 0.739398
vt 0.500000 0.722627
vt 0.500000 0.773058
vt 0.500000 0.747843
vt 0.500000 0.766302
vt 0.557620 0.715041
vt 0.570673 0.763754
vt 0.564146 0.739398
vt 0.568925 0.757228
vt 0.611314 0.692801
vt 0.636529 0.736476
vt 0.623921 0.714638
vt 0.633151 0.730624
vt 0.657421 0.657421
vt 0.693081 0.693081
vt 0.675250 0.675251
vt 0.688304 0.688304
vt 0.692801 0.611314
vt 0.736475 0.636530
vt 0.714638 0.623921
vt 0.730625 0.633151
vt 0.570673 0.236246
vt 0.557620 0.284959
vt 0.568925 0.242772
vt 0.564146 0.260602
vt 0.636529 0.263525
vt 0.611314 0.307199
vt 0.633151 0.269376
vt 0.623921 0.285362
vt 0.693081 0.306919
vt 0.657421 0.342579
vt 0.688304 0.311696
vt 0.675250 0.324749
vt 0.736475 0.363470
vt 0.692801 0.388686
vt 0.730625 0.366849
vt 0.714638 0.376079
vt 0.763754 0.429327
vt 0.715042 0.442380
vt 0.757228 0.431076
vt 0.739397 0.435854
vt 0.388685 0.307199
vt 0.363471 0.263525
vt 0.376078 0.285362
vt 0.366849 0.269376
vt 0.342579 0.342579
vt 0.306919 0.306919
vt 0.324748 0.324749
vt 0.311695 0.311696
vt 0.307199 0.388686
vt 0.263525 0.363470
vt 0.285362 0.376079
vt 0.269375 0.366849
vt 0.284958 0.442380
vt 0.236246 0.429327
vt 0.260603 0.435853
vt 0.242772 0.431076
vt 0.363471 0.736476
vt 0.388685 0.692801
vt 0.366849 0.730624
vt 0.376078 0.714638
vt 0.306919 0.693081
vt 0.342579 0.657421
vt 0.311695 0.688304
vt 0.324748 0.675251
vt 0.263525 0.636530
vt 0.307199 0.611314
vt 0.269375 0.633151
vt 0.285362 0.623921
s 1
usemtl drain_cover_3
f 13/13/1 8/8/2 54/54/2 113/113/1
f 20/20/3 8/8/4 26/26/4 25/25/3
f 7/7/5 6/6/6 28/28/6 27/27/5
f 1/1/7 18/18/8 30/30/8 29/29/7
f 14/14/9 19/19/10 32/32/10 31/31/9
f 19/19/10 24/24/11 33/33/11 32/32/10
f 24/24/11 23/23/12 34/34/12 33/33/11
f 23/23/12 22/22/13 35/35/13 34/34/12
f 22/22/13 21/21/14 36/36/14 35/35/13
f 21/21/14 20/20/3 25/25/3 36/36/14
f 9/9/15 7/7/5 27/27/5 37/37/15
f 10/10/16 9/9/15 37/37/15 38/38/16
f 11/11/17 10/10/16 38/38/16 39/39/17
f 12/12/18 11/11/17 39/39/17 40/40/18
f 13/13/19 12/12/18 40/40/18 41/41/19
f 8/8/4 13/13/19 41/41/19 26/26/4
f 6/6/6 5/5/20 42/42/20 28/28/6
f 5/5/20 4/4/21 43/43/21 42/42/20
f 4/4/21 3/3/22 44/44/22 43/43/21
f 3/3/22 2/2/23 45/45/23 44/44/22
f 2/2/23 1/1/7 29/29/7 45/45/23
f 15/15/24 14/14/9 31/31/9 46/46/24
f 16/16/25 15/15/24 46/46/24 47/47/25
f 17/17/26 16/16/25 47/47/25 48/48/26
f 18/18/8 17/17/26 48/48/26 30/30/8
f 20/20/27 21/21/28 94/94/28 49/49/27
f 19/19/29 14/14/30 73/73/30 78/78/29
f 7/7/31 9/9/32 97/97/32 57/57/31
f 3/3/33 4/4/34 122/122/34 126/126/33
f 5/5/35 6/6/36 62/62/36 118/118/35
f 1/1/37 2/2/38 130/130/38 65/65/37
f 2/2/38 3/3/33 126/126/33 130/130/38
f 10/10/39 11/11/40 105/105/40 101/101/39
f 14/14/30 15/15/41 133/133/41 73/73/30
f 15/15/41 16/16/42 137/137/42 133/133/41
f 11/11/40 12/12/43 109/109/43 105/105/40
f 23/23/44 24/24/45 82/82/45 86/86/44
f 17/17/46 18/18/47 70/70/47 141/141/46
f 12/12/43 13/13/1 113/113/1 109/109/43
f 22/22/48 23/23/44 86/86/44 90/90/48
f 24/24/45 19/19/29 78/78/29 82/82/45
f 4/4/34 5/5/35 118/118/35 122/122/34
f 21/21/28 22/22/48 90/90/48 94/94/28
f 16/16/42 17/17/46 141/141/46 137/137/42
f 6/6/36 7/7/31 57/57/31 62/62/36
f 9/9/32 10/10/39 101/101/39 97/97/32
f 66/66/49 129/129/50 114/114/51 53/53/52
f 18/18/47 1/1/37 65/65/37 70/70/47
f 50/50/53 53/53/52 55/55/54 52/52/55
f 52/52/55 55/55/54 56/56/56 51/51/57
f 51/51/57 56/56/56 54/54/58 49/49/59
f 58/58/60 61/61/61 63/63/62 60/60/63
f 60/60/63 63/63/62 64/64/64 59/59/65
f 59/59/65 64/64/64 62/62/66 57/57/67
f 66/66/49 69/69/68 71/71/69 68/68/70
f 68/68/70 71/71/69 72/72/71 67/67/72
f 67/67/72 72/72/71 70/70/73 65/65/74
f 74/74/75 77/77/76 79/79/77 76/76/78
f 76/76/78 79/79/77 80/80/79 75/75/80
f 75/75/80 80/80/79 78/78/81 73/73/82
f 77/77/76 81/81/83 83/83/84 79/79/77
f 79/79/77 83/83/84 84/84/85 80/80/79
f 80/80/79 84/84/85 82/82/86 78/78/81
f 81/81/83 85/85/87 87/87/88 83/83/84
f 83/83/84 87/87/88 88/88/89 84/84/85
f 84/84/85 88/88/89 86/86/90 82/82/86
f 85/85/87 89/89/91 91/91/92 87/87/88
f 87/87/88 91/91/92 92/92/93 88/88/89
f 88/88/89 92/92/93 90/90/94 86/86/90
f 89/89/91 93/93/95 95/95/96 91/91/92
f 91/91/92 95/95/96 96/96/97 92/92/93
f 92/92/93 96/96/97 94/94/98 90/90/94
f 93/93/95 50/50/53 52/52/55 95/95/96
f 95/95/96 52/52/55 51/51/57 96/96/97
f 96/96/97 51/51/57 49/49/59 94/94/98
f 98/98/99 58/58/60 60/60/63 100/100/100
f 100/100/100 60/60/63 59/59/65 99/99/101
f 99/99/101 59/59/65 57/57/67 97/97/102
f 102/102/103 98/98/99 100/100/100 104/104/104
f 104/104/104 100/100/100 99/99/101 103/103/105
f 103/103/105 99/99/101 97/97/102 101/101/106
f 106/106/107 102/102/103 104/104/104 108/108/108
f 108/108/108 104/104/104 103/103/105 107/107/109
f 107/107/109 103/103/105 101/101/106 105/105/110
f 110/110/111 106/106/107 108/108/108 112/112/112
f 112/112/112 108/108/108 107/107/109 111/111/113
f 111/111/113 107/107/109 105/105/110 109/109/114
f 114/114/51 110/110/111 112/112/112 116/116/115
f 116/116/115 112/112/112 111/111/113 115/115/116
f 115/115/116 111/111/113 109/109/114 113/113/117
f 53/53/52 114/114/51 116/116/115 55/55/54
f 55/55/54 116/116/115 115/115/116 56/56/56
f 56/56/56 115/115/116 113/113/117 54/54/58
f 61/61/61 117/117/118 119/119/119 63/63/62
f 63/63/62 119/119/119 120/120/120 64/64/64
f 64/64/64 120/120/120 118/118/121 62/62/66
f 117/117/118 121/121/122 123/123/123 119/119/119
f 119/119/119 123/123/123 124/124/124 120/120/120
f 120/120/120 124/124/124 122/122/125 118/118/121
f 121/121/122 125/125/126 127/127/127 123/123/123
f 123/123/123 127/127/127 128/128/128 124/124/124
f 124/124/124 128/128/128 126/126/129 122/122/125
f 125/125/126 129/129/50 131/131/130 127/127/127
f 127/127/127 131/131/130 132/132/131 128/128/128
f 128/128/128 132/132/131 130/130/132 126/126/129
f 129/129/50 66/66/49 68/68/70 131/131/130
f 131/131/130 68/68/70 67/67/72 132/132/131
f 132/132/131 67/67/72 65/65/74 130/130/132
f 134/134/133 74/74/75 76/76/78 136/136/134
f 136/136/134 76/76/78 75/75/80 135/135/135
f 135/135/135 75/75/80 73/73/82 133/133/136
f 138/138/137 134/134/133 136/136/134 140/140/138
f 140/140/138 136/136/134 135/135/135 139/139/139
f 139/139/139 135/135/135 133/133/136 137/137/140
f 142/142/141 138/138/137 140/140/138 144/144/142
f 144/144/142 140/140/138 139/139/139 143/143/143
f 143/143/143 139/139/139 137/137/140 141/141/144
f 69/69/68 142/142/141 144/144/142 71/71/69
f 71/71/69 144/144/142 143/143/143 72/72/71
f 72/72/71 143/143/143 141/141/144 70/70/73
f 8/8/2 20/20/27 49/49/27 54/54/2
f 53/53/52 50/50/53 69/69/68 66/66/49
f 69/69/68 50/50/53 93/93/95 142/142/141
f 114/114/51 129/129/50 125/125/126 110/110/111
f 110/110/111 125/125/126 121/121/122 106/106/107
f 106/106/107 121/121/122 117/117/118 102/102/103
f 102/102/103 117/117/118 61/61/61 98/98/99
f 98/98/99 61/61/61 58/58/60
f 142/142/141 93/93/95 89/89/91 138/138/137
f 138/138/137 89/89/91 85/85/87 134/134/133
f 134/134/133 85/85/87 81/81/83 74/74/75
f 74/74/75 81/81/83 77/77/76
