# Blender 3.4.0
# www.blender.org
mtllib mre_1.mtl
o mre_1
v -0.086848 0.028500 -0.137546
v 0.086799 0.028500 -0.137957
v 0.085858 0.030000 -0.122563
v -0.085090 0.030000 -0.120921
v 0.083233 0.032000 0.111719
v 0.083465 0.030000 0.138379
v 0.012900 0.030000 0.136562
v -0.010088 0.030000 0.133894
v -0.033281 0.030000 0.135946
v -0.052164 0.030000 0.138410
v -0.081934 0.030000 0.139641
v -0.082758 0.032000 0.113368
v -0.052988 0.032000 0.112342
v -0.033281 0.032000 0.111316
v -0.008859 0.032000 0.109673
v 0.014121 0.032000 0.110905
v 0.085858 0.027000 -0.122563
v -0.085090 0.027000 -0.120921
v 0.083233 0.028000 0.111719
v -0.082758 0.028000 0.113367
v -0.052988 0.028000 0.112342
v -0.033281 0.028000 0.111316
v -0.008859 0.028000 0.109673
v 0.014121 0.028000 0.110905
v -0.078476 0.028926 0.088476
v -0.079697 0.028872 0.032771
v -0.081010 0.029055 -0.010816
v -0.082034 0.029056 -0.054402
v -0.081900 0.028325 -0.097989
v 0.079656 0.029417 0.090144
v 0.079192 0.028953 0.079091
v 0.080518 0.028398 -0.010016
v 0.082041 0.028661 -0.054569
v 0.082406 0.028197 -0.099123
v -0.080683 0.027953 0.076357
v 0.078705 0.027954 0.034538
v 0.039914 0.060000 0.078420
v 0.058792 0.051599 0.078743
v 0.059612 0.048953 0.096666
v -0.056614 0.048879 0.095677
v -0.041123 0.060000 0.077565
v -0.060058 0.051481 0.076710
v 0.059080 0.008133 0.078748
v 0.039914 -0.000000 0.078420
v 0.059772 0.010960 0.096630
v -0.056907 0.010991 0.095608
v -0.060623 0.007994 0.076700
v -0.041227 -0.000000 0.077032
v 0.043026 0.060000 -0.087546
v 0.061959 0.047734 -0.105800
v -0.042561 0.060000 -0.086956
v -0.061345 0.047747 -0.104914
v 0.043026 0.000000 -0.087546
v 0.062459 0.011397 -0.106231
v -0.061806 0.011394 -0.105345
v -0.042561 0.000000 -0.086956
v 0.041237 0.060000 -0.010210
v 0.060042 0.051533 -0.010117
v 0.060483 0.008056 -0.010115
v 0.041237 0.000000 -0.010210
v -0.041615 0.060000 -0.010621
v -0.060563 0.051612 -0.010715
v -0.060825 0.008147 -0.010716
v -0.041615 0.000000 -0.010621
v 0.058175 0.051481 0.034309
v 0.039432 0.060000 0.034100
v 0.039432 -0.000000 0.034100
v 0.058738 0.007993 0.034315
v -0.059209 0.051589 0.032999
v -0.040271 0.060000 0.033211
v -0.040271 -0.000000 0.033211
v -0.059522 0.008122 0.032996
v -0.061597 0.051612 -0.054423
v -0.042658 0.060000 -0.054442
v -0.042658 0.000000 -0.054442
v -0.061858 0.008147 -0.054423
v 0.061597 0.051564 -0.054548
v 0.042754 0.060000 -0.054529
v 0.042754 0.000000 -0.054529
v 0.061966 0.008093 -0.054549
vn -0.0000 1.0000 -0.0000
vn 0.0003 1.0000 -0.0000
vn -0.0000 -1.0000 -0.0000
vn 0.9965 -0.0347 0.0760
vn 0.9998 -0.0219 0.0028
vn 0.5643 -0.8256 -0.0031
vn 0.3213 -0.8706 -0.3726
vn -0.9995 -0.0000 0.0313
vn -0.9432 0.3308 0.0315
vn -0.9444 -0.3253 0.0485
vn 1.0000 -0.0000 -0.0087
vn 0.9981 -0.0000 0.0610
vn 0.9453 0.3248 -0.0291
vn 0.9426 -0.3331 -0.0234
vn -0.9443 0.3288 -0.0166
vn -0.9945 -0.0000 0.1051
vn -0.9412 -0.3379 -0.0085
vn -0.9984 -0.0148 0.0550
vn -0.9922 -0.0447 0.1165
vn -0.5558 -0.8252 0.1008
vn -0.2887 -0.8410 0.4575
vn 0.1934 -0.9811 0.0031
vn 0.1472 -0.9644 0.2195
vn -0.1581 -0.9628 0.2190
vn -0.1943 -0.9809 0.0002
vn 0.3389 0.8481 0.4073
vn 0.9962 -0.0093 -0.0867
vn 0.9995 -0.0238 0.0205
vn 0.5783 0.8153 0.0304
vn -0.5916 0.8061 -0.0134
vn -0.3494 0.8454 -0.4040
vn -0.9974 -0.0311 0.0656
vn -0.9999 -0.0151 -0.0083
vn 0.3484 0.8478 -0.3999
vn 0.2265 0.9740 -0.0056
vn -0.2246 0.9744 -0.0086
vn -0.2075 0.9782 0.0057
vn 0.2105 0.9776 0.0082
vn 0.9990 -0.0265 0.0372
vn 0.9993 -0.0355 0.0151
vn 0.5571 -0.8304 0.0100
vn 0.5599 -0.8284 0.0188
vn 0.5530 -0.8318 0.0479
vn 0.2126 -0.9771 -0.0046
vn 0.1971 -0.9804 0.0070
vn -0.1994 -0.9799 0.0053
vn -0.2140 -0.9768 -0.0068
vn -0.3111 0.8418 0.4411
vn 0.1829 0.9536 -0.2391
vn -0.1834 0.9532 -0.2402
vn 0.3271 -0.8477 0.4177
vn -0.5863 0.8100 0.0164
vn -0.9995 -0.0156 0.0268
vn 0.5934 0.8046 0.0243
vn 0.5964 0.8027 -0.0050
vn 0.5914 0.8063 0.0072
vn 0.2070 0.9783 0.0028
vn -0.2047 0.9788 0.0015
vn -0.1685 0.9602 0.2226
vn 0.1569 0.9628 0.2200
vn 0.8547 0.5168 0.0496
vn 0.8576 -0.5099 0.0667
vn -0.3255 -0.8680 -0.3750
vn -0.5676 -0.8232 -0.0077
vn 0.0011 0.6464 0.7630
vn -0.0165 0.6687 0.7434
vn -0.9998 -0.0184 0.0039
vn -0.5597 -0.8287 -0.0011
vn -0.5864 0.8100 0.0057
vn -0.5897 0.8030 0.0865
vn -0.5661 -0.8242 0.0147
vn 0.1704 -0.9604 -0.2206
vn -0.1726 -0.9598 -0.2212
vn 0.0294 0.7055 0.7081
vn 0.0100 0.6603 0.7510
vn -0.0165 -0.6677 0.7442
vn 0.0011 -0.6454 0.7639
vn 0.0100 -0.6592 0.7519
vn 0.0294 -0.7044 0.7091
vn 0.0005 -1.0000 -0.0000
vt 0.946159 0.956291
vt 0.053841 0.956291
vt 0.053841 0.957645
vt 0.946159 0.957645
vt 0.941325 0.906887
vt 0.062876 0.901472
vt 0.927833 0.134418
vt 0.929025 0.046514
vt 0.070975 0.046514
vt 0.566416 0.052505
vt 0.433584 0.052505
vt 0.448287 0.061303
vt 0.551713 0.061303
vt 0.329103 0.054537
vt 0.670897 0.054537
vt 0.767930 0.046415
vt 0.232070 0.046415
vt 0.920909 0.042355
vt 0.079091 0.042355
vt 0.074858 0.128982
vt 0.227837 0.132365
vt 0.329103 0.135747
vt 0.454600 0.141165
vt 0.572689 0.137101
vt 0.941325 0.906887
vt 0.058675 0.906887
vt 0.062876 0.901472
vt 0.937124 0.901472
vt 0.927833 0.134418
vt 0.072167 0.134418
vt 0.074858 0.128982
vt 0.925142 0.128982
vt 0.772163 0.132365
vt 0.670897 0.135747
vt 0.545400 0.141165
vt 0.427311 0.137101
vt 0.903136 0.211056
vt 0.096864 0.211056
vt 0.090589 0.394725
vt 0.909411 0.394725
vt 0.083841 0.538439
vt 0.916159 0.538439
vt 0.078577 0.682150
vt 0.921423 0.682150
vt 0.079268 0.825863
vt 0.920732 0.825863
vt 0.909456 0.205554
vt 0.090544 0.205554
vt 0.092930 0.241997
vt 0.907070 0.241997
vt 0.913882 0.535798
vt 0.086118 0.535798
vt 0.078291 0.682700
vt 0.921709 0.682700
vt 0.076416 0.829600
vt 0.923584 0.829600
vt 0.914479 0.251012
vt 0.085521 0.251012
vt 0.095429 0.388898
vt 0.904571 0.388898
vt 0.705226 0.244212
vt 0.802239 0.243148
vt 0.806456 0.184051
vt 0.209204 0.187311
vt 0.288810 0.247032
vt 0.191508 0.249848
vt 0.196280 0.243131
vt 0.294774 0.244212
vt 0.192722 0.184170
vt 0.792306 0.187539
vt 0.811396 0.249881
vt 0.711730 0.248788
vt 0.721223 0.791431
vt 0.818509 0.851618
vt 0.281417 0.789483
vt 0.184892 0.848696
vt 0.278777 0.791431
vt 0.178918 0.853037
vt 0.817475 0.850116
vt 0.718583 0.789483
vt 0.712028 0.536439
vt 0.808666 0.536132
vt 0.189070 0.536125
vt 0.287972 0.536439
vt 0.286282 0.537793
vt 0.188913 0.538104
vt 0.812436 0.538108
vt 0.713718 0.537793
vt 0.799069 0.389652
vt 0.702756 0.390343
vt 0.297244 0.390343
vt 0.198040 0.389633
vt 0.195866 0.393970
vt 0.293188 0.393274
vt 0.706812 0.393274
vt 0.805737 0.393983
vt 0.183601 0.682219
vt 0.280922 0.682282
vt 0.719078 0.682282
vt 0.817742 0.682217
vt 0.816653 0.682631
vt 0.719826 0.682568
vt 0.280174 0.682568
vt 0.181452 0.682632
s 1
usemtl mre_1
f 2/4/1 1/2/2 4/6/1 3/5/1
f 2/3/3 17/26/3 18/28/3 1/1/3
f 34/55/4 33/53/5 80/104/6 54/78/7
f 11/19/8 12/20/9 20/31/10
f 5/7/11 6/8/11 19/29/11
f 2/4/12 3/5/13 17/25/14
f 4/6/15 1/2/16 18/27/17
f 25/37/18 35/57/19 47/71/20 46/70/21
f 67/91/22 44/68/23 48/72/24 71/95/25
f 39/63/26 30/47/27 31/50/28 38/62/29
f 73/97/30 52/76/31 29/45/32 28/43/33
f 3/5/13 50/74/34 34/56/4
f 78/102/35 74/98/36 61/85/37 57/81/38
f 32/52/39 36/59/40 68/92/41 59/83/42
f 36/59/40 31/49/28 43/67/43 68/92/41
f 79/103/44 60/84/45 64/88/46 75/99/47
f 54/78/7 17/26/14 34/55/4
f 12/20/9 40/64/48 25/38/18
f 49/73/49 51/75/50 74/98/36 78/102/35
f 31/49/28 30/48/27 45/69/51 43/67/43
f 20/31/10 12/20/9 25/38/18
f 62/86/52 73/97/30 28/43/33 27/41/53
f 4/6/15 18/27/17 29/45/32
f 58/82/54 32/51/39 33/54/5 77/101/55
f 65/89/56 36/60/40 32/51/39 58/82/54
f 66/90/57 70/94/58 41/65/59 37/61/60
f 39/63/26 5/7/61 30/47/27
f 17/25/14 3/5/13 34/56/4
f 5/7/61 19/29/62 30/47/27
f 28/44/33 29/46/32 55/79/63 76/100/64
f 39/63/26 15/23/65 16/24/66
f 35/57/19 26/40/67 72/96/68 47/71/20
f 19/30/62 45/69/51 30/48/27
f 17/26/14 54/78/7 55/79/63 18/28/17
f 57/81/38 61/85/37 70/94/58 66/90/57
f 52/76/31 4/6/15 29/45/32
f 69/93/69 26/39/67 35/58/19 42/66/70
f 46/70/21 20/32/10 25/37/18
f 55/79/63 29/46/32 18/28/17
f 33/53/5 32/52/39 59/83/42 80/104/6
f 60/84/45 67/91/22 71/95/25 64/88/46
f 27/42/53 28/44/33 76/100/64 63/87/71
f 3/5/13 4/6/15 52/76/31 50/74/34
f 69/93/69 62/86/52 27/41/53 26/39/67
f 26/40/67 27/42/53 63/87/71 72/96/68
f 77/101/55 33/54/5 34/56/4 50/74/34
f 42/66/70 35/58/19 25/38/18 40/64/48
f 53/77/72 79/103/44 75/99/47 56/80/73
f 66/90/57 37/61/60 38/62/29 65/89/56
f 37/61/60 39/63/26 38/62/29
f 41/65/59 42/66/70 40/64/48
f 44/68/23 67/91/22 68/92/41 43/67/43
f 44/68/23 43/67/43 45/69/51
f 48/72/24 46/70/21 47/71/20
f 74/98/36 51/75/50 52/76/31 73/97/30
f 56/80/73 75/99/47 76/100/64 55/79/63
f 78/102/35 57/81/38 58/82/54 77/101/55
f 60/84/45 79/103/44 80/104/6 59/83/42
f 70/94/58 61/85/37 62/86/52 69/93/69
f 64/88/46 71/95/25 72/96/68 63/87/71
f 57/81/38 66/90/57 65/89/56 58/82/54
f 67/91/22 60/84/45 59/83/42 68/92/41
f 41/65/59 70/94/58 69/93/69 42/66/70
f 71/95/25 48/72/24 47/71/20 72/96/68
f 61/85/37 74/98/36 73/97/30 62/86/52
f 75/99/47 64/88/46 63/87/71 76/100/64
f 49/73/49 78/102/35 77/101/55 50/74/34
f 79/103/44 53/77/72 54/78/7 80/104/6
f 40/64/48 39/63/26 37/61/60 41/65/59
f 45/69/51 46/70/21 48/72/24 44/68/23
f 51/75/50 49/73/49 50/74/34 52/76/31
f 53/77/72 56/80/73 55/79/63 54/78/7
f 38/62/29 31/50/28 36/60/40 65/89/56
f 13/21/74 14/22/75 40/64/48 12/20/9
f 45/69/51 19/30/62 24/36/76
f 23/35/77 22/34/78 46/70/21
f 15/23/65 39/63/26 40/64/48
f 46/70/21 22/34/78 21/33/79 20/32/10
f 21/33/3 10/16/3 11/18/80 20/32/3
f 21/33/3 22/34/3 9/15/3 10/16/3
f 7/11/3 8/13/3 23/35/3 24/36/3
f 16/24/1 15/23/1 8/12/1 7/10/1
f 15/23/1 14/22/1 9/14/1 8/12/1
f 14/22/1 13/21/1 10/17/1 9/14/1
f 6/8/1 5/7/1 16/24/1 7/10/1
f 8/13/3 9/15/3 22/34/3 23/35/3
f 6/9/3 7/11/3 24/36/3 19/30/3
f 12/20/1 11/19/1 10/17/1 13/21/1
f 5/7/61 39/63/26 16/24/66
f 14/22/75 15/23/65 40/64/48
f 23/35/77 45/69/51 24/36/76
f 45/69/51 23/35/77 46/70/21
