# Blender 3.4.0
# www.blender.org
mtllib pcb_1.mtl
o pcb_1
v 0.018365 0.000000 0.081115
v 0.066208 0.000000 -0.050333
v -0.066208 0.000000 0.050333
v -0.018365 0.000000 -0.081115
v -0.066208 0.005000 0.050333
v 0.018365 0.005000 0.081115
v 0.066208 0.005000 -0.050333
v -0.018365 0.005000 -0.081115
vn -0.0000 -1.0000 -0.0000
vn -0.0000 1.0000 -0.0000
vn -0.3420 -0.0000 0.9397
vn -0.9397 -0.0000 -0.3420
vn 0.9397 -0.0000 0.3420
vn 0.3420 -0.0000 -0.9397
vt 0.000000 0.000000
vt 1.000000 0.000000
vt 0.000000 1.000000
vt 1.000000 1.000000
vt 0.000000 1.000000
vt 0.000000 0.000000
vt 1.000000 0.000000
vt 1.000000 1.000000
s 0
usemtl pcb_1
f 1/1/1 3/3/1 4/4/1 2/2/1
f 6/6/2 7/7/2 8/8/2 5/5/2
f 3/3/3 1/1/3 6/6/3 5/5/3
f 4/4/4 3/3/4 5/5/4 8/8/4
f 1/1/5 2/2/5 7/7/5 6/6/5
f 2/2/6 4/4/6 8/8/6 7/7/6
