# Blender 3.4.0
# www.blender.org
mtllib power_supply_1.mtl
o power_supply_1
v -0.158719 -0.000000 0.080669
v -0.155658 -0.000000 0.078901
v -0.158719 -0.000000 0.080669
v 0.097120 -0.000000 0.149221
v 0.095353 -0.000000 0.146159
v 0.097120 -0.000000 0.149221
v -0.095194 0.000000 -0.156412
v -0.095194 0.000000 -0.156412
v -0.093426 0.000000 -0.153351
v 0.160646 0.000000 -0.087860
v 0.157584 0.000000 -0.086093
v 0.160646 0.000000 -0.087860
v -0.095841 0.002500 -0.153998
v -0.092779 0.002500 -0.155765
v -0.095194 0.000000 -0.156412
v -0.095194 0.000000 -0.156412
v -0.158072 0.002500 0.078254
v -0.158719 -0.000000 0.080669
v -0.158719 -0.000000 0.080669
v -0.156305 0.002500 0.081316
v 0.094706 0.002500 0.148574
v 0.097120 -0.000000 0.149221
v 0.097120 -0.000000 0.149221
v 0.097767 0.002500 0.146806
v 0.159999 0.002500 -0.085446
v 0.160646 0.000000 -0.087860
v 0.160646 0.000000 -0.087860
v 0.158231 0.002500 -0.088507
v -0.095841 0.151500 -0.153998
v -0.093426 0.154000 -0.153351
v -0.092779 0.151500 -0.155765
v -0.158072 0.151500 0.078254
v -0.156305 0.151500 0.081316
v -0.155658 0.154000 0.078901
v 0.094706 0.151500 0.148574
v 0.097767 0.151500 0.146806
v 0.095353 0.154000 0.146159
v 0.159999 0.151500 -0.085446
v 0.158231 0.151500 -0.088507
v 0.157584 0.154000 -0.086093
vn -0.2588 -0.0000 0.9659
vn -0.0000 1.0000 -0.0000
vn -0.0000 -1.0000 -0.0000
vn -0.9659 -0.0000 -0.2588
vn 0.2588 -0.0000 -0.9659
vn 0.9659 -0.0000 0.2588
vn -0.4082 0.5774 -0.7071
vn -0.7071 0.5774 0.4082
vn 0.4082 0.5774 0.7071
vn 0.7071 0.5774 -0.4082
vn -0.6830 0.7071 -0.1830
vn -0.1830 0.7071 0.6830
vn 0.6830 0.7071 0.1830
vn 0.1830 0.7071 -0.6830
vn 0.8660 -0.0000 -0.5000
vn 0.5000 -0.0000 0.8660
vn -0.8660 -0.0000 0.5000
vn -0.5000 -0.0000 -0.8660
vt 0.000000 0.000000
vt 0.009439 0.003571
vt 0.000000 0.000000
vt 1.000000 0.000000
vt 0.990561 0.003571
vt 1.000000 0.000000
vt 0.000000 0.350636
vt 0.000000 0.350636
vt 0.009439 0.347064
vt 1.000000 0.350636
vt 0.990561 0.347064
vt 1.000000 0.350636
vt 0.000000 0.347064
vt 0.989814 0.359293
vt 0.009439 0.566646
vt 0.009439 0.350636
vt 1.000000 0.359293
vt 1.000000 0.355856
vt 0.000000 0.350636
vt 1.000000 0.355856
vt 0.000000 0.350636
vt 0.000000 0.003571
vt 0.010186 0.359293
vt 0.000000 0.000000
vt 0.000000 0.000000
vt 0.009439 0.787294
vt 0.000000 0.000000
vt 0.009439 0.000000
vt 0.000000 0.359293
vt 0.990561 0.787294
vt 0.990561 0.000000
vt 0.000000 0.359293
vt 1.000000 0.000000
vt 1.000000 0.000000
vt 1.000000 0.000000
vt 1.000000 0.003571
vt 0.010186 0.359293
vt 1.000000 0.347064
vt 0.989814 0.359293
vt 1.000000 0.350636
vt 1.000000 0.350636
vt 0.990561 0.566646
vt 1.000000 0.350636
vt 0.990561 0.350636
vt 1.000000 0.359293
vt 0.000000 0.347064
vt 0.989814 0.564131
vt 0.009439 0.347064
vt 0.009439 0.780201
vt 0.009439 0.350636
vt 1.000000 0.564131
vt 0.000000 0.003571
vt 0.010186 0.564131
vt 0.009439 0.996490
vt 0.009439 0.000000
vt 0.000000 0.564131
vt 0.010186 0.567568
vt 0.009439 0.003571
vt 0.990561 0.996490
vt 0.990561 0.000000
vt 0.000000 0.564131
vt 0.010186 0.564131
vt 0.990561 0.003571
vt 0.010186 0.567568
vt 0.989814 0.564131
vt 0.990561 0.780201
vt 0.990561 0.350636
vt 1.000000 0.564131
vt 0.989814 0.567568
vt 0.990561 0.347064
s 0
usemtl power_supply_1
f 3/3/1 4/4/1 22/33/1 19/25/1
f 34/58/2 37/63/2 40/70/2 30/48/2
f 12/12/1 8/8/1 15/19/1 27/41/1
f 2/2/3 9/9/3 11/11/3 5/5/3
f 13/14/4 17/23/4 32/53/4 29/47/4
f 6/6/1 10/10/1 26/40/1 23/34/1
f 28/42/5 14/15/5 31/49/5 39/66/5
f 20/26/1 21/30/1 35/59/1 33/54/1
f 24/37/6 25/39/6 38/65/6 36/62/6
f 1/1/1 2/2/1 3/3/1
f 4/4/1 5/5/1 6/6/1
f 7/7/1 8/8/1 9/9/1
f 10/10/1 11/11/1 12/12/1
f 13/14/7 14/17/7 15/18/7 16/20/7
f 17/22/8 18/24/8 19/25/8 20/27/8
f 21/31/9 22/33/9 23/34/9 24/35/9
f 25/38/10 26/40/10 27/41/10 28/43/10
f 29/46/7 30/48/7 31/50/7
f 32/53/8 33/56/8 34/57/8
f 35/61/9 36/62/9 37/64/9
f 38/65/10 39/68/10 40/69/10
f 9/9/3 2/2/3 1/1/3 7/7/3
f 2/2/3 5/5/3 4/4/3 3/3/3
f 5/5/3 11/11/3 10/10/3 6/6/3
f 11/11/3 9/9/3 8/8/3 12/12/3
f 16/21/4 18/24/4 17/22/4 13/13/4
f 19/25/1 22/33/1 21/31/1 20/28/1
f 23/34/6 26/40/6 25/38/6 24/36/6
f 27/41/5 15/19/5 14/16/5 28/44/5
f 12/12/1 27/41/1 26/40/1 10/10/1
f 22/33/1 4/4/1 6/6/1 23/34/1
f 3/3/1 19/25/1 18/24/1 1/1/1
f 15/19/1 8/8/1 7/7/1 16/21/1
f 29/46/11 32/52/11 34/58/11 30/48/11
f 33/55/12 35/60/12 37/63/12 34/58/12
f 36/62/13 38/65/13 40/69/13 37/64/13
f 39/67/14 31/50/14 30/48/14 40/70/14
f 28/45/15 39/68/15 38/65/15 25/39/15
f 35/61/16 21/32/16 24/37/16 36/62/16
f 20/29/17 33/56/17 32/53/17 17/23/17
f 31/51/18 14/17/18 13/14/18 29/47/18
f 7/7/1 1/1/1 18/24/1 16/21/1
