# Blender 3.4.0
# www.blender.org
mtllib scanner_1.mtl
o scanner_1
v -0.143597 -0.203600 -0.050000
v 0.143603 -0.203600 -0.050000
v -0.143597 0.193600 -0.050000
v 0.143603 0.193600 -0.050000
v -0.149997 0.200000 -0.000000
v -0.149997 -0.210000 -0.000000
v 0.150003 -0.210000 -0.000000
v 0.150003 0.200000 -0.000000
v 0.115618 0.028016 -0.042000
v 0.115625 -0.178060 -0.042000
v -0.115565 -0.178133 -0.042000
v -0.115579 0.028078 -0.042000
v 0.125018 0.037414 -0.050000
v 0.125026 -0.187457 -0.050000
v -0.124964 -0.187536 -0.050000
v -0.124979 0.037481 -0.050000
v 0.090568 0.087407 -0.050000
v 0.090568 0.056274 -0.050000
v 0.056280 0.056274 -0.050000
v 0.056280 0.087505 -0.050000
v 0.043714 0.071978 -0.050000
v 0.043697 0.050115 -0.050000
v -0.043660 0.049988 -0.050000
v -0.043660 0.071978 -0.050000
v 0.040497 0.053310 -0.055000
v -0.040460 0.053193 -0.055000
v -0.040460 0.075183 -0.055000
v 0.088568 0.085413 -0.056000
v 0.090568 0.087407 -0.053000
v 0.090568 0.056274 -0.053000
v 0.088568 0.058274 -0.056000
v 0.056280 0.056274 -0.053000
v 0.058280 0.058274 -0.056000
v 0.056280 0.087505 -0.053000
v 0.058280 0.085500 -0.056000
v -0.056432 0.087407 -0.050000
v -0.056432 0.056274 -0.050000
v -0.090720 0.056274 -0.050000
v -0.090720 0.087505 -0.050000
v -0.058432 0.085413 -0.056000
v -0.056432 0.087407 -0.053000
v -0.056432 0.056274 -0.053000
v -0.058432 0.058274 -0.056000
v -0.090720 0.056274 -0.053000
v -0.088720 0.058274 -0.056000
v -0.090720 0.087505 -0.053000
v -0.088720 0.085500 -0.056000
v 0.043714 0.093978 -0.050000
v -0.043660 0.093978 -0.050000
v 0.040512 0.090778 -0.055000
v 0.040500 0.075310 -0.055000
v -0.040460 0.090778 -0.055000
v 0.012575 0.143975 -0.060000
v 0.025004 0.131377 -0.060000
v 0.074957 0.131410 -0.060000
v 0.081223 0.137557 -0.060000
v 0.081223 0.168835 -0.060000
v 0.074957 0.174865 -0.060000
v 0.087666 0.187167 -0.050000
v 0.099923 0.174910 -0.050000
v 0.099923 0.137891 -0.050000
v 0.087515 0.125005 -0.050000
v 0.018719 0.125021 -0.050000
v 0.006321 0.131274 -0.050000
v 0.000078 0.131274 -0.050000
v -0.012451 0.125007 -0.050000
v -0.081356 0.124980 -0.050000
v -0.093613 0.137578 -0.050000
v -0.093613 0.175033 -0.050000
v -0.081184 0.187579 -0.050000
v -0.006155 0.143975 -0.060000
v -0.018751 0.131547 -0.060000
v -0.068493 0.131389 -0.060000
v -0.074963 0.137518 -0.060000
v -0.074963 0.168843 -0.060000
v -0.068493 0.175142 -0.060000
v -0.012481 0.174972 -0.060000
v -0.006182 0.168843 -0.060000
v 0.012717 0.168673 -0.060000
v 0.018845 0.175142 -0.060000
v -0.018751 0.131547 -0.055000
v -0.068493 0.131389 -0.055000
v -0.006155 0.143975 -0.055000
v 0.012575 0.143975 -0.055000
v 0.025004 0.131377 -0.055000
v 0.074957 0.131410 -0.055000
v 0.081223 0.137557 -0.055000
v 0.081223 0.168835 -0.055000
v 0.074957 0.174865 -0.055000
v -0.074963 0.137518 -0.055000
v -0.074963 0.168843 -0.055000
v -0.068493 0.175142 -0.055000
v -0.012481 0.174972 -0.055000
v -0.006182 0.168843 -0.055000
v 0.012717 0.168673 -0.055000
v 0.018845 0.175142 -0.055000
v 0.003241 0.187373 -0.050000
v 0.043714 0.093978 -0.055000
v 0.040497 0.068910 -0.055000
v -0.043660 0.093978 -0.055000
v -0.040460 0.068783 -0.055000
v 0.043697 0.050115 -0.055000
v -0.043660 0.049988 -0.055000
v -0.043660 0.071978 -0.055000
v 0.043697 0.072115 -0.055000
v 0.040512 0.090778 -0.051000
v 0.040500 0.075310 -0.051000
v -0.040460 0.090778 -0.051000
v -0.040460 0.075183 -0.051000
v 0.040497 0.053310 -0.051000
v -0.040460 0.053193 -0.051000
v -0.040460 0.068783 -0.051000
v 0.040497 0.068910 -0.051000
vn -0.0000 0.9919 -0.1270
vn -0.0000 -0.9919 -0.1270
vn 0.9919 -0.0000 -0.1270
vn -0.9919 -0.0000 -0.1270
vn -0.0000 -0.0000 -1.0000
vn -0.6481 -0.0000 -0.7615
vn -0.0002 0.6481 -0.7615
vn 0.6481 -0.0000 -0.7615
vn -0.0002 -0.6481 -0.7615
vn -0.0000 -1.0000 -0.0000
vn 0.0029 1.0000 -0.0000
vn -1.0000 -0.0000 -0.0000
vn 1.0000 -0.0004 -0.0017
vn 0.0014 -1.0000 -0.0000
vn 0.8321 -0.0000 -0.5547
vn -0.0000 -0.8321 -0.5547
vn -0.8321 -0.0000 -0.5547
vn 0.0024 0.8320 -0.5547
vn 1.0000 -0.0000 -0.0000
vn -0.0000 1.0000 -0.0000
vn 0.0001 -0.8430 -0.5379
vn -0.3992 -0.5257 -0.7512
vn 0.4294 -0.4212 -0.7989
vn 0.0013 -0.8396 -0.5432
vn -0.0000 -0.6186 -0.7857
vn -0.4232 -0.4232 -0.8011
vn 0.4716 -0.0000 -0.8818
vn 0.3475 0.3520 -0.8691
vn 0.0022 0.6320 -0.7750
vn 0.3925 -0.5275 -0.7535
vn -0.3479 0.3489 -0.8702
vn 0.0017 0.6271 -0.7790
vn -0.0034 0.6303 -0.7763
vn -0.4725 -0.0000 -0.8813
vn -0.6973 -0.7168 -0.0000
vn -0.0090 -1.0000 -0.0000
vn 0.7119 0.7023 -0.0000
vn 0.7260 -0.6877 -0.0000
vn -0.0007 1.0000 -0.0000
vn -0.6934 -0.7206 -0.0000
vn -0.0049 -1.0000 -0.0000
vn -0.7004 0.7138 -0.0000
vn 0.6877 0.7260 -0.0000
vn 0.6976 -0.7165 -0.0000
vn -0.0032 1.0000 -0.0000
vn -0.0030 -1.0000 -0.0000
vn -0.7023 0.7118 -0.0000
vn 0.0016 -1.0000 -0.0000
vn -0.0014 1.0000 -0.0000
vn -0.0016 1.0000 -0.0000
vn -1.0000 0.0008 -0.0000
vt 0.978667 0.016000
vt 0.021333 0.016000
vt 0.978667 0.984000
vt 0.021333 0.984000
vt 1.000000 1.000000
vt 1.000000 0.000000
vt 0.000000 0.000000
vt 0.000000 1.000000
vt 0.114616 0.579583
vt 0.114593 0.077646
vt 0.885226 0.077463
vt 0.885273 0.579738
vt 0.083284 0.603076
vt 0.083259 0.054153
vt 0.916557 0.053955
vt 0.916608 0.603244
vt 0.594568 0.878878
vt 0.585595 0.878878
vt 0.594569 0.878878
vt 0.413862 0.878878
vt 0.405431 0.878878
vt 0.413862 0.878878
vt 0.405431 0.878878
vt 0.586138 0.878878
vt 0.645713 0.687182
vt 0.645656 0.633972
vt 0.645656 0.633972
vt 0.354466 0.633664
vt 0.354467 0.687183
vt 0.354466 0.633664
vt 0.634997 0.641704
vt 0.365133 0.641459
vt 0.365133 0.641460
vt 0.795227 0.719881
vt 0.594568 0.869214
vt 0.801893 0.724734
vt 0.585595 0.869214
vt 0.594569 0.869214
vt 0.801894 0.648962
vt 0.413862 0.869214
vt 0.795227 0.653830
vt 0.405431 0.869214
vt 0.413862 0.869214
vt 0.687599 0.648962
vt 0.694265 0.653830
vt 0.405431 0.869214
vt 0.586138 0.869214
vt 0.687599 0.724973
vt 0.694265 0.720092
vt 0.594569 0.878878
vt 0.585595 0.878878
vt 0.594569 0.878878
vt 0.413862 0.878878
vt 0.405432 0.878878
vt 0.413862 0.878878
vt 0.405431 0.878878
vt 0.586138 0.878878
vt 0.305487 0.719881
vt 0.594569 0.869214
vt 0.312098 0.724734
vt 0.585595 0.869214
vt 0.594569 0.869214
vt 0.312098 0.648962
vt 0.413862 0.869214
vt 0.305487 0.653830
vt 0.405432 0.869214
vt 0.413862 0.869214
vt 0.198753 0.648962
vt 0.205365 0.653830
vt 0.405431 0.869214
vt 0.586138 0.869214
vt 0.198753 0.724973
vt 0.205364 0.720092
vt 0.645713 0.687182
vt 0.354467 0.687183
vt 0.635038 0.679394
vt 0.634998 0.641748
vt 0.365134 0.679398
vt 0.458092 0.859938
vt 0.416664 0.828443
vt 0.250152 0.828524
vt 0.229267 0.843894
vt 0.229267 0.922089
vt 0.250152 0.937163
vt 0.207790 0.967919
vt 0.166934 0.937275
vt 0.166934 0.844729
vt 0.208292 0.812513
vt 0.437613 0.812554
vt 0.478939 0.828184
vt 0.499749 0.828184
vt 0.541513 0.812519
vt 0.771197 0.812451
vt 0.812053 0.843946
vt 0.812053 0.937582
vt 0.770625 0.968947
vt 0.520526 0.859938
vt 0.562514 0.828869
vt 0.728320 0.828473
vt 0.749886 0.843795
vt 0.749886 0.922108
vt 0.728320 0.937856
vt 0.541615 0.937431
vt 0.520615 0.922108
vt 0.457622 0.921682
vt 0.437194 0.937856
vt 0.562514 0.828869
vt 0.728320 0.828473
vt 0.520526 0.859938
vt 0.458092 0.859938
vt 0.416664 0.828443
vt 0.250152 0.828524
vt 0.229267 0.843894
vt 0.229267 0.922089
vt 0.250152 0.937163
vt 0.749886 0.843795
vt 0.749886 0.922108
vt 0.728320 0.937856
vt 0.541615 0.937431
vt 0.520615 0.922108
vt 0.457622 0.921682
vt 0.437194 0.937856
vt 0.489207 0.968433
vt 0.645713 0.687182
vt 0.635037 0.679439
vt 0.354467 0.687183
vt 0.365135 0.679398
vt 0.645656 0.633972
vt 0.354466 0.633664
vt 0.354466 0.633664
vt 0.354467 0.687183
vt 0.645656 0.633972
vt 0.645713 0.687182
vt 0.635038 0.679394
vt 0.634998 0.641748
vt 0.365134 0.679398
vt 0.365133 0.641460
vt 0.634997 0.641704
vt 0.365133 0.641459
vt 0.365135 0.679398
vt 0.635037 0.679439
s 0
usemtl scanner_1
f 4/4/1 3/3/1 5/5/1 8/8/1
f 1/1/2 2/2/2 7/7/2 6/6/2
f 2/2/3 4/4/3 8/8/3 7/7/3
f 3/3/4 1/1/4 6/6/4 5/5/4
f 9/9/5 10/10/5 11/11/5 12/12/5
f 10/10/6 9/9/6 13/13/6 14/14/6
f 11/11/7 10/10/7 14/14/7 15/15/7
f 12/12/8 11/11/8 15/15/8 16/16/8
f 9/9/9 12/12/9 16/16/9 13/13/9
f 52/78/10 50/76/10 106/134/10 108/136/10
f 20/23/11 17/17/11 29/35/11 34/46/11
f 18/19/10 19/21/10 32/42/10 30/38/10
f 19/22/12 20/24/12 34/47/12 32/43/12
f 23/28/12 24/29/12 104/131/12 103/129/12
f 21/25/13 22/27/13 102/128/13 105/133/13
f 28/34/5 31/41/5 33/45/5 35/49/5
f 22/27/14 23/28/14 103/129/14 102/128/14
f 29/36/15 30/39/15 31/41/15 28/34/15
f 30/39/16 32/44/16 33/45/16 31/41/16
f 32/44/17 34/48/17 35/49/17 33/45/17
f 34/48/18 29/36/18 28/34/18 35/49/18
f 17/18/19 18/20/19 30/40/19 29/37/19
f 39/56/11 36/50/11 41/59/11 46/70/11
f 37/52/10 38/54/10 44/66/10 42/62/10
f 38/55/12 39/57/12 46/71/12 44/67/12
f 40/58/5 43/65/5 45/69/5 47/73/5
f 41/60/15 42/63/15 43/65/15 40/58/15
f 42/63/16 44/68/16 45/69/16 43/65/16
f 44/68/17 46/72/17 47/73/17 45/69/17
f 46/72/18 41/60/18 40/58/18 47/73/18
f 36/51/19 37/53/19 42/64/19 41/61/19
f 27/33/19 52/78/19 108/136/19 109/137/19
f 24/30/12 49/75/12 100/126/12 104/130/12
f 48/74/13 21/26/13 105/132/13 98/124/13
f 49/75/20 48/74/20 98/124/20 100/126/20
f 54/80/21 55/81/21 62/88/21 63/89/21
f 53/79/22 54/80/22 63/89/22 64/90/22
f 61/87/23 62/88/23 55/81/23 56/82/23
f 90/116/5 91/117/5 92/118/5 82/108/5
f 73/99/24 72/98/24 66/92/24 67/93/24
f 64/90/25 65/91/25 71/97/25 53/79/25
f 67/93/26 68/94/26 74/100/26 73/99/26
f 95/121/5 84/110/5 83/109/5 94/120/5
f 61/87/27 56/82/27 57/83/27 60/86/27
f 57/83/28 58/84/28 59/85/28 60/86/28
f 58/84/29 80/106/29 97/123/29 59/85/29
f 65/91/30 66/92/30 72/98/30 71/97/30
f 76/102/31 75/101/31 69/95/31 70/96/31
f 84/110/5 95/121/5 96/122/5 85/111/5
f 77/103/32 76/102/32 70/96/32 97/123/32
f 81/107/5 93/119/5 94/120/5 83/109/5
f 81/107/5 82/108/5 92/118/5 93/119/5
f 80/106/33 77/103/33 97/123/33
f 75/101/34 74/100/34 68/94/34 69/95/34
f 78/104/5 77/103/5 80/106/5 79/105/5
f 89/115/5 88/114/5 87/113/5 86/112/5
f 96/122/5 89/115/5 86/112/5 85/111/5
f 93/119/35 77/103/35 78/104/35 94/120/35
f 84/110/20 53/79/20 71/97/20 83/109/20
f 94/120/36 78/104/36 79/105/36 95/121/36
f 85/111/37 54/80/37 53/79/37 84/110/37
f 88/114/12 57/83/12 56/82/12 87/113/12
f 95/121/38 79/105/38 80/106/38 96/122/38
f 86/112/39 55/81/39 54/80/39 85/111/39
f 89/115/40 58/84/40 57/83/40 88/114/40
f 96/122/41 80/106/41 58/84/41 89/115/41
f 87/113/42 56/82/42 55/81/42 86/112/42
f 82/108/43 73/99/43 74/100/43 90/116/43
f 90/116/19 74/100/19 75/101/19 91/117/19
f 91/117/44 75/101/44 76/102/44 92/118/44
f 81/107/45 72/98/45 73/99/45 82/108/45
f 92/118/46 76/102/46 77/103/46 93/119/46
f 83/109/47 71/97/47 72/98/47 81/107/47
f 2/2/5 14/14/5 13/13/5 4/4/5
f 1/1/5 15/15/5 14/14/5 2/2/5
f 16/16/5 15/15/5 1/1/5 3/3/5
f 16/16/5 3/3/5 4/4/5 13/13/5
f 51/77/5 50/76/5 98/124/5 105/132/5
f 50/76/5 52/78/5 100/126/5 98/124/5
f 27/33/5 51/77/5 105/132/5 104/130/5
f 52/78/5 27/33/5 104/130/5 100/126/5
f 26/32/5 25/31/5 102/128/5 103/129/5
f 101/127/5 26/32/5 103/129/5 104/131/5
f 99/125/5 101/127/5 104/131/5 105/133/5
f 25/31/5 99/125/5 105/133/5 102/128/5
f 112/140/5 113/141/5 110/138/5 111/139/5
f 108/136/5 106/134/5 107/135/5 109/137/5
f 101/127/48 99/125/48 113/141/48 112/140/48
f 25/31/49 26/32/49 111/139/49 110/138/49
f 51/77/50 27/33/50 109/137/50 107/135/50
f 99/125/12 25/31/12 110/138/12 113/141/12
f 50/76/51 51/77/51 107/135/51 106/134/51
f 26/32/19 101/127/19 112/140/19 111/139/19
