# Blender 3.4.0
# www.blender.org
mtllib trash_1.mtl
o trash_1
v -0.500000 0.011000 -0.500000
v -0.500000 0.011000 0.500000
v 0.500000 0.011000 -0.500000
v 0.500000 0.011000 0.500000
v 0.300000 0.011000 -0.500000
v 0.100000 0.011000 -0.500000
v -0.100000 0.011000 -0.500000
v -0.300000 0.011000 -0.500000
v -0.300000 0.011000 0.500000
v -0.100000 0.011000 0.500000
v 0.100000 0.011000 0.500000
v 0.300000 0.011000 0.500000
v -0.500000 0.011000 -0.300000
v -0.500000 0.011000 -0.100000
v -0.500000 0.011000 0.100000
v -0.500000 0.011000 0.300000
v 0.500000 0.011000 0.300000
v 0.500000 0.011000 0.100000
v 0.500000 0.011000 -0.100000
v 0.500000 0.011000 -0.300000
v -0.300000 0.011000 0.300000
v -0.300000 0.011000 0.100000
v -0.300000 0.011000 -0.100000
v -0.300000 0.011000 -0.300000
v -0.100000 0.011000 0.300000
v -0.100000 0.025688 0.100000
v -0.100000 0.025688 -0.100000
v -0.100000 0.011000 -0.300000
v 0.100000 0.011000 0.300000
v 0.100000 0.025688 0.100000
v 0.100000 0.025688 -0.100000
v 0.100000 0.011000 -0.300000
v 0.300000 0.011000 0.300000
v 0.300000 0.011000 0.100000
v 0.300000 0.011000 -0.100000
v 0.300000 0.011000 -0.300000
vn 0.0092 0.9999 0.0092
vn -0.0000 1.0000 -0.0000
vn -0.0092 0.9999 0.0092
vn -0.0092 0.9996 0.0275
vn 0.0092 0.9996 0.0275
vn 0.0092 0.9996 -0.0275
vn 0.0092 0.9999 -0.0092
vn 0.0275 0.9992 -0.0275
vn 0.0275 0.9996 -0.0092
vn 0.0275 0.9992 0.0275
vn 0.0275 0.9996 0.0092
vn -0.0092 0.9996 -0.0275
vn -0.0275 0.9992 -0.0275
vn -0.0275 0.9992 0.0275
vn -0.0092 0.9999 -0.0092
vn -0.0275 0.9996 -0.0092
vn -0.0275 0.9996 0.0092
vt 0.000000 0.000000
vt 1.000000 0.000000
vt 0.000000 1.000000
vt 1.000000 1.000000
vt 0.000000 0.800000
vt 0.000000 0.600000
vt 0.000000 0.400000
vt 0.000000 0.200000
vt 1.000000 0.200000
vt 1.000000 0.400000
vt 1.000000 0.600000
vt 1.000000 0.800000
vt 0.200000 0.000000
vt 0.400000 0.000000
vt 0.600000 0.000000
vt 0.800000 0.000000
vt 0.800000 1.000000
vt 0.600000 1.000000
vt 0.400000 1.000000
vt 0.200000 1.000000
vt 0.800000 0.200000
vt 0.600000 0.200000
vt 0.400000 0.200000
vt 0.200000 0.200000
vt 0.800000 0.400000
vt 0.600000 0.400000
vt 0.400000 0.400000
vt 0.200000 0.400000
vt 0.800000 0.600000
vt 0.600000 0.600000
vt 0.400000 0.600000
vt 0.200000 0.600000
vt 0.800000 0.800000
vt 0.600000 0.800000
vt 0.400000 0.800000
vt 0.200000 0.800000
s 1
usemtl trash_1
f 33/33/1 12/12/2 4/4/2 17/17/2
f 16/16/2 2/2/2 9/9/2 21/21/3
f 21/21/3 9/9/2 10/10/2 25/25/4
f 25/25/4 10/10/2 11/11/2 29/29/5
f 29/29/5 11/11/2 12/12/2 33/33/1
f 6/6/2 32/32/6 36/36/7 5/5/2
f 32/32/6 31/31/8 35/35/9 36/36/7
f 31/31/8 30/30/10 34/34/11 35/35/9
f 30/30/10 29/29/5 33/33/1 34/34/11
f 7/7/2 28/28/12 32/32/6 6/6/2
f 28/28/12 27/27/13 31/31/8 32/32/6
f 27/27/13 26/26/14 30/30/10 31/31/8
f 26/26/14 25/25/4 29/29/5 30/30/10
f 8/8/2 24/24/15 28/28/12 7/7/2
f 24/24/15 23/23/16 27/27/13 28/28/12
f 23/23/16 22/22/17 26/26/14 27/27/13
f 22/22/17 21/21/3 25/25/4 26/26/14
f 1/1/2 13/13/2 24/24/15 8/8/2
f 13/13/2 14/14/2 23/23/16 24/24/15
f 14/14/2 15/15/2 22/22/17 23/23/16
f 15/15/2 16/16/2 21/21/3 22/22/17
f 5/5/2 36/36/7 20/20/2 3/3/2
f 36/36/7 35/35/9 19/19/2 20/20/2
f 35/35/9 34/34/11 18/18/2 19/19/2
f 34/34/11 33/33/1 17/17/2 18/18/2
