# Blender 3.4.0
# www.blender.org
mtllib tunnel_straight.mtl
o tunnel_straight
v -1.750000 1.000000 3.000000
v -0.669696 2.616789 3.000000
v -0.972248 2.455072 3.000000
v -1.237437 2.237437 3.000000
v -1.455072 1.972248 3.000000
v -1.616789 1.669696 3.000000
v -1.716374 1.341408 3.000000
v -1.750000 1.000000 -3.000000
v -1.716374 1.341408 -3.000000
v -1.616789 1.669696 -3.000000
v -1.455072 1.972248 -3.000000
v -1.237437 2.237437 -3.000000
v -0.972248 2.455072 -3.000000
v -0.669696 2.616789 -3.000000
v 1.750000 1.000000 3.000000
v 1.716374 1.341408 3.000000
v 1.616789 1.669696 3.000000
v 1.455072 1.972248 3.000000
v 1.237437 2.237437 3.000000
v 0.972248 2.455072 3.000000
v 0.669696 2.616789 3.000000
v 1.750000 1.000000 -3.000000
v 0.669696 2.616789 -3.000000
v 0.972248 2.455072 -3.000000
v 1.237437 2.237437 -3.000000
v 1.455072 1.972248 -3.000000
v 1.616789 1.669696 -3.000000
v 1.716374 1.341408 -3.000000
v -0.166765 2.716374 3.000000
v -0.166766 2.716374 -3.000000
v 0.166766 2.716374 3.000000
v 0.166765 2.716374 -3.000000
v -1.698511 0.649598 3.000000
v -1.718335 0.678496 3.000000
v -1.711716 0.661787 3.000000
v -1.595455 0.580523 3.000000
v -1.617864 0.608994 3.000000
v -1.603901 0.596930 3.000000
v -1.440000 0.000000 3.000000
v -1.464545 0.019477 3.000000
v -1.455473 0.005705 3.000000
v -1.464545 0.019477 -3.000000
v -1.440000 -0.000000 -3.000000
v -1.455473 0.005705 -3.000000
v -1.617864 0.608994 -3.000000
v -1.595455 0.580523 -3.000000
v -1.603901 0.596930 -3.000000
v -1.718335 0.678496 -3.000000
v -1.698511 0.649598 -3.000000
v -1.711716 0.661787 -3.000000
v 1.464545 0.019477 3.000000
v 1.440000 0.000000 3.000000
v 1.455473 0.005705 3.000000
v 1.617864 0.608994 3.000000
v 1.595455 0.580523 3.000000
v 1.603901 0.596930 3.000000
v 1.718335 0.678496 3.000000
v 1.698511 0.649598 3.000000
v 1.711716 0.661787 3.000000
v 1.698511 0.649598 -3.000000
v 1.718335 0.678496 -3.000000
v 1.711716 0.661787 -3.000000
v 1.595455 0.580523 -3.000000
v 1.617864 0.608994 -3.000000
v 1.603901 0.596930 -3.000000
v 1.440000 -0.000000 -3.000000
v 1.464545 0.019477 -3.000000
v 1.455473 0.005705 -3.000000
vn -0.0000 1.0000 -0.0000
vn 0.9719 0.2354 -0.0000
vn 1.0000 -0.0000 -0.0000
vn 0.9188 0.3948 -0.0000
vn 0.9386 0.3451 -0.0000
vn 0.3365 -0.9417 -0.0000
vn 0.5556 -0.8315 -0.0000
vn 0.7071 -0.7071 -0.0000
vn 0.8315 -0.5556 -0.0000
vn 0.9239 -0.3827 -0.0000
vn 0.9808 -0.1951 -0.0000
vn -0.5560 0.8312 -0.0000
vn -0.5695 0.8220 -0.0000
vn -0.9719 0.2354 -0.0000
vn -1.0000 -0.0000 -0.0000
vn -0.3365 -0.9417 -0.0000
vn -0.5556 -0.8315 -0.0000
vn -0.7071 -0.7071 -0.0000
vn -0.8315 -0.5556 -0.0000
vn -0.9239 -0.3827 -0.0000
vn -0.9808 -0.1951 -0.0000
vn -0.9188 0.3948 -0.0000
vn -0.9386 0.3451 -0.0000
vn -0.0976 -0.9952 -0.0000
vn 0.0976 -0.9952 -0.0000
vn 0.7858 0.6185 -0.0000
vn 0.5560 0.8312 -0.0000
vn 0.5695 0.8220 -0.0000
vn 0.6783 0.7348 -0.0000
vn 0.9297 0.3683 -0.0000
vn -0.7858 0.6185 -0.0000
vn -0.6783 0.7348 -0.0000
vn -0.9297 0.3683 -0.0000
vn 0.3459 0.9383 -0.0000
vn 0.6216 0.7833 -0.0000
vn -0.3459 0.9383 -0.0000
vn -0.6216 0.7833 -0.0000
vt 0.104294 2.000000
vt 0.165152 2.000000
vt 0.013876 2.000000
vt -0.118718 2.000000
vt 0.723012 2.000000
vt 0.590418 2.000000
vt 0.439142 2.000000
vt 0.274998 2.000000
vt 0.104294 -1.000000
vt 0.274998 -1.000000
vt 0.439142 -1.000000
vt 0.590418 -1.000000
vt -0.118718 -1.000000
vt 0.723012 -1.000000
vt 0.013876 -1.000000
vt 0.165152 -1.000000
vt 0.104294 2.000000
vt 0.274998 2.000000
vt 0.439142 2.000000
vt 0.590418 2.000000
vt 1.118718 2.000000
vt 0.723012 2.000000
vt 0.986124 2.000000
vt 0.834848 2.000000
vt 0.104294 -1.000000
vt 0.834848 -1.000000
vt 0.986124 -1.000000
vt 1.118718 -1.000000
vt 0.723012 -1.000000
vt 0.590418 -1.000000
vt 0.439142 -1.000000
vt 0.274998 -1.000000
vt 0.416617 2.000000
vt 0.416617 -1.000000
vt 0.583383 2.000000
vt 0.583383 -1.000000
vt -0.349255 2.000000
vt -0.056458 2.000000
vt -0.355858 2.000000
vt -0.064812 2.000000
vt 0.128010 2.000000
vt -0.308932 2.000000
vt 0.136213 2.000000
vt -0.301951 2.000000
vt -0.220000 2.000000
vt -0.152513 2.000000
vt -0.227737 2.000000
vt -0.159399 2.000000
vt -0.152514 -1.000000
vt -0.220000 -1.000000
vt -0.227737 -1.000000
vt -0.159400 -1.000000
vt -0.308932 -1.000000
vt 0.128010 -1.000000
vt 0.136213 -1.000000
vt -0.301951 -1.000000
vt -0.056458 -1.000000
vt -0.349255 -1.000000
vt -0.355858 -1.000000
vt -0.064812 -1.000000
vt -0.152513 2.000000
vt 1.220000 2.000000
vt 1.227737 2.000000
vt -0.159399 2.000000
vt 1.308932 2.000000
vt 0.128010 2.000000
vt 0.136213 2.000000
vt 1.301950 2.000000
vt -0.056458 2.000000
vt 1.349255 2.000000
vt 1.355858 2.000000
vt -0.064812 2.000000
vt 1.349255 -1.000000
vt -0.056458 -1.000000
vt 1.355858 -1.000000
vt -0.064812 -1.000000
vt 0.128010 -1.000000
vt 1.308932 -1.000000
vt 0.136213 -1.000000
vt 1.301950 -1.000000
vt 1.220000 -1.000000
vt -0.152514 -1.000000
vt 1.227737 -1.000000
vt -0.159400 -1.000000
s 1
usemtl metal_floor_2
f 48/57/2 8/9/3 1/1/3 34/38/2
f 2/2/6 3/3/7 13/15/7 14/16/6
f 3/3/7 4/4/8 12/13/8 13/15/7
f 4/5/8 5/6/9 11/12/9 12/14/8
f 5/6/9 6/7/10 10/11/10 11/12/9
f 6/7/10 7/8/11 9/10/11 10/11/10
f 7/8/11 1/1/3 8/9/3 9/10/11
f 57/69/14 15/17/15 22/25/15 61/74/14
f 23/26/16 24/27/17 20/23/17 21/24/16
f 24/27/17 25/28/18 19/21/18 20/23/17
f 25/29/18 26/30/19 18/20/19 19/22/18
f 26/30/19 27/31/20 17/19/20 18/20/19
f 27/31/20 28/32/21 16/18/21 17/19/20
f 28/32/21 22/25/15 15/17/15 16/18/21
f 31/35/24 29/33/25 30/34/25 32/36/24
f 30/34/25 29/33/25 2/2/6 14/16/6
f 31/35/24 32/36/24 23/26/16 21/24/16
f 35/40/30 50/60/30 48/57/2 34/38/2
f 62/76/33 59/72/33 57/69/14 61/74/14
usemtl concrete_1
f 52/62/1 66/81/1 43/50/1 39/45/1
f 42/49/4 46/54/5 36/41/5 40/46/4
f 54/65/12 58/70/13 60/73/13 64/78/12
f 51/61/22 55/66/23 63/77/23 67/82/22
f 36/41/5 46/54/5 47/55/26 38/43/26
f 38/44/26 47/56/26 45/53/27 37/42/27
f 33/37/28 49/58/28 50/59/29 35/39/29
f 63/77/23 55/66/23 56/67/31 65/79/31
f 65/80/31 56/68/31 54/65/12 64/78/12
f 60/73/13 58/70/13 59/71/32 62/75/32
f 39/45/34 43/50/34 44/51/35 41/47/35
f 41/48/35 44/52/35 42/49/4 40/46/4
f 66/81/36 52/62/36 53/63/37 68/83/37
f 68/84/37 53/64/37 51/61/22 67/82/22
f 45/53/27 49/58/28 33/37/28 37/42/27
