# Blender 3.4.0
# www.blender.org
mtllib wooden_crate_9.mtl
o wooden_crate_9
v 0.470298 0.089965 0.550000
v 0.468971 0.010000 0.470989
v 0.550000 0.090205 0.471212
v 0.529619 0.015832 0.544412
v 0.541390 0.018489 0.542013
v 0.543854 0.015936 0.531102
v 0.544236 0.030088 0.544485
v 0.471212 0.090205 -0.550000
v 0.550000 0.089965 -0.470298
v 0.468764 0.010000 -0.470553
v 0.544485 0.030088 -0.544236
v 0.541538 0.018489 -0.541726
v 0.543792 0.015866 -0.530421
v 0.529967 0.015913 -0.544295
v -0.470035 0.010000 -0.470298
v -0.550000 0.090205 -0.471212
v -0.470298 0.089965 -0.550000
v -0.544152 0.015919 -0.530751
v -0.541617 0.018489 -0.541865
v -0.544236 0.030088 -0.544485
v -0.530165 0.015840 -0.544221
v -0.550000 1.028971 -0.470989
v -0.469795 1.110000 -0.471212
v -0.470552 1.028764 -0.550000
v -0.544064 1.103854 -0.531102
v -0.541617 1.101069 -0.542012
v -0.530153 1.103808 -0.544460
v -0.544314 1.088869 -0.544420
v 0.550000 1.028764 -0.470552
v 0.470989 1.028971 -0.550000
v 0.468971 1.110000 -0.470989
v 0.544420 1.088869 -0.544313
v 0.541530 1.101069 -0.541873
v 0.529936 1.103869 -0.544394
v 0.543841 1.103779 -0.530772
v -0.470035 1.110000 0.470298
v -0.550000 1.028764 0.470553
v -0.470989 1.028971 0.550000
v -0.544135 1.103792 0.530421
v -0.541761 1.101069 0.541726
v -0.544420 1.088869 0.544314
v -0.530499 1.103860 0.544203
v 0.470552 1.028764 0.550000
v 0.550000 1.028971 0.470989
v 0.468764 1.110000 0.470553
v 0.544313 1.088869 0.544421
v 0.541396 1.101069 0.541874
v 0.543779 1.103841 0.530773
v 0.529624 1.103799 0.544278
v -0.550000 0.089965 0.470298
v -0.469795 0.010000 0.471211
v -0.471212 0.090205 0.550000
v -0.544081 0.015848 0.530751
v -0.541755 0.018489 0.541865
v -0.530479 0.015905 0.544477
v -0.544485 0.030088 0.544236
v 0.528751 0.010000 -0.530569
v -0.530050 0.010000 -0.530282
v 0.528751 1.110000 0.530569
v -0.530050 1.110000 0.530282
v 0.528984 1.110000 -0.530974
v -0.529780 0.010000 0.531226
v 0.528984 0.010000 0.530974
v -0.529780 1.110000 -0.531226
v -0.530282 0.029950 -0.550000
v 0.531226 0.030220 -0.550000
v -0.530974 1.088984 0.550000
v 0.530569 1.088751 0.550000
v -0.531226 0.030220 0.550000
v 0.530282 0.029950 0.550000
v -0.530569 1.088751 -0.550000
v 0.530974 1.088984 -0.550000
v 0.550000 1.088984 0.530974
v 0.550000 1.088751 -0.530569
v -0.550000 1.088751 0.530569
v -0.550000 0.029950 0.530282
v 0.550000 0.030220 0.531226
v 0.550000 0.029950 -0.530282
v -0.550000 0.030220 -0.531226
v -0.550000 1.088984 -0.530974
v -0.470298 0.089965 -0.530000
v 0.471212 0.090205 -0.530000
v -0.470552 1.028764 -0.530000
v 0.470989 1.028971 -0.530000
v 0.468764 1.090000 0.470553
v -0.470035 1.090000 0.470298
v 0.468971 1.090000 -0.470989
v -0.469795 1.090000 -0.471212
v 0.530000 1.028971 0.470989
v 0.530000 1.028764 -0.470552
v 0.530000 0.090205 0.471212
v 0.530000 0.089965 -0.470298
v -0.470989 1.028971 0.530000
v 0.470552 1.028764 0.530000
v -0.471212 0.090205 0.530000
v 0.470298 0.089965 0.530000
v 0.468764 0.030000 -0.470553
v -0.470035 0.030000 -0.470298
v -0.469795 0.030000 0.471211
v 0.468971 0.030000 0.470989
v -0.530000 1.028764 0.470553
v -0.530000 0.089965 0.470298
v -0.530000 0.090205 -0.471212
v -0.530000 1.028971 -0.470989
vn 0.0003 -0.0000 -1.0000
vn 0.3102 -0.3226 0.8943
vn 0.3152 -0.8898 0.3301
vn 0.8797 -0.3391 0.3335
vn 0.3293 -0.3336 -0.8834
vn 0.8861 -0.3445 -0.3102
vn 0.3160 -0.8939 -0.3180
vn -0.3219 -0.8877 -0.3291
vn -0.8835 -0.3287 -0.3337
vn -0.3122 -0.3249 -0.8927
vn -0.8894 0.3118 -0.3342
vn -0.3365 0.8728 -0.3535
vn -0.3176 0.2987 -0.8999
vn 0.8920 0.3225 -0.3169
vn 0.3285 0.3124 -0.8913
vn 0.3348 0.8803 -0.3360
vn -0.3426 0.8779 0.3346
vn -0.8957 0.3121 0.3168
vn -0.3309 0.3139 0.8899
vn 0.3126 0.3161 0.8957
vn 0.8838 0.3320 0.3296
vn 0.3211 0.8842 0.3393
vn -0.8923 -0.3236 0.3149
vn -0.3312 -0.8832 0.3319
vn -0.3346 -0.3154 0.8880
vn -0.0000 -0.9204 -0.3910
vn -0.0000 -0.3747 -0.9271
vn -0.0000 0.9131 0.4078
vn -0.0000 0.3593 0.9332
vn 0.9239 0.3827 -0.0000
vn 0.3827 0.9239 -0.0000
vn -0.3941 -0.0000 0.9191
vn -0.9283 -0.0000 0.3718
vn 0.9191 -0.0000 0.3941
vn -0.0000 -0.9154 0.4026
vn -0.0000 -0.3640 0.9314
vn 0.9283 -0.0000 -0.3718
vn -0.3718 -0.0000 -0.9283
vn -0.9191 -0.0000 -0.3941
vn -0.0000 0.9077 -0.4196
vn -0.0000 0.3489 -0.9372
vn -0.3827 -0.9239 -0.0000
vn -0.9239 -0.3827 -0.0000
vn -0.3993 0.9168 -0.0000
vn -0.9302 0.3670 -0.0000
vn 0.3670 -0.9302 -0.0000
vn 0.9168 -0.3993 -0.0000
vn -0.0000 -0.0000 1.0000
vn 0.3718 0.0036 0.9283
vn 0.3718 -0.0000 0.9283
vn -0.0000 -0.0002 -1.0000
vn 0.3941 -0.0034 -0.9191
vn 0.3941 -0.0000 -0.9191
vn -0.0000 -0.0000 -1.0000
vn -0.0000 1.0000 0.0003
vn 0.0003 -0.0000 1.0000
vn 1.0000 0.0003 -0.0000
vn 1.0000 -0.0002 -0.0000
vn -0.0000 -1.0000 -0.0000
vn -0.0000 1.0000 -0.0000
vn -0.0991 0.3584 0.9283
vn 0.3199 0.1896 0.9283
vn -0.1047 -0.3799 -0.9191
vn 0.3393 -0.2004 -0.9191
vn -0.1947 0.3427 -0.9191
vn 0.3817 0.0982 -0.9191
vn -0.1833 -0.3235 0.9283
vn 0.3602 -0.0921 0.9283
vn 1.0000 -0.0000 -0.0000
vn -1.0000 -0.0000 -0.0000
vn 0.3941 -0.0033 -0.9191
vn -0.0003 1.0000 -0.0000
vn 0.0002 -1.0000 -0.0000
vn 0.3943 -0.9190 0.0034
vn -0.0032 -0.9191 0.3941
vn -0.9191 -0.0036 -0.3941
vn -1.0000 -0.0002 -0.0000
vn -0.9192 0.3939 -0.0034
vn 1.0000 -0.0000 0.0003
vn -0.0002 -0.0000 1.0000
vn -1.0000 -0.0000 -0.0002
vn -0.0000 -1.0000 0.0002
vn -0.0000 1.0000 -0.0003
vn -0.0000 0.0003 1.0000
vn -0.9283 0.0040 0.3718
vn -1.0000 0.0003 -0.0000
vn -0.9284 -0.3715 0.0037
vn 0.0003 1.0000 -0.0000
vn 0.3720 0.9282 -0.0037
vn -0.0035 0.9283 -0.3718
vn -0.0002 -1.0000 -0.0000
vn -1.0000 -0.0000 0.0002
vn 1.0000 -0.0000 -0.0003
vn -0.0002 -0.0000 -1.0000
vn -0.0000 0.0003 -1.0000
vn -0.0000 -1.0000 -0.0002
vn -0.0000 -0.0002 1.0000
vt 0.927544 0.072696
vt 0.071829 0.926337
vt 0.071626 0.072914
vt 0.000000 0.981472
vt 0.981472 0.000000
vt 0.992172 0.000000
vt 0.007261 1.000000
vt 0.000000 0.007717
vt 0.017180 1.000000
vt 0.017180 0.000000
vt 0.000000 0.018262
vt 1.000000 0.018262
vt 0.071626 0.072914
vt 0.927544 0.072696
vt 0.927775 0.926149
vt 1.000000 0.018262
vt 0.000000 0.018262
vt 0.000000 0.007718
vt 0.992478 0.000000
vt 1.000000 0.992307
vt 0.982201 1.000000
vt 0.982201 0.000000
vt 1.000000 0.981788
vt 0.018212 0.000000
vt 0.927544 0.072696
vt 0.071626 0.072914
vt 0.927544 0.072696
vt 0.982501 0.000000
vt 0.017499 0.000000
vt 0.992605 0.000000
vt 0.000000 0.007717
vt 0.992379 0.000000
vt 1.000000 0.018262
vt 0.000000 0.018262
vt 1.000000 0.018031
vt 0.981969 0.000000
vt 0.071829 0.926337
vt 0.071626 0.072914
vt 0.927775 0.926149
vt 0.017180 0.000000
vt 0.017180 1.000000
vt 0.007261 1.000000
vt 0.000000 0.007621
vt 1.000000 0.991881
vt 0.000000 0.018043
vt 0.981957 1.000000
vt 1.000000 0.980790
vt 0.000000 0.980790
vt 0.927775 0.926149
vt 0.071828 0.926337
vt 0.071828 0.926337
vt 1.000000 0.980790
vt 0.000000 0.980790
vt 1.000000 0.991881
vt 0.007700 1.000000
vt 0.007388 1.000000
vt 0.000000 0.981760
vt 0.018240 1.000000
vt 0.982521 1.000000
vt 0.017479 1.000000
vt 0.927544 0.072696
vt 0.927775 0.926149
vt 0.071829 0.926337
vt 0.982201 0.000000
vt 0.982201 1.000000
vt 0.992478 0.000000
vt 1.000000 0.991881
vt 0.007490 1.000000
vt 0.000000 0.980790
vt 1.000000 0.980790
vt 1.000000 0.017728
vt 0.017728 1.000000
vt 0.927775 0.926149
vt 0.071829 0.926337
vt 0.927775 0.926149
vt 0.000000 0.980790
vt 1.000000 0.980790
vt 1.000000 0.991881
vt 0.007388 1.000000
vt 1.000000 0.992179
vt 0.017480 1.000000
vt 0.982520 1.000000
vt 1.000000 0.981476
vt 0.981476 1.000000
vt 0.927544 0.072696
vt 0.071626 0.072914
vt 0.071626 0.072914
vt 0.017499 0.000000
vt 0.982501 0.000000
vt 0.992605 0.000000
vt 0.000000 0.007495
vt 0.000000 0.007718
vt 0.000000 0.017746
vt 0.017746 0.000000
vt 0.000000 0.018262
vt 1.000000 0.018262
vt 0.982335 0.980683
vt 0.982074 0.018136
vt 0.982335 0.980683
vt 0.982074 0.018136
vt 0.017296 0.980895
vt 0.017067 0.018382
vt 0.017296 0.980895
vt 0.017067 0.018382
vt 0.982074 0.018136
vt 0.017067 0.018382
vt 0.017296 0.980895
vt 0.982335 0.980683
vt 0.017067 0.018382
vt 0.982074 0.018136
vt 0.982335 0.980683
vt 0.017296 0.980895
vt 0.017296 0.980895
vt 0.982335 0.980683
vt 0.982335 0.980683
vt 0.982074 0.018136
vt 0.017067 0.018382
vt 0.982074 0.018136
vt 0.017067 0.018382
vt 0.017296 0.980895
vt 0.927544 0.072696
vt 0.071626 0.072914
vt 0.927775 0.926149
vt 0.071828 0.926337
vt 0.927775 0.926149
vt 0.927544 0.072696
vt 0.071828 0.926337
vt 0.071626 0.072914
vt 0.071829 0.926337
vt 0.927775 0.926149
vt 0.071626 0.072914
vt 0.927544 0.072696
vt 0.071829 0.926337
vt 0.927775 0.926149
vt 0.071626 0.072914
vt 0.927544 0.072696
vt 0.927775 0.926149
vt 0.927544 0.072696
vt 0.071626 0.072914
vt 0.071829 0.926337
vt 0.927775 0.926149
vt 0.927544 0.072696
vt 0.071626 0.072914
vt 0.071829 0.926337
s 0
usemtl wooden_crate_9
f 36/61/1 45/75/1 85/125/1 86/126/1
f 70/110/2 4/5/2 5/6/2 7/12/2
f 63/103/3 6/9/3 5/7/3 4/4/3
f 77/117/4 7/11/4 5/8/4 6/10/4
f 66/106/5 11/17/5 12/18/5 14/24/5
f 78/118/6 13/22/6 12/19/6 11/16/6
f 57/97/7 14/23/7 12/20/7 13/21/7
f 58/98/8 18/28/8 19/30/8 21/35/8
f 79/119/9 20/34/9 19/31/9 18/29/9
f 65/105/10 21/36/10 19/32/10 20/33/10
f 80/120/11 25/41/11 26/42/11 28/48/11
f 64/104/12 27/45/12 26/43/12 25/40/12
f 71/111/13 28/47/13 26/44/13 27/46/13
f 74/114/14 32/52/14 33/54/14 35/59/14
f 72/112/15 34/58/15 33/55/15 32/53/15
f 61/101/16 35/60/16 33/56/16 34/57/16
f 60/100/17 39/64/17 40/66/17 42/71/17
f 75/115/18 41/70/18 40/67/18 39/65/18
f 67/107/19 42/72/19 40/68/19 41/69/19
f 68/108/20 46/77/20 47/78/20 49/84/20
f 73/113/21 48/81/21 47/79/21 46/76/21
f 59/99/22 49/83/22 47/80/22 48/82/22
f 76/116/23 53/89/23 54/90/23 56/96/23
f 62/102/24 55/93/24 54/91/24 53/88/24
f 69/109/25 56/95/25 54/92/25 55/94/25
f 57/97/26 58/98/26 21/35/26 14/23/26
f 14/24/27 21/36/27 65/105/27 66/106/27
f 59/99/28 60/100/28 42/71/28 49/83/28
f 49/84/29 42/72/29 67/107/29 68/108/29
f 73/113/30 74/114/30 35/59/30 48/81/30
f 48/82/31 35/60/31 61/101/31 59/99/31
f 69/109/32 67/107/32 41/69/32 56/95/32
f 56/96/33 41/70/33 75/115/33 76/116/33
f 46/76/34 7/11/34 77/117/34 73/113/34
f 62/102/35 63/103/35 4/4/35 55/93/35
f 55/94/36 4/5/36 70/110/36 69/109/36
f 11/16/37 32/52/37 74/114/37 78/118/37
f 71/111/38 65/105/38 20/33/38 28/47/38
f 28/48/39 20/34/39 79/119/39 80/120/39
f 64/104/40 61/101/40 34/57/40 27/45/40
f 27/46/41 34/58/41 72/112/41 71/111/41
f 58/98/42 62/102/42 53/88/42 18/28/42
f 18/29/43 53/89/43 76/116/43 79/119/43
f 60/100/44 64/104/44 25/40/44 39/64/44
f 39/65/45 25/41/45 80/120/45 75/115/45
f 63/103/46 57/97/46 13/21/46 6/9/46
f 6/10/47 13/22/47 78/118/47 77/117/47
f 68/108/48 70/110/49 7/12/50 46/77/50
f 44/74/51 3/3/51 91/131/51 89/129/51
f 72/112/52 32/53/53 11/17/53 66/106/54
f 16/26/55 50/85/55 102/142/55 103/143/55
f 15/25/56 10/15/56 97/137/56 98/138/56
f 17/27/57 24/39/57 83/123/57 81/121/57
f 38/63/58 52/87/58 95/135/58 93/133/58
f 10/15/59 15/25/59 58/98/59 57/97/59
f 45/75/60 36/61/60 60/100/60 59/99/60
f 31/51/60 45/75/60 59/99/60 61/101/60
f 51/86/59 2/2/59 63/103/59 62/102/59
f 23/38/60 31/51/60 61/101/60 64/104/60
f 15/25/59 51/86/59 62/102/59 58/98/59
f 36/61/60 23/38/60 64/104/60 60/100/60
f 2/2/59 10/15/59 57/97/59 63/103/59
f 17/27/54 8/13/54 66/106/54 65/105/54
f 38/63/48 43/73/48 68/108/48 67/107/48
f 52/87/48 38/63/48 67/107/48 69/109/48
f 1/1/61 52/87/48 69/109/48 70/110/62
f 24/39/54 17/27/54 65/105/54 71/111/54
f 30/50/63 24/39/54 71/111/54 72/112/64
f 8/13/54 30/50/65 72/112/66 66/106/54
f 43/73/48 1/1/67 70/110/68 68/108/48
f 44/74/69 29/49/69 74/114/69 73/113/69
f 37/62/70 50/85/70 76/116/70 75/115/70
f 3/3/69 44/74/69 73/113/69 77/117/69
f 29/49/69 9/14/69 78/118/69 74/114/69
f 16/26/70 22/37/70 80/120/70 79/119/70
f 50/85/70 16/26/70 79/119/70 76/116/70
f 22/37/70 37/62/70 75/115/70 80/120/70
f 9/14/69 3/3/69 77/117/69 78/118/69
f 83/123/54 84/124/71 82/122/54 81/121/54
f 8/13/72 17/27/72 81/121/72 82/122/72
f 24/39/73 30/50/74 84/124/75 83/123/73
f 30/50/76 8/13/77 82/122/77 84/124/78
f 85/125/60 87/127/60 88/128/60 86/126/60
f 23/38/79 36/61/79 86/126/79 88/128/79
f 31/51/80 23/38/80 88/128/80 87/127/80
f 45/75/81 31/51/81 87/127/81 85/125/81
f 90/130/69 89/129/69 91/131/69 92/132/69
f 29/49/82 44/74/82 89/129/82 90/130/82
f 3/3/83 9/14/83 92/132/83 91/131/83
f 9/14/84 29/49/84 90/130/84 92/132/84
f 93/133/48 95/135/48 96/136/49 94/134/48
f 1/1/85 43/73/86 94/134/86 96/136/87
f 52/87/88 1/1/89 96/136/90 95/135/88
f 43/73/91 38/63/91 93/133/91 94/134/91
f 97/137/59 100/140/59 99/139/59 98/138/59
f 10/15/92 2/2/92 100/140/92 97/137/92
f 51/86/93 15/25/93 98/138/93 99/139/93
f 2/2/94 51/86/94 99/139/94 100/140/94
f 101/141/70 104/144/70 103/143/70 102/142/70
f 50/85/95 37/62/95 101/141/95 102/142/95
f 37/62/96 22/37/96 104/144/96 101/141/96
f 22/37/97 16/26/97 103/143/97 104/144/97
