# Blender 3.4.0
# www.blender.org
mtllib mask_mx_5.mtl
o mask_mx_5
v -0.041610 0.036250 0.120278
v -0.055509 0.036250 -0.111924
v 0.041610 0.036250 0.120278
v 0.055509 0.036250 -0.111924
v -0.083242 0.040833 0.011254
v 0.083242 0.040833 0.011254
v -0.080354 0.040048 -0.070618
v -0.000000 0.039264 -0.132811
v 0.067560 0.040048 0.085997
v 0.000000 0.039263 0.136299
v -0.067560 0.040048 0.085997
v 0.080354 0.040048 -0.070618
v -0.000000 0.054673 0.011254
v -0.072027 -0.000677 -0.137877
v 0.114835 -0.000677 0.011226
v -0.114835 -0.000677 0.011226
v -0.000000 0.053612 0.086792
v 0.000000 0.053612 -0.071630
v 0.048946 0.045624 -0.049651
v 0.066772 0.042711 -0.044426
v 0.081666 0.040405 -0.033421
v 0.077530 0.041440 -0.010925
v 0.062470 0.044148 0.002291
v 0.049561 0.046352 0.005980
v 0.030197 0.049485 0.000448
v 0.019133 0.051125 -0.013383
v 0.018518 0.050997 -0.031518
v 0.031426 0.048643 -0.045041
v -0.047870 0.045850 -0.050573
v -0.029430 0.049019 -0.047192
v -0.015905 0.051454 -0.033668
v -0.015598 0.051745 -0.014920
v -0.026663 0.050094 -0.000167
v -0.046949 0.046816 0.007210
v -0.066004 0.043588 0.002600
v -0.077991 0.041338 -0.013383
v -0.081580 0.040382 -0.035871
v -0.068462 0.042441 -0.045963
v -0.031259 0.041447 -0.043629
v -0.063807 0.036594 -0.000814
v 0.077509 0.033809 -0.031753
v 0.074053 0.034676 -0.012952
v 0.033411 0.041047 -0.041598
v -0.041610 0.031250 0.120278
v -0.055509 0.031250 -0.111924
v 0.041610 0.031250 0.120278
v 0.055509 0.031250 -0.111924
v -0.083242 0.035833 0.011254
v 0.083242 0.035833 0.011254
v -0.080354 0.035048 -0.070618
v -0.000000 0.034264 -0.132811
v 0.067560 0.035048 0.085997
v 0.000000 0.034263 0.136299
v -0.067560 0.035048 0.085997
v 0.080354 0.035048 -0.070618
v -0.000000 0.049673 0.011254
v -0.051222 -0.000678 0.140199
v 0.072027 -0.000677 -0.137877
v 0.051222 -0.000678 0.140199
v -0.000000 0.048612 0.086791
v 0.000000 0.048612 -0.071630
v -0.092362 -0.000677 0.087398
v 0.110567 -0.000677 -0.072495
v 0.000000 -0.000678 0.158539
v 0.092362 -0.000677 0.087398
v 0.000000 -0.000677 -0.161248
v -0.110567 -0.000677 -0.072495
v 0.048946 0.040624 -0.049651
v 0.066772 0.037711 -0.044426
v 0.081666 0.035405 -0.033421
v 0.077530 0.036440 -0.010925
v 0.062470 0.039148 0.002291
v 0.049561 0.041352 0.005980
v 0.030197 0.044485 0.000448
v 0.019133 0.046125 -0.013383
v 0.018518 0.045997 -0.031518
v 0.031426 0.043643 -0.045041
v -0.047870 0.040850 -0.050573
v -0.029430 0.044019 -0.047192
v -0.015905 0.046454 -0.033668
v -0.015598 0.046745 -0.014920
v -0.026663 0.045094 -0.000167
v -0.046949 0.041816 0.007210
v -0.066004 0.038588 0.002600
v -0.077991 0.036338 -0.013383
v -0.081580 0.035382 -0.035871
v -0.068462 0.037441 -0.045963
v -0.047804 0.033601 -0.046662
v -0.019663 0.038532 -0.032033
v -0.019402 0.038774 -0.016178
v -0.028991 0.037343 -0.003392
v -0.047157 0.034409 0.003214
v -0.074407 0.029601 -0.014949
v -0.077481 0.028777 -0.034215
v -0.066843 0.030448 -0.042400
v 0.048901 0.033375 -0.045674
v 0.065088 0.030729 -0.040929
v 0.060625 0.032090 -0.001169
v 0.049552 0.033979 0.001996
v 0.032374 0.036757 -0.002912
v 0.022870 0.038165 -0.014793
v 0.022355 0.038063 -0.030015
vn -0.0000 0.9887 0.1496
vn -0.4109 0.7300 0.5461
vn -0.0000 0.7582 0.6520
vn 0.4109 0.7300 0.5461
vn 0.5403 0.7892 0.2919
vn -0.5047 -0.8441 0.1810
vn -0.1722 -0.9079 -0.3823
vn -0.0003 -0.9935 0.1136
vn -0.3869 0.7952 -0.4668
vn 0.0003 0.9935 -0.1136
vn -0.0000 0.8131 -0.5822
vn -0.1642 0.9863 -0.0127
vn -0.1640 0.9864 -0.0126
vn 0.0003 1.0000 0.0089
vn 0.5331 0.8248 -0.1886
vn 0.1647 0.9862 -0.0149
vn 0.6680 0.7434 -0.0331
vn 0.1640 0.9863 -0.0152
vn 0.5478 0.8349 0.0538
vn 0.1666 0.9859 -0.0126
vn -0.5480 0.8347 0.0541
vn -0.1644 0.9863 -0.0135
vn -0.1663 0.9860 -0.0153
vn -0.1666 0.9859 -0.0153
vn -0.5334 0.8245 -0.1889
vn -0.6729 0.7390 -0.0332
vn -0.0000 -0.9887 -0.1496
vn 0.3966 -0.7525 -0.5258
vn 0.5171 -0.8079 -0.2825
vn -0.3966 -0.7525 -0.5258
vn -0.5171 -0.8079 -0.2825
vn -0.3674 -0.8179 0.4427
vn -0.0000 -0.8346 0.5508
vn 0.3674 -0.8179 0.4427
vn -0.0003 -1.0000 -0.0089
vn 0.4482 -0.8859 -0.1197
vn 0.0601 -0.9197 -0.3879
vn 0.7291 -0.6516 0.2095
vn 0.5050 -0.8439 0.1813
vn 0.1679 -0.9744 -0.1494
vn -0.5206 -0.8522 -0.0514
vn 0.0623 -0.9171 0.3937
vn 0.0899 -0.9824 0.1638
vn -0.4497 -0.8868 -0.1068
vn 0.5209 -0.8521 -0.0516
vn -0.2454 -0.9467 0.2087
vn -0.0332 -0.9504 0.3093
vn -0.0455 -0.9029 -0.4274
vn 0.1691 -0.8995 -0.4028
vn 0.8334 0.3572 -0.4218
vn 0.8576 0.3503 -0.3767
vn 0.8690 0.3560 0.3436
vn 0.8573 0.3559 0.3719
vn -0.5403 0.7892 0.2919
vn 0.3869 0.7952 -0.4668
vn 0.4411 0.3866 -0.8099
vn 0.4770 0.3874 -0.7889
vn -0.1658 0.9860 -0.0144
vn 0.1663 0.9860 -0.0131
vn 0.7710 0.5238 0.3622
vn 0.8075 0.5846 0.0788
vn 0.7683 0.6007 -0.2211
vn 0.5073 0.4867 0.7112
vn 0.7696 -0.6341 -0.0751
vn 0.3453 0.3098 0.8859
vn 0.3805 0.3102 0.8712
vn -0.0169 0.3331 0.9427
vn -0.0828 0.3423 0.9359
vn -0.0000 0.5127 0.8586
vn 0.7407 -0.5751 -0.3474
vn -0.7683 0.6007 -0.2211
vn -0.8075 0.5846 0.0788
vn -0.7569 0.4499 -0.4740
vn -0.8008 0.4969 0.3343
vn -0.7964 0.4952 0.3472
vn -0.7619 0.4523 -0.4637
vn -0.4927 0.6058 -0.6247
vn -0.0000 0.6180 -0.7861
vn 0.4883 -0.5387 -0.6865
vn 0.4927 0.6058 -0.6247
vn 0.1641 0.9863 -0.0150
vn 0.1658 0.9861 -0.0133
vn -0.0000 -0.7800 -0.6258
vn -0.0000 -0.5662 -0.8243
vn 0.4655 -0.6580 0.5919
vn -0.0000 -0.6708 0.7417
vn -0.7710 0.5238 0.3622
vn -0.5073 0.4867 0.7112
vn -0.3819 0.3441 0.8577
vn 0.0940 0.3472 0.9331
vn 0.0074 0.3382 0.9410
vn -0.3953 0.3473 0.8504
vn -0.8758 0.3357 0.3469
vn -0.8763 0.3356 0.3457
vn -0.9102 0.2951 -0.2904
vn -0.9143 0.2951 -0.2775
vn -0.4976 0.3631 0.7878
vn -0.4692 0.3640 0.8046
vn 0.4634 -0.8114 0.3561
vn 0.4596 -0.8482 -0.2635
vn -0.3201 -0.9442 -0.0781
vn -0.4799 -0.5994 -0.6406
vn -0.7990 -0.5380 -0.2685
vn -0.3290 -0.9013 -0.2819
vn -0.4046 0.3434 -0.8476
vn -0.4257 0.3475 -0.8355
vn 0.9032 0.2945 -0.3122
vn 0.8981 0.2946 -0.3265
vn 0.8883 0.3366 0.3124
vn 0.8866 0.3371 0.3166
vn 0.5769 0.2993 -0.7600
vn 0.5419 0.3000 -0.7851
vn 0.3883 -0.8605 0.3298
vn 0.5613 -0.4560 0.6906
vn 0.8534 -0.4491 0.2646
vn 0.5013 -0.8562 0.1249
vn 0.5098 0.3604 0.7811
vn 0.5339 0.3596 0.7653
vn 0.1692 -0.9011 0.3992
vn 0.1046 -0.5642 0.8190
vn -0.0540 -0.4747 0.8785
vn 0.3439 -0.5794 0.7389
vn -0.1564 -0.8821 0.4443
vn 0.3115 -0.9071 -0.2829
vn -0.7407 -0.5751 -0.3474
vn -0.7695 -0.6342 -0.0750
vn -0.4883 -0.5387 -0.6865
vn -0.7291 -0.6516 0.2094
vn -0.3218 -0.4879 -0.8114
vn -0.7691 -0.5563 -0.3148
vn -0.4655 -0.6580 0.5919
vn -0.1137 0.3397 -0.9336
vn -0.0814 0.3442 -0.9354
vn -0.3702 -0.8648 0.3392
vn -0.5004 -0.8543 0.1408
vn 0.7894 -0.5371 -0.2974
vn -0.0576 -0.5519 -0.8319
vn 0.3219 -0.5832 -0.7458
vn -0.6126 0.2971 -0.7324
vn -0.5821 0.2977 -0.7567
vn 0.0748 0.3056 -0.9492
vn 0.0229 0.3065 -0.9516
vn 0.4466 -0.6049 -0.6593
vn 0.0677 -0.5449 -0.8358
vn -0.7277 -0.5874 0.3543
vn -0.3409 -0.6551 0.6743
vn -0.8428 -0.4485 0.2974
vn -0.5248 -0.4594 0.7166
vt 0.318195 0.128478
vt 0.258036 0.837593
vt 0.681805 0.128478
vt 0.741964 0.837593
vt 0.153753 0.461087
vt 0.846247 0.461087
vt 0.165911 0.710558
vt 0.500000 0.900545
vt 0.779844 0.236242
vt 0.500000 0.080584
vt 0.220156 0.236242
vt 0.834089 0.710558
vt 0.500000 0.461609
vt 0.190760 0.908776
vt 0.187041 0.915978
vt 0.998958 0.461675
vt 0.987277 0.461292
vt 0.012723 0.461292
vt 0.001042 0.461675
vt 0.500000 0.231888
vt 0.500000 0.713864
vt 0.703549 0.646792
vt 0.777674 0.630809
vt 0.839612 0.597217
vt 0.822455 0.528692
vt 0.759839 0.488516
vt 0.706148 0.477359
vt 0.625609 0.494324
vt 0.579594 0.536495
vt 0.577027 0.591701
vt 0.630699 0.632817
vt 0.300968 0.649602
vt 0.377653 0.639374
vt 0.433872 0.598258
vt 0.435139 0.541191
vt 0.389111 0.496216
vt 0.304724 0.473631
vt 0.225476 0.487555
vt 0.175642 0.536180
vt 0.160751 0.604680
vt 0.215326 0.635484
vt 0.355057 0.618202
vt 0.241121 0.508036
vt 0.807867 0.589009
vt 0.795848 0.538946
vt 0.653594 0.612981
vt 0.318195 0.128478
vt 0.258036 0.837593
vt 0.681805 0.128478
vt 0.741964 0.837593
vt 0.153753 0.461087
vt 0.846247 0.461087
vt 0.165911 0.710558
vt 0.500000 0.900545
vt 0.779844 0.236242
vt 0.500000 0.080584
vt 0.220156 0.236242
vt 0.834089 0.710558
vt 0.500000 0.461609
vt 0.280869 0.074966
vt 0.277440 0.068701
vt 0.809241 0.908776
vt 0.812959 0.915978
vt 0.722560 0.068701
vt 0.719131 0.074966
vt 0.500000 0.231888
vt 0.500000 0.713864
vt 0.108881 0.231401
vt 0.098687 0.229582
vt 0.980412 0.716768
vt 0.968880 0.716390
vt 0.500000 0.012821
vt 0.500000 0.018559
vt 0.901313 0.229582
vt 0.891120 0.231401
vt 0.500000 0.980765
vt 0.500000 0.987192
vt 0.031120 0.716390
vt 0.019588 0.716768
vt 0.703549 0.646792
vt 0.777674 0.630809
vt 0.839612 0.597217
vt 0.822455 0.528692
vt 0.759839 0.488516
vt 0.706148 0.477359
vt 0.625609 0.494324
vt 0.579594 0.536495
vt 0.577027 0.591701
vt 0.630699 0.632817
vt 0.300968 0.649602
vt 0.377653 0.639374
vt 0.433872 0.598258
vt 0.435139 0.541191
vt 0.389111 0.496216
vt 0.304724 0.473631
vt 0.225476 0.487555
vt 0.175642 0.536180
vt 0.160751 0.604680
vt 0.215326 0.635484
vt 0.296819 0.626136
vt 0.395676 0.588104
vt 0.396509 0.548407
vt 0.362960 0.515258
vt 0.299309 0.498057
vt 0.203501 0.544174
vt 0.193059 0.595275
vt 0.230146 0.615202
vt 0.707778 0.623509
vt 0.764717 0.611408
vt 0.749021 0.509180
vt 0.710076 0.501244
vt 0.649876 0.514104
vt 0.616707 0.544851
vt 0.614842 0.582884
s 1
usemtl mask_mx_5
f 17/20/1 1/1/2 10/10/3
f 17/20/1 3/3/4 9/9/5
f 55/58/6 68/80/7 61/67/8
f 2/2/9 18/21/10 8/8/11
f 31/34/12 32/35/13 13/13/14
f 12/12/15 20/23/16 21/24/17
f 22/25/18 23/26/18 6/6/19
f 27/30/20 18/21/10 13/13/14
f 5/5/21 35/38/22 36/39/23
f 38/41/24 7/7/25 37/40/26
f 60/66/27 44/47/28 54/57/29
f 46/49/30 60/66/27 52/55/31
f 47/50/32 61/67/8 51/54/33
f 61/67/8 45/48/34 51/54/33
f 61/67/8 56/59/35 80/92/36
f 55/58/6 69/81/37 68/80/7
f 67/78/38 50/53/39 86/98/40
f 49/52/41 72/84/42 71/83/43
f 56/59/35 61/67/8 76/88/44
f 48/51/45 85/97/46 84/96/47
f 50/53/39 87/99/48 86/98/40
f 2/2/9 7/7/25 18/21/10
f 47/50/32 55/58/6 61/67/8
f 78/90/49 50/53/39 61/67/8
f 54/57/29 48/51/45 56/59/35 60/66/27
f 36/39/50 93/105/51 94/106/52 37/40/53
f 17/20/1 11/11/54 1/1/2
f 17/20/1 10/10/3 3/3/4
f 4/4/55 8/8/11 18/21/10
f 36/39/50 35/38/56 40/43/57 93/105/51
f 18/21/10 29/32/24 30/33/58
f 34/37/13 5/5/21 13/13/14
f 33/36/13 34/37/13 13/13/14
f 18/21/10 30/33/58 31/34/12
f 32/35/13 33/36/13 13/13/14
f 18/21/10 31/34/12 13/13/14
f 12/12/15 19/22/59 20/23/16
f 65/74/60 15/16/61 6/6/19 9/9/5
f 15/16/61 63/70/62 21/24/17 6/6/19
f 65/74/60 9/9/5 3/3/4 59/64/63
f 63/70/62 12/12/15 21/24/17
f 16/18/64 67/78/38 86/98/40 48/51/45
f 38/41/65 95/107/66 88/100/67 29/32/68
f 59/64/63 3/3/4 10/10/3 64/72/69
f 48/51/45 54/57/29 62/68/70 16/18/64
f 37/40/26 67/79/71 16/19/72 5/5/21
f 22/25/73 21/24/74 41/44/75 42/45/76
f 14/15/77 2/2/9 8/8/11 66/77/78
f 44/47/28 57/60/79 62/68/70 54/57/29
f 37/40/26 7/7/25 67/79/71
f 63/70/62 58/63/80 4/4/55 12/12/15
f 6/6/19 21/24/17 22/25/18
f 23/26/18 24/27/18 6/6/19
f 13/13/14 6/6/19 24/27/18
f 13/13/14 24/27/18 25/28/81
f 28/31/20 19/22/59 18/21/10
f 13/13/14 25/28/81 26/29/82
f 27/30/20 28/31/20 18/21/10
f 13/13/14 26/29/82 27/30/20
f 5/5/21 34/37/13 35/38/22
f 36/39/23 37/40/26 5/5/21
f 38/41/24 29/32/24 7/7/25
f 57/60/79 44/47/28 53/56/83 64/73/84
f 12/12/15 4/4/55 18/21/10
f 51/54/33 45/48/34 14/14/85 66/76/86
f 62/69/87 57/61/88 1/1/2 11/11/54
f 20/23/89 19/22/90 96/108/91 97/109/92
f 57/61/88 64/72/69 10/10/3 1/1/2
f 31/34/93 89/101/94 90/102/95 32/35/96
f 37/40/53 94/106/52 95/107/66 38/41/65
f 31/34/93 30/33/97 39/42/98 89/101/94
f 71/83/43 42/45/99 41/44/100 70/82/101
f 43/46/102 102/114/103 76/88/44 77/89/104
f 23/26/105 22/25/73 42/45/76 98/110/106
f 26/29/107 101/113/108 102/114/109 27/30/110
f 25/28/111 100/112/112 101/113/108 26/29/107
f 82/94/113 91/103/114 90/102/115 81/93/116
f 27/30/110 102/114/109 43/46/117 28/31/118
f 19/22/90 28/31/118 43/46/117 96/108/91
f 83/95/119 92/104/120 91/103/114 82/94/113
f 9/9/5 6/6/19 13/13/14 17/20/1
f 99/111/121 98/110/122 72/84/42 73/85/123
f 11/11/54 17/20/1 13/13/14 5/5/21
f 56/59/35 49/52/41 52/55/31 60/66/27
f 60/66/27 53/56/83 44/47/28
f 46/49/30 53/56/83 60/66/27
f 50/53/39 45/48/34 61/67/8
f 7/7/25 29/32/24 18/21/10
f 56/59/35 48/51/45 83/95/119
f 56/59/35 83/95/119 82/94/113
f 79/91/124 78/90/49 61/67/8
f 56/59/35 82/94/113 81/93/116
f 80/92/36 79/91/124 61/67/8
f 56/59/35 81/93/116 80/92/36
f 55/58/6 70/82/101 69/81/37
f 65/75/125 52/55/31 49/52/41 15/17/126
f 20/23/89 97/109/92 41/44/75 21/24/74
f 46/49/30 52/55/31 65/75/125 59/65/127
f 70/82/101 55/58/6 63/71/128
f 45/48/34 50/53/39 67/78/38 14/14/85
f 62/69/87 11/11/54 5/5/21 16/19/72
f 53/56/83 46/49/30 59/65/127 64/73/84
f 95/107/129 94/106/130 86/98/40 87/99/48
f 67/79/71 7/7/25 2/2/9 14/15/77
f 58/62/131 47/50/32 51/54/33 66/76/86
f 34/37/132 92/104/133 40/43/57 35/38/56
f 15/17/126 49/52/41 70/82/101 63/71/128
f 63/71/128 55/58/6 47/50/32 58/62/131
f 71/83/43 70/82/101 49/52/41
f 49/52/41 73/85/123 72/84/42
f 73/85/123 49/52/41 56/59/35
f 61/67/8 68/80/7 77/89/104
f 74/86/134 73/85/123 56/59/35
f 75/87/135 74/86/134 56/59/35
f 61/67/8 77/89/104 76/88/44
f 76/88/44 75/87/135 56/59/35
f 48/51/45 86/98/40 85/97/46
f 84/96/47 83/95/119 48/51/45
f 50/53/39 78/90/49 87/99/48
f 81/93/116 90/102/115 89/101/136 80/92/36
f 19/22/59 12/12/15 18/21/10
f 29/32/68 88/100/67 39/42/98 30/33/97
f 68/80/7 96/108/137 43/46/102 77/89/104
f 69/81/37 97/109/138 96/108/137 68/80/7
f 34/37/132 33/36/139 91/103/140 92/104/133
f 24/27/141 99/111/142 100/112/112 25/28/111
f 23/26/105 98/110/106 99/111/142 24/27/141
f 80/92/36 89/101/136 39/42/143 79/91/124
f 39/42/143 88/100/144 78/90/49 79/91/124
f 85/97/46 93/105/145 40/43/146 84/96/47
f 40/43/146 92/104/120 83/95/119 84/96/47
f 102/114/103 101/113/147 75/87/135 76/88/44
f 101/113/147 100/112/148 74/86/134 75/87/135
f 88/100/144 95/107/129 87/99/48 78/90/49
f 72/84/42 98/110/122 42/45/99 71/83/43
f 41/44/100 97/109/138 69/81/37 70/82/101
f 58/63/80 66/77/78 8/8/11 4/4/55
f 94/106/130 93/105/145 85/97/46 86/98/40
f 100/112/148 99/111/121 73/85/123 74/86/134
f 33/36/139 32/35/96 90/102/95 91/103/140
