# Blender 3.4.0
# www.blender.org
mtllib ancient_artifact_mx_1.mtl
o ancient_artifact_mx_1
v -0.250000 0.000001 -0.140000
v 0.000000 0.400000 0.000001
v -0.000000 -0.000001 0.260000
v 0.250000 0.000001 -0.140000
v -0.223736 0.014158 -0.135045
v 0.000000 0.372135 -0.009752
v 0.223736 0.014158 -0.135045
v 0.231890 0.014182 -0.120243
v 0.008965 0.370863 0.004597
v 0.008965 0.014181 0.236438
v -0.222936 0.000000 -0.125000
v 0.222936 0.000000 -0.125000
v -0.000000 -0.000001 0.231698
v -0.008965 0.014181 0.236438
v -0.008965 0.370863 0.004597
v -0.231890 0.014182 -0.120243
v -0.003352 0.368583 0.001089
v -0.003352 0.011901 0.232930
v -0.226278 0.011902 -0.123750
v -0.000000 0.369823 -0.003145
v -0.223736 0.011846 -0.128438
v 0.223736 0.011846 -0.128438
v 0.003352 0.368583 0.001089
v 0.226278 0.011902 -0.123750
v 0.003352 0.011901 0.232930
v 0.222936 0.007000 -0.125000
v -0.222936 0.007000 -0.125000
v -0.000000 0.006999 0.231698
vn -0.8613 -0.4796 -0.1679
vn 0.5977 -0.4369 -0.6722
vn -0.8480 -0.0000 -0.5300
vn 0.3147 -0.4827 0.8173
vn -0.0000 0.3304 -0.9439
vn 0.8018 0.3257 0.5011
vn -0.0000 -1.0000 -0.0000
vn -0.8018 0.3257 0.5011
vn 0.2762 0.9455 -0.1726
vn -0.5977 -0.4369 -0.6722
vn -0.0000 0.9439 0.3304
vn 0.8613 -0.4796 -0.1679
vn -0.2762 0.9455 -0.1726
vn -0.3147 -0.4827 0.8173
vn 0.8480 -0.0000 -0.5300
vn -0.0000 -0.0000 1.0000
vt 0.983847 0.019769
vt 0.501510 0.985759
vt 0.018477 0.019146
vt 0.501015 0.982061
vt 0.018469 0.018587
vt 0.983196 0.018414
vt 0.982811 0.019636
vt 0.017756 0.019512
vt 0.983197 0.018925
vt 0.018949 0.018745
vt 0.933108 0.053820
vt 0.065824 0.099506
vt 0.519676 0.103427
vt 0.501000 0.915017
vt 0.516895 0.921200
vt 0.519676 0.103427
vt 0.068511 0.053590
vt 0.934176 0.099506
vt 0.930422 0.053061
vt 0.950000 0.131422
vt 0.950000 0.129382
vt 0.500459 0.911891
vt 0.517397 0.898454
vt 0.517397 0.129382
vt 0.070172 0.052759
vt 0.517397 0.900494
vt 0.502501 0.915274
vt 0.492438 0.121164
vt 0.067376 0.098803
vt 0.492438 0.121164
vt 0.072180 0.052943
vt 0.932624 0.098803
vt 0.932043 0.052648
vt 0.492438 0.890274
vt 0.931149 0.053742
vt 0.482603 0.900494
vt 0.482603 0.129382
vt 0.501530 0.911938
vt 0.482603 0.898454
vt 0.050000 0.129382
vt 0.071250 0.053304
vt 0.050000 0.131422
vt 0.501530 0.911938
vt 0.493494 0.893538
vt 0.931149 0.053742
vt 0.493494 0.892931
vt 0.493494 0.124466
vt 0.060891 0.124466
vt 0.071250 0.053304
vt 0.060891 0.123859
vt 0.501000 0.915017
vt 0.503311 0.921143
vt 0.933108 0.053820
vt 0.065824 0.113752
vt 0.506092 0.103370
vt 0.506092 0.103370
vt 0.068511 0.053590
vt 0.934176 0.113752
vt 0.500459 0.911891
vt 0.506506 0.893538
vt 0.930422 0.053061
vt 0.939109 0.123859
vt 0.939109 0.124466
vt 0.506506 0.124466
vt 0.070172 0.052759
vt 0.506506 0.892931
vt 0.506022 0.121164
vt 0.072180 0.052943
vt 0.932624 0.113896
vt 0.502501 0.915274
vt 0.506022 0.121164
vt 0.067376 0.113896
vt 0.932043 0.052648
vt 0.506022 0.890274
s 0
usemtl ancient_artifact_mx_1
f 6/15/1 7/16/1 22/56/1 20/52/1
f 9/23/2 10/24/2 25/64/2 23/60/2
f 12/30/3 13/34/3 28/74/3 26/67/3
f 15/39/4 16/40/4 19/48/4 17/44/4
f 1/1/5 2/4/5 6/14/5 5/11/5
f 2/4/5 4/8/5 7/17/5 6/14/5
f 4/8/5 1/1/5 5/11/5 7/17/5
f 4/9/6 2/4/6 9/22/6 8/19/6
f 2/4/6 3/5/6 10/25/6 9/22/6
f 3/5/6 4/9/6 8/19/6 10/25/6
f 1/2/7 4/10/7 12/31/7 11/27/7
f 4/10/7 3/6/7 13/33/7 12/31/7
f 3/6/7 1/2/7 11/27/7 13/33/7
f 3/7/8 2/4/8 15/38/8 14/35/8
f 2/4/8 1/3/8 16/41/8 15/38/8
f 1/3/8 3/7/8 14/35/8 16/41/8
f 18/45/8 17/43/8 19/49/8
f 16/42/9 14/36/9 18/46/9 19/50/9
f 14/37/10 15/39/10 17/44/10 18/47/10
f 21/53/5 20/51/5 22/57/5
f 7/18/11 5/12/11 21/54/11 22/58/11
f 5/13/12 6/15/12 20/52/12 21/55/12
f 24/61/6 23/59/6 25/65/6
f 10/26/13 8/20/13 24/62/13 25/66/13
f 8/21/14 9/23/14 23/60/14 24/63/14
f 27/70/7 26/68/7 28/73/7
f 13/34/15 11/28/15 27/71/15 28/74/15
f 11/29/16 12/32/16 26/69/16 27/72/16
