# Blender 3.4.0
# www.blender.org
mtllib concrete_block_mx_1.mtl
o concrete_block_mx_1
v -0.299998 0.199998 1.099998
v -0.199998 0.999998 0.999998
v -0.299998 0.199998 -1.100002
v -0.199998 0.999998 -1.000002
v 0.300002 0.199998 1.099998
v 0.200002 0.999998 0.999998
v 0.300002 0.199998 -1.100002
v 0.200002 0.999998 -1.000002
v -0.299998 -0.000002 1.099998
v -0.299998 -0.000002 -1.100002
v 0.300002 -0.000002 1.099998
v 0.300002 -0.000002 -1.100002
v -0.014396 0.999999 0.644400
v -0.014396 1.064800 0.644400
v 0.000004 0.999999 0.658800
v 0.000004 1.064800 0.658800
v 0.000004 0.999999 0.630000
v 0.014404 0.999999 0.644400
v 0.014404 1.064800 0.644400
v 0.000004 1.064800 0.630000
v -0.014396 1.086400 0.666000
v 0.000004 1.072000 0.666000
v 0.014404 1.086400 0.666000
v 0.000004 1.100800 0.666000
v 0.014404 0.999999 0.755600
v 0.014404 1.064800 0.755600
v 0.000004 0.999999 0.741200
v 0.000004 1.064800 0.741200
v 0.000004 0.999999 0.770000
v -0.014396 0.999999 0.755600
v -0.014396 1.064800 0.755600
v 0.000004 1.064800 0.770000
v 0.014404 1.086400 0.734000
v 0.000004 1.072000 0.734000
v -0.014396 1.086400 0.734000
v 0.000004 1.100800 0.734000
v 0.000004 1.089388 0.641411
v -0.014396 1.079553 0.651247
v 0.014404 1.079553 0.651247
v 0.000004 1.069717 0.661082
v 0.000004 1.089388 0.758588
v 0.014404 1.079553 0.748753
v -0.014396 1.079553 0.748753
v 0.000004 1.069717 0.738918
v -0.014396 0.999999 -0.755600
v -0.014396 1.064800 -0.755600
v 0.000004 0.999999 -0.741200
v 0.000004 1.064800 -0.741200
v 0.000004 0.999999 -0.770000
v 0.014404 0.999999 -0.755600
v 0.014404 1.064800 -0.755600
v 0.000004 1.064800 -0.770000
v -0.014396 1.086400 -0.734000
v 0.000004 1.072000 -0.734000
v 0.014404 1.086400 -0.734000
v 0.000004 1.100800 -0.734000
v 0.014404 0.999999 -0.644400
v 0.014404 1.064800 -0.644400
v 0.000004 0.999999 -0.658800
v 0.000004 1.064800 -0.658800
v 0.000004 0.999999 -0.630000
v -0.014396 0.999999 -0.644400
v -0.014396 1.064800 -0.644400
v 0.000004 1.064800 -0.630000
v 0.014404 1.086400 -0.666000
v 0.000004 1.072000 -0.666000
v -0.014396 1.086400 -0.666000
v 0.000004 1.100800 -0.666000
v 0.000004 1.089388 -0.758588
v -0.014396 1.079553 -0.748753
v 0.014404 1.079553 -0.748753
v 0.000004 1.069717 -0.738917
v 0.000004 1.089388 -0.641411
v 0.014404 1.079553 -0.651246
v -0.014396 1.079553 -0.651246
v 0.000004 1.069717 -0.661082
vn -0.9923 0.1240 -0.0000
vn -0.0000 0.1240 -0.9923
vn 0.9923 0.1240 -0.0000
vn -0.0000 0.1240 0.9923
vn -0.0000 1.0000 -0.0000
vn -1.0000 -0.0000 -0.0000
vn 1.0000 -0.0000 -0.0000
vn -0.0000 -0.0000 1.0000
vn -0.0000 -0.0000 -1.0000
vn -0.6947 0.1861 -0.6948
vn -0.6947 0.5086 -0.5086
vn -0.7071 -0.0000 -0.7071
vn 0.6947 0.1861 -0.6948
vn 0.6947 0.5086 -0.5086
vn 0.6947 0.1861 -0.6947
vn 0.7071 -0.0000 0.7071
vn 0.6948 -0.1861 0.6947
vn 0.6947 -0.5086 0.5086
vn 0.6948 -0.5086 0.5086
vn -0.6948 0.6947 -0.1861
vn -0.6947 0.6947 -0.1861
vn -0.6947 -0.6948 0.1861
vn -0.6947 -0.6947 0.1861
vn -0.6947 -0.5086 0.5086
vn 0.6947 0.6947 -0.1861
vn 0.6948 0.6947 -0.1861
vn 0.6947 -0.6948 0.1861
vn 0.6947 -0.1861 -0.6948
vn 0.6947 -0.5086 -0.5086
vn 0.7071 -0.0000 -0.7071
vn -0.7071 -0.7071 -0.0000
vn 0.7071 0.7071 -0.0000
vn 0.6947 0.1861 0.6948
vn 0.6947 0.5086 0.5086
vn -0.6947 0.1861 0.6948
vn -0.6947 0.5086 0.5086
vn -0.6947 0.1861 0.6947
vn -0.6947 -0.1861 -0.6948
vn -0.6947 -0.5086 -0.5086
vn 0.6948 0.6947 0.1861
vn 0.6948 -0.6947 -0.1861
vn 0.6947 -0.6948 -0.1861
vn 0.6948 -0.5086 -0.5086
vn -0.6948 0.6947 0.1861
vn -0.6948 -0.6947 -0.1861
vn -0.6947 -0.6948 -0.1861
vn -0.6948 -0.5086 -0.5086
vn -0.7071 0.7071 -0.0000
vn 0.7071 -0.7071 -0.0000
vn -0.7071 -0.0000 0.7071
vn -0.6948 -0.1861 0.6947
vn -0.6948 -0.5086 0.5086
vn -0.6948 0.1861 -0.6947
vn -0.6947 0.1861 -0.6947
vn 0.6948 0.1861 -0.6947
vn 0.6947 -0.1861 0.6947
vn -0.6948 -0.6947 0.1861
vn 0.6948 -0.6947 0.1861
vn 0.6948 -0.6948 0.1861
vn 0.6948 0.1861 0.6947
vn 0.6947 0.1861 0.6947
vn -0.6948 0.1861 0.6947
vn -0.6947 -0.1861 -0.6947
vn 0.6947 0.6947 0.1861
vn -0.6947 0.6947 0.1861
vn -0.6947 -0.1861 0.6947
vt 0.575525 0.225000
vt 0.575525 0.425000
vt 0.375000 0.250000
vt 0.375000 0.450000
vt 0.750000 0.450000
vt 0.575525 0.775000
vt 0.575525 0.425000
vt 0.375000 0.750000
vt 0.375000 0.450000
vt 0.250000 0.450000
vt 0.575525 0.225000
vt 0.575525 0.575000
vt 0.375000 0.250000
vt 0.375000 0.550000
vt 0.750000 0.550000
vt 0.575525 0.775000
vt 0.575525 0.575000
vt 0.375000 0.550000
vt 0.375000 0.750000
vt 0.250000 0.550000
vt 0.624970 0.225000
vt 0.624970 0.425000
vt 0.624970 0.775000
vt 0.624970 0.425000
vt 0.624970 0.225000
vt 0.624970 0.575000
vt 0.624970 0.775000
vt 0.624970 0.575000
vt 0.480621 0.495947
vt 0.468831 0.514705
vt 0.505009 0.478229
vt 0.480621 0.514705
vt 0.468831 0.495947
vt 0.492411 0.517305
vt 0.462936 0.514705
vt 0.462936 0.495947
vt 0.495254 0.511798
vt 0.474726 0.495947
vt 0.457041 0.514705
vt 0.468831 0.495947
vt 0.492411 0.478406
vt 0.457041 0.495947
vt 0.493143 0.506444
vt 0.468831 0.514705
vt 0.498582 0.476263
vt 0.474726 0.514705
vt 0.505009 0.488884
vt 0.501304 0.517435
vt 0.457041 0.476263
vt 0.468831 0.495947
vt 0.498872 0.511973
vt 0.462936 0.476263
vt 0.492411 0.489061
vt 0.501304 0.506641
vt 0.480621 0.495947
vt 0.468831 0.476263
vt 0.498838 0.491027
vt 0.474726 0.495947
vt 0.492411 0.495021
vt 0.480621 0.513779
vt 0.489072 0.514569
vt 0.504889 0.492824
vt 0.492411 0.476263
vt 0.480621 0.495021
vt 0.486516 0.495021
vt 0.486687 0.520061
vt 0.486516 0.476263
vt 0.486516 0.513779
vt 0.480621 0.495021
vt 0.492411 0.513779
vt 0.492411 0.493321
vt 0.480621 0.476263
vt 0.489072 0.525509
vt 0.492411 0.495021
vt 0.498270 0.491027
vt 0.486516 0.495021
vt 0.480621 0.476263
vt 0.504889 0.503490
vt 0.480621 0.514533
vt 0.468831 0.495947
vt 0.483006 0.519981
vt 0.462936 0.495947
vt 0.457041 0.495947
vt 0.492411 0.503987
vt 0.480621 0.525472
vt 0.468831 0.476263
vt 0.499030 0.505783
vt 0.474726 0.476263
vt 0.498710 0.483645
vt 0.504297 0.483618
vt 0.497108 0.518257
vt 0.493123 0.483672
vt 0.497192 0.505816
vt 0.497030 0.511920
vt 0.498650 0.498405
vt 0.504274 0.498314
vt 0.484841 0.513787
vt 0.493026 0.498497
vt 0.484853 0.526254
vt 0.484847 0.520021
vt 0.480621 0.495947
vt 0.468831 0.514705
vt 0.505009 0.478229
vt 0.480621 0.514705
vt 0.468831 0.495947
vt 0.492411 0.517305
vt 0.462936 0.514705
vt 0.462936 0.495947
vt 0.495254 0.511798
vt 0.474726 0.495947
vt 0.457041 0.514705
vt 0.468831 0.495947
vt 0.492411 0.478406
vt 0.457041 0.495947
vt 0.493143 0.506444
vt 0.468831 0.514705
vt 0.498582 0.476263
vt 0.474726 0.514705
vt 0.505009 0.488884
vt 0.501304 0.517435
vt 0.457041 0.476263
vt 0.468831 0.495947
vt 0.498872 0.511973
vt 0.462936 0.476263
vt 0.492411 0.489061
vt 0.501304 0.506641
vt 0.480621 0.495947
vt 0.468831 0.476263
vt 0.498838 0.491027
vt 0.474726 0.495947
vt 0.492411 0.495021
vt 0.480621 0.513779
vt 0.489072 0.514569
vt 0.504889 0.492824
vt 0.492411 0.476263
vt 0.480621 0.495021
vt 0.486516 0.495021
vt 0.486687 0.520061
vt 0.486516 0.476263
vt 0.486516 0.513779
vt 0.480621 0.495021
vt 0.492411 0.513779
vt 0.492411 0.493321
vt 0.480621 0.476263
vt 0.489072 0.525509
vt 0.492411 0.495021
vt 0.498270 0.491027
vt 0.486516 0.495021
vt 0.480621 0.476263
vt 0.504889 0.503490
vt 0.480621 0.514533
vt 0.468831 0.495947
vt 0.483006 0.519981
vt 0.462936 0.495947
vt 0.457041 0.495947
vt 0.492411 0.503987
vt 0.480621 0.525472
vt 0.468831 0.476263
vt 0.499030 0.505783
vt 0.474726 0.476263
vt 0.498710 0.483645
vt 0.504297 0.483618
vt 0.497108 0.518257
vt 0.493123 0.483672
vt 0.497192 0.505816
vt 0.497030 0.511920
vt 0.498650 0.498405
vt 0.504274 0.498314
vt 0.484841 0.513787
vt 0.493026 0.498497
vt 0.484853 0.526254
vt 0.484847 0.520021
s 0
usemtl concrete_hr_4
f 1/1/1 2/3/1 4/8/1 3/6/1
f 3/7/2 4/9/2 8/18/2 7/17/2
f 7/16/3 8/19/3 6/13/3 5/11/3
f 5/12/4 6/14/4 2/4/4 1/2/4
f 8/20/5 4/10/5 2/5/5 6/15/5
f 1/1/6 3/6/6 10/23/6 9/21/6
f 7/16/7 5/11/7 11/25/7 12/27/7
f 5/12/8 1/2/8 9/22/8 11/26/8
f 3/7/9 7/17/9 12/28/9 10/24/9
usemtl metal_hr_2
f 14/31/10 38/90/11 37/89/11 20/45/10
f 13/29/12 14/32/12 20/46/12 17/38/12
f 20/45/13 37/89/14 39/92/14 19/41/15
f 18/39/16 19/42/16 16/36/16 15/35/16
f 19/43/17 39/93/18 40/94/19 16/37/17
f 38/90/11 21/47/20 24/57/21 37/89/11
f 22/51/22 21/48/23 38/91/24 40/94/24
f 24/57/25 23/53/26 39/92/14 37/89/14
f 39/93/18 23/54/27 22/51/27 40/94/18
f 28/66/28 44/100/29 42/97/29 26/61/28
f 17/38/30 20/46/30 19/44/30 18/40/30
f 34/82/31 35/83/31 21/49/31 22/52/31
f 36/88/32 33/77/32 23/55/32 24/58/32
f 26/62/33 42/96/34 41/95/34 32/75/33
f 32/75/35 41/95/36 43/98/36 31/71/37
f 27/65/12 30/69/12 31/72/12 28/67/12
f 31/73/38 43/99/39 44/100/39 28/66/38
f 42/96/34 33/78/40 36/87/40 41/95/34
f 34/81/41 33/79/42 42/97/29 44/100/43
f 36/87/44 35/84/44 43/98/36 41/95/36
f 43/99/39 35/85/45 34/81/46 44/100/47
f 24/58/48 21/50/48 35/86/48 36/88/48
f 33/80/49 34/82/49 22/52/49 23/56/49
f 14/33/50 13/30/50 15/35/50 16/36/50
f 26/63/30 25/59/30 27/65/30 28/67/30
f 30/70/50 29/68/50 32/76/50 31/74/50
f 29/68/16 25/60/16 26/64/16 32/76/16
f 16/37/51 40/94/52 38/91/24 14/34/51
f 46/103/53 70/162/11 69/161/11 52/117/54
f 45/101/12 46/104/12 52/118/12 49/110/12
f 52/117/15 69/161/14 71/164/14 51/113/55
f 50/111/16 51/114/16 48/108/16 47/107/16
f 51/115/56 71/165/18 72/166/19 48/109/56
f 70/162/11 53/119/21 56/129/21 69/161/11
f 54/123/57 53/120/57 70/163/52 72/166/52
f 56/129/25 55/125/25 71/164/14 69/161/14
f 71/165/19 55/126/58 54/123/59 72/166/19
f 60/138/28 76/172/29 74/169/29 58/133/28
f 49/110/30 52/118/30 51/116/30 50/112/30
f 66/154/31 67/155/31 53/121/31 54/124/31
f 68/160/32 65/149/32 55/127/32 56/130/32
f 58/134/60 74/168/34 73/167/34 64/147/61
f 64/147/62 73/167/36 75/170/36 63/143/62
f 59/137/12 62/141/12 63/144/12 60/139/12
f 63/145/38 75/171/39 76/172/39 60/138/63
f 74/168/34 65/150/40 68/159/64 73/167/34
f 66/153/41 65/151/42 74/169/29 76/172/43
f 68/159/65 67/156/44 75/170/36 73/167/36
f 75/171/39 67/157/45 66/153/46 76/172/47
f 56/130/48 53/122/48 67/158/48 68/160/48
f 65/152/49 66/154/49 54/124/49 55/128/49
f 46/105/50 45/102/50 47/107/50 48/108/50
f 58/135/30 57/131/30 59/137/30 60/139/30
f 62/142/50 61/140/50 64/148/50 63/146/50
f 61/140/16 57/132/16 58/136/16 64/148/16
f 48/109/51 72/166/52 70/163/24 46/106/66
