# Blender 3.4.0
# www.blender.org
mtllib mask_mx_5_1.mtl
o mask_mx_5_1
v -0.041610 0.036250 0.120278
v -0.055509 0.036250 -0.111924
v 0.041610 0.036250 0.120278
v 0.055509 0.036250 -0.111924
v -0.083242 0.040833 0.011254
v 0.083242 0.040833 0.011254
v -0.080354 0.040048 -0.070618
v -0.000000 0.039264 -0.132811
v 0.067560 0.040048 0.085997
v 0.000000 0.039263 0.136299
v -0.067560 0.040048 0.085997
v 0.080354 0.040048 -0.070618
v -0.000000 0.054673 0.011254
v -0.000000 0.033146 0.009965
v -0.051222 -0.000678 0.140199
v -0.072027 -0.000677 -0.137877
v 0.072027 -0.000677 -0.137877
v 0.051222 -0.000678 0.140199
v 0.114835 -0.000677 0.011226
v -0.114835 -0.000677 0.011226
v 0.000000 0.032287 0.078580
v -0.000000 0.053612 0.086792
v 0.000000 0.053612 -0.071630
v -0.000000 0.032288 -0.065290
v -0.092362 -0.000677 0.087398
v 0.110567 -0.000677 -0.072495
v 0.000000 -0.000678 0.158539
v 0.092362 -0.000677 0.087398
v 0.000000 -0.000677 -0.161248
v -0.110567 -0.000677 -0.072495
v -0.031011 0.028161 0.094732
v -0.043900 0.009991 0.122965
v -0.041121 0.027067 -0.088055
v -0.059300 0.011397 -0.116152
v 0.031011 0.028161 0.094732
v 0.043900 0.009991 0.122965
v 0.041121 0.027067 -0.088055
v 0.059300 0.011397 -0.116152
v -0.089797 0.014980 0.010503
v -0.057267 0.029009 0.010090
v 0.089797 0.014980 0.010503
v 0.057267 0.029009 0.010090
v -0.042750 0.028637 0.078794
v -0.073637 0.013320 0.082058
v -0.000000 0.028324 -0.103423
v 0.000000 0.012874 -0.137137
v 0.054666 0.028365 -0.065196
v 0.086979 0.014220 -0.067711
v 0.000000 0.028767 0.106236
v 0.000000 0.011966 0.138682
v -0.054666 0.028365 -0.065196
v -0.086979 0.014220 -0.067711
v 0.042750 0.028637 0.078794
v 0.073637 0.013320 0.082058
v 0.048946 0.045624 -0.049651
v 0.066772 0.042711 -0.044426
v 0.081666 0.040405 -0.033421
v 0.077530 0.041440 -0.010925
v 0.062470 0.044148 0.002291
v 0.049561 0.046352 0.005980
v 0.030197 0.049485 0.000448
v 0.019133 0.051125 -0.013383
v 0.018518 0.050997 -0.031518
v 0.031426 0.048643 -0.045041
v -0.047870 0.045850 -0.050573
v -0.029430 0.049019 -0.047192
v -0.015905 0.051454 -0.033668
v -0.015598 0.051745 -0.014920
v -0.026663 0.050094 -0.000167
v -0.046949 0.046816 0.007210
v -0.066004 0.043588 0.002600
v -0.077991 0.041338 -0.013383
v -0.081580 0.040382 -0.035871
v -0.068462 0.042441 -0.045963
v -0.047804 0.038601 -0.046662
v -0.031259 0.041447 -0.043629
v -0.019663 0.043532 -0.032033
v -0.019402 0.043774 -0.016178
v -0.028991 0.042343 -0.003392
v -0.047157 0.039409 0.003214
v -0.063807 0.036594 -0.000814
v -0.074407 0.034601 -0.014949
v -0.077481 0.033777 -0.034215
v -0.066843 0.035448 -0.042400
v 0.048901 0.038375 -0.045674
v 0.065088 0.035729 -0.040929
v 0.077509 0.033809 -0.031753
v 0.074053 0.034676 -0.012952
v 0.060625 0.037090 -0.001169
v 0.049552 0.038979 0.001996
v 0.032374 0.041757 -0.002912
v 0.022870 0.043165 -0.014793
v 0.022355 0.043063 -0.030015
v 0.033411 0.041047 -0.041598
vn -0.0084 0.9876 0.1568
vn -0.4033 0.7314 0.5499
vn -0.0096 0.7582 0.6519
vn 0.4165 0.7315 0.5398
vn 0.5398 0.7881 0.2959
vn -0.5079 0.8443 -0.1709
vn -0.1658 0.9860 -0.0150
vn -0.0408 0.9927 -0.1138
vn -0.3776 0.8030 -0.4610
vn 0.0036 0.8207 -0.5713
vn -0.1643 0.9863 -0.0121
vn -0.1645 0.9863 -0.0125
vn -0.0002 1.0000 0.0076
vn 0.5190 0.8418 -0.1485
vn 0.1651 0.9862 -0.0149
vn 0.6676 0.7439 -0.0316
vn -0.0109 -0.9981 -0.0605
vn 0.2131 -0.9331 -0.2896
vn 0.2744 -0.9481 -0.1605
vn -0.1985 -0.9494 0.2436
vn -0.0000 -0.9985 0.0550
vn 0.0009 -0.9565 0.2916
vn -0.2239 -0.9308 -0.2889
vn -0.0000 -0.9391 -0.3437
vn 0.1972 -0.9495 0.2441
vn 0.2545 -0.9608 0.1100
vn 0.1640 0.9863 -0.0152
vn 0.5476 0.8350 0.0531
vn 0.1668 0.9859 -0.0127
vn -0.5472 0.8353 0.0536
vn -0.1646 0.9863 -0.0140
vn -0.1662 0.9860 -0.0157
vn -0.1666 0.9859 -0.0153
vn -0.6721 0.7396 -0.0348
vn 0.6490 0.7366 -0.1900
vn 0.3755 0.7618 -0.5279
vn -0.4837 0.8714 0.0816
vn 0.2563 -0.9663 -0.0245
vn -0.0000 -1.0000 -0.0030
vn 0.5036 -0.8271 -0.2495
vn 0.4585 -0.8558 -0.2396
vn 0.3176 -0.8487 -0.4229
vn 0.3068 -0.8412 -0.4453
vn 0.4927 0.6058 -0.6247
vn -0.0000 0.6180 -0.7861
vn 0.3928 0.7870 -0.4756
vn -0.5369 0.7915 0.2921
vn -0.1463 0.4734 -0.8686
vn -0.5861 0.4554 -0.6701
vn -0.8528 0.2113 -0.4776
vn -0.4137 0.1434 -0.8990
vn 0.2931 -0.8888 0.3524
vn 0.4437 -0.8845 0.1444
vn 0.4899 -0.8596 0.1451
vn 0.2879 -0.8812 0.3749
vn -0.1658 0.9861 -0.0138
vn -0.1647 0.9863 -0.0133
vn -0.1647 0.9863 -0.0128
vn 0.1665 0.9860 -0.0129
vn -0.2931 -0.8888 0.3524
vn -0.2879 -0.8812 0.3749
vn -0.4900 -0.8595 0.1453
vn -0.4437 -0.8845 0.1444
vn -0.4774 -0.8771 -0.0521
vn -0.5371 -0.8416 -0.0572
vn -0.5036 -0.8271 -0.2495
vn -0.4585 -0.8558 -0.2396
vn -0.7148 0.5106 -0.4778
vn -0.9396 0.3422 0.0003
vn -0.7896 0.3093 -0.5299
vn -0.3380 0.4840 -0.8072
vn -0.2744 -0.9481 -0.1605
vn -0.2563 -0.9663 -0.0245
vn -0.2536 -0.9610 0.1105
vn 0.7710 0.5238 0.3622
vn 0.8078 0.5842 0.0781
vn 0.7691 0.5989 -0.2233
vn 0.5073 0.4867 0.7112
vn 0.3944 0.5001 -0.7709
vn 0.2445 0.1268 -0.9613
vn 0.6163 0.7625 0.1970
vn -0.3084 0.9229 -0.2305
vn -0.0000 0.5127 0.8586
vn -0.7563 0.5617 0.3354
vn -0.3147 0.4844 0.8163
vn 0.2812 0.5349 0.7968
vn -0.5451 0.6865 0.4812
vn -0.0000 -0.8915 0.4531
vn -0.0000 -0.9004 0.4352
vn -0.7701 0.5986 -0.2203
vn -0.8078 0.5841 0.0795
vn -0.4927 0.6058 -0.6247
vn -0.0000 -0.8724 -0.4888
vn -0.0000 -0.8638 -0.5038
vn 0.5370 -0.8416 -0.0575
vn 0.4774 -0.8771 -0.0521
vn -0.3176 -0.8487 -0.4229
vn -0.3068 -0.8412 -0.4453
vn 0.7761 0.5018 -0.3820
vn 0.3994 0.5699 -0.7181
vn 0.7116 0.7017 0.0348
vn 0.7583 0.5555 0.3412
vn -0.4626 0.7077 -0.5339
vn -0.6610 0.7348 0.1522
vn 0.3381 0.9026 0.2665
vn 0.1061 0.8880 0.4473
vn 0.0876 0.4788 0.8735
vn 0.3486 0.1235 0.9291
vn 0.1629 0.9865 -0.0154
vn 0.1631 0.9865 -0.0158
vn 0.1666 0.9859 -0.0127
vn 0.1660 0.9860 -0.0140
vn -0.8564 0.4493 -0.2542
vn -0.8355 0.4587 0.3027
vn -0.6343 0.5919 0.4973
vn -0.9590 0.2648 0.1008
vn 0.7618 0.3197 0.5634
vn 0.2906 0.4870 0.8236
vn -0.7120 0.6946 0.1030
vn 0.3214 0.9379 0.1302
vn 0.2455 0.9326 -0.2647
vn 0.3028 -0.0256 0.9527
vn -0.0788 0.4729 0.8776
vn 0.5240 0.4613 0.7160
vn 0.7658 0.0139 0.6429
vn 0.0888 0.6228 0.7773
vn -0.4904 0.4655 0.7368
vn -0.7710 0.5238 0.3622
vn -0.3647 0.2174 -0.9054
vn 0.0992 0.4727 -0.8756
vn 0.8471 0.4486 -0.2850
vn 0.5606 0.5683 -0.6023
vn 0.8286 0.5583 0.0407
vn 0.8442 0.4603 0.2746
vn 0.5548 0.4578 -0.6947
vn 0.1131 0.6595 -0.7432
vn -0.5073 0.4867 0.7112
vn 0.0930 0.9521 0.2914
vn -0.4182 0.9061 -0.0640
vn 0.6173 0.7756 -0.1319
vn -0.0519 0.8844 -0.4639
vn -0.4684 0.8785 -0.0940
vn -0.2221 0.9735 -0.0549
vn 0.3224 0.9116 0.2552
vn 0.5582 0.8045 0.2030
vt 0.318195 0.128478
vt 0.258036 0.837593
vt 0.681805 0.128478
vt 0.741964 0.837593
vt 0.153753 0.461087
vt 0.846247 0.461087
vt 0.165911 0.710558
vt 0.500000 0.900545
vt 0.779844 0.236242
vt 0.500000 0.080584
vt 0.220156 0.236242
vt 0.834089 0.710558
vt 0.500000 0.461609
vt 0.500000 0.465420
vt 0.277440 0.068701
vt 0.187041 0.915978
vt 0.812959 0.915978
vt 0.722560 0.068701
vt 0.998958 0.461675
vt 0.001042 0.461675
vt 0.500000 0.253463
vt 0.500000 0.231888
vt 0.500000 0.713864
vt 0.500000 0.697562
vt 0.098687 0.229582
vt 0.980412 0.716768
vt 0.500000 0.012821
vt 0.901313 0.229582
vt 0.500000 0.987192
vt 0.019588 0.716768
vt 0.355082 0.199902
vt 0.293930 0.112582
vt 0.311243 0.770542
vt 0.225186 0.857257
vt 0.644918 0.199902
vt 0.706070 0.112582
vt 0.688757 0.770542
vt 0.774814 0.857257
vt 0.096210 0.459966
vt 0.244518 0.462293
vt 0.903790 0.459966
vt 0.755482 0.462293
vt 0.307123 0.248728
vt 0.169977 0.238496
vt 0.500000 0.820889
vt 0.500000 0.926173
vt 0.742817 0.700725
vt 0.888591 0.708971
vt 0.500000 0.161257
vt 0.500000 0.060915
vt 0.257183 0.700725
vt 0.111410 0.708971
vt 0.692877 0.248728
vt 0.830024 0.238496
vt 0.703549 0.646792
vt 0.777674 0.630809
vt 0.839612 0.597217
vt 0.822455 0.528692
vt 0.759839 0.488516
vt 0.706148 0.477359
vt 0.625609 0.494324
vt 0.579594 0.536495
vt 0.577027 0.591701
vt 0.630699 0.632817
vt 0.300968 0.649602
vt 0.377653 0.639374
vt 0.433872 0.598258
vt 0.435139 0.541191
vt 0.389111 0.496216
vt 0.304724 0.473631
vt 0.225476 0.487555
vt 0.175642 0.536180
vt 0.160751 0.604680
vt 0.215326 0.635484
vt 0.296819 0.626136
vt 0.355057 0.618202
vt 0.395676 0.588104
vt 0.396509 0.548407
vt 0.362960 0.515258
vt 0.299309 0.498057
vt 0.241121 0.508036
vt 0.203501 0.544174
vt 0.193059 0.595275
vt 0.230146 0.615202
vt 0.707778 0.623509
vt 0.764717 0.611408
vt 0.807867 0.589009
vt 0.795848 0.538946
vt 0.749021 0.509180
vt 0.710076 0.501244
vt 0.649876 0.514104
vt 0.616707 0.544851
vt 0.614842 0.582884
vt 0.653594 0.612981
s 1
usemtl mask_mx_5
f 22/22/1 1/1/2 10/10/3
f 22/22/1 3/3/4 9/9/5
f 7/7/6 65/65/7 23/23/8
f 2/2/9 23/23/8 8/8/10
f 67/67/11 68/68/12 13/13/13
f 12/12/14 56/56/15 57/57/16
f 21/21/17 31/31/18 43/43/19
f 37/37/20 24/24/21 45/45/22
f 21/21/17 35/35/23 49/49/24
f 33/33/25 24/24/21 51/51/26
f 58/58/27 59/59/27 6/6/28
f 63/63/29 23/23/8 13/13/13
f 5/5/30 71/71/31 72/72/32
f 74/74/33 7/7/6 73/73/34
f 2/2/9 7/7/6 23/23/8
f 89/89/35 88/88/36 86/86/37
f 43/43/19 40/40/38 14/14/39 21/21/17
f 14/14/39 40/40/38 51/51/26 24/24/21
f 25/25/40 44/44/41 32/32/42 15/15/43
f 17/17/44 29/29/45 8/8/10 4/4/46
f 11/11/47 22/22/1 13/13/13 5/5/30
f 70/70/48 69/69/49 79/79/50 80/80/51
f 22/22/1 11/11/47 1/1/2
f 22/22/1 10/10/3 3/3/4
f 4/4/46 8/8/10 23/23/8
f 34/34/52 52/52/53 30/30/54 16/16/55
f 23/23/8 65/65/7 66/66/56
f 70/70/57 5/5/30 13/13/13
f 69/69/58 70/70/57 13/13/13
f 23/23/8 66/66/56 67/67/11
f 68/68/12 69/69/58 13/13/13
f 23/23/8 67/67/11 13/13/13
f 12/12/14 55/55/59 56/56/15
f 38/38/60 17/17/61 26/26/62 48/48/63
f 41/41/64 19/19/65 28/28/66 54/54/67
f 58/58/68 88/88/69 89/89/70 59/59/71
f 53/53/72 21/21/17 14/14/39 42/42/73
f 41/41/64 42/42/73 47/47/74 48/48/63
f 28/28/75 19/19/76 6/6/28 9/9/5
f 19/19/76 26/26/77 57/57/16 6/6/28
f 28/28/75 9/9/5 3/3/4 18/18/78
f 9/9/5 6/6/28 13/13/13 22/22/1
f 26/26/77 12/12/14 57/57/16
f 12/12/14 4/4/46 23/23/8
f 71/71/79 70/70/48 80/80/51 81/81/80
f 21/21/17 49/49/24 31/31/18
f 90/90/81 89/89/35 86/86/37 85/85/82
f 18/18/78 3/3/4 10/10/3 27/27/83
f 57/57/84 56/56/85 86/86/86 87/87/87
f 37/37/20 47/47/74 24/24/21
f 16/16/55 29/29/88 46/46/89 34/34/52
f 73/73/34 30/30/90 20/20/91 5/5/30
f 58/58/68 57/57/84 87/87/87 88/88/69
f 21/21/17 53/53/72 35/35/23
f 52/52/53 34/34/52 33/33/25 51/51/26
f 16/16/92 2/2/9 8/8/10 29/29/45
f 30/30/90 7/7/6 2/2/9 16/16/92
f 73/73/34 7/7/6 30/30/90
f 15/15/43 32/32/42 50/50/93 27/27/94
f 26/26/77 17/17/44 4/4/46 12/12/14
f 33/33/25 45/45/22 24/24/21
f 20/20/95 30/30/54 52/52/53 39/39/96
f 54/54/67 53/53/72 42/42/73 41/41/64
f 54/54/67 36/36/97 35/35/23 53/53/72
f 17/17/61 38/38/60 46/46/89 29/29/88
f 38/38/60 37/37/20 45/45/22 46/46/89
f 39/39/96 52/52/53 51/51/26 40/40/38
f 36/36/97 54/54/67 28/28/66 18/18/98
f 72/72/99 82/82/100 83/83/101 73/73/102
f 32/32/42 31/31/18 49/49/24 50/50/93
f 48/48/63 47/47/74 37/37/20 38/38/60
f 19/19/65 41/41/64 48/48/63 26/26/62
f 75/75/103 84/84/104 82/82/105 81/81/106
f 56/56/85 55/55/107 85/85/108 86/86/86
f 44/44/41 43/43/19 31/31/18 32/32/42
f 6/6/28 57/57/16 58/58/27
f 59/59/27 60/60/109 6/6/28
f 13/13/13 6/6/28 60/60/109
f 13/13/13 60/60/109 61/61/110
f 64/64/111 55/55/59 23/23/8
f 13/13/13 61/61/110 62/62/112
f 63/63/29 64/64/111 23/23/8
f 13/13/13 62/62/112 63/63/29
f 5/5/30 70/70/57 71/71/31
f 72/72/32 73/73/34 5/5/30
f 74/74/33 65/65/7 7/7/6
f 68/68/113 67/67/114 77/77/115 78/78/116
f 73/73/102 83/83/101 84/84/117 74/74/118
f 76/76/119 75/75/103 80/80/120 79/79/121
f 74/74/118 84/84/117 75/75/122 65/65/123
f 44/44/41 39/39/96 40/40/38 43/43/19
f 69/69/49 68/68/113 78/78/116 79/79/50
f 55/55/107 64/64/124 94/94/125 85/85/108
f 65/65/123 75/75/122 76/76/126 66/66/127
f 66/66/127 76/76/126 77/77/115 67/67/114
f 72/72/99 71/71/79 81/81/80 82/82/100
f 25/25/128 11/11/47 5/5/30 20/20/91
f 59/59/71 89/89/70 90/90/129 60/60/130
f 62/62/131 92/92/132 93/93/133 63/63/134
f 61/61/135 91/91/136 92/92/132 62/62/131
f 39/39/96 44/44/41 25/25/40 20/20/95
f 64/64/124 63/63/134 93/93/133 94/94/125
f 15/15/137 27/27/83 10/10/3 1/1/2
f 18/18/98 27/27/94 50/50/93 36/36/97
f 36/36/97 50/50/93 49/49/24 35/35/23
f 60/60/130 90/90/129 91/91/136 61/61/135
f 84/84/104 83/83/138 82/82/105
f 55/55/59 12/12/14 23/23/8
f 81/81/106 80/80/120 75/75/103
f 90/90/81 85/85/82 94/94/139 91/91/140
f 79/79/121 78/78/141 76/76/119
f 78/78/141 77/77/142 76/76/119
f 88/88/36 87/87/143 86/86/37
f 25/25/128 15/15/137 1/1/2 11/11/47
f 34/34/52 46/46/89 45/45/22 33/33/25
f 94/94/139 93/93/144 92/92/145
f 92/92/145 91/91/140 94/94/139
f 14/14/39 24/24/21 47/47/74 42/42/73
